<?xml version="1.0" encoding="utf-8"?>
<svg version="1.1" xmlns:xlink="http://www.w3.org/1999/xlink" width="14px" height="14px" xmlns="http://www.w3.org/2000/svg">
  <g transform="matrix(1 0 0 1 -1175 -3676 )">
    <path d="M 6.999968015625 0.00194468749999999  C 10.865699046875 0.00194468749999999  13.998263171875 3.1346846875  13.998263171875 6.999888078125  C 13.998263171875 10.8649475625  10.865763 13.998039328125  6.999968015625 13.998039328125  C 3.135004453125 13.998039328125  0.00172082812499941 10.86499553125  0.00172082812499941 6.999888078125  C 0.00172082812500007 3.13500446875  3.13500446875 0.00194468749999999  6.999968015625 0.00194468749999999  Z M 7.46243846875 9.41025384375  C 7.47014525 8.96898503125  7.500956359375 8.649761453125  7.554264203125 8.45349453125  C 7.607875859375 8.2569078125  7.689164734375 8.08337746875  7.800305390625 7.931992109375  C 7.91072653125 7.78092653125  8.145863109375 7.54540621875  8.505459296875 7.226838203125  C 9.04092025 6.75271165625  9.4012679375 6.349624953125  9.5849034375 6.0184255  C 9.76922646875 5.687290015625  9.861068203125 5.32524746875  9.861068203125 4.933097359375  C 9.861068203125 4.254245625  9.599629453125 3.67601365625  9.076000484375 3.19760203125  C 8.552451453125 2.71927034375  7.851486703125 2.47986465625  6.9724506875 2.47986465625  C 6.142533375 2.47986465625  5.474922015625 2.702785515625  4.969888421875 3.14817953125  C 4.465910125 3.5939413125  4.161396578125 4.23603396875  4.0600253125 5.073945859375  L 5.1938805625 5.208862390625  C 5.292022015625 4.5833345  5.499161578125 4.12353425  5.813828234375 3.82875809375  C 6.12857484375 3.534765421875  6.52102875 3.387505265625  6.9914458125 3.387505265625  C 7.477180484375 3.387505265625  7.889013265625 3.55017896875  8.22443384375 3.87498275  C 8.559454703125 4.19988246875  8.72692515625 4.577306578125  8.72692515625 5.006679453125  C 8.72692515625 5.24355884375  8.669811875 5.46259434375  8.5548658125 5.66271465625  C 8.441310796875 5.863522515625  8.192151734375 6.13228428125  7.809755 6.46912790625  C 7.42812575 6.806227359375  7.162801640625 7.063093203125  7.0156054375 7.23903790625  C 6.815117375 7.480202390625  6.67004771875 7.71957609375  6.580348546875 7.95685521875  C 6.457647734375 8.271521875  6.396313328125 8.64582809375  6.396313328125 9.078926453125  C 6.396313328125 9.152620484375  6.398072140625 9.26336140625  6.40227728125 9.410541625  L 7.46243846875 9.41025384375  Z M 7.591790765625 11.624240765625  L 7.591790765625 10.366773328125  L 6.334563171875 10.366773328125  L 6.334563171875 11.624240765625  L 7.591790765625 11.624240765625  Z " fill-rule="nonzero" fill="#ffffff" stroke="none" transform="matrix(1 0 0 1 1175 3676 )" />
  </g>
</svg>