<?xml version="1.0" encoding="utf-8"?>
<svg version="1.1" xmlns:xlink="http://www.w3.org/1999/xlink" width="27px" height="27px" xmlns="http://www.w3.org/2000/svg">
  <g transform="matrix(1 0 0 1 -1179 -3721 )">
    <path d="M 12.0888889 6.3888889  L 12.0888889 12.077777775  L 6.4 12.077777775  L 6.4 14.922222225  L 12.0888889 14.922222225  L 12.0888889 20.6111111  L 14.933333325 20.6111111  L 14.933333325 14.922222225  L 20.622222225 14.922222225  L 20.622222225 12.077777775  L 14.933333325 12.077777775  L 14.933333325 6.3888889  L 12.0888889 6.3888889  Z M 1 2.122222225  C 0.711111100000001 1.33675057926208  1.34786167926208 0.699999999999999  2.133333325 1  L 24.8888889 1  C 25.6743605359748 0.700000013807117  26.3111111 1.33675058902519  26 2.122222225  L 26 24.877777775  C 26.3111111 25.6632494109748  25.6743605359748 26.2999999861929  24.8888889 26  L 2.133333325 26  C 1.34786167926208 26.3  0.711111100000004 25.6632494207379  1 24.877777775  L 1 2.122222225  Z " fill-rule="nonzero" fill="#e7e7e7" stroke="none" transform="matrix(1 0 0 1 1179 3721 )" />
  </g>
</svg>