<?xml version="1.0" encoding="utf-8"?>
<svg version="1.1" xmlns:xlink="http://www.w3.org/1999/xlink" width="10px" height="10px" xmlns="http://www.w3.org/2000/svg">
  <g transform="matrix(1 0 0 1 -1757 -1939 )">
    <path d="M 9.35079891175917 4.54622035587959  L 5.30825025898401 4.54622035587959  L 5.30825025898401 2.57470777083725  C 5.20872678476011 2.57470777083725  5.11157291777987 2.55575092060207  5.02863669482596 2.5415332766698  L 5.00731023734713 2.5415332766698  C 4.90067794938852 2.55575091232361  4.77034958824083 2.57233816349953  4.62106437685795 2.58655579915334  L 4.62106437685795 4.54622035587959  L 0.583254938852305 4.54622035587959  L 0.583254938852305 2.97280165954845  C 0.583254938806274 2.72937755122931  0.78058400439851 2.53204848563707  1.02400174275736 2.53204848563707  C 1.02479161613482 2.53204848563707  1.02558148808533 2.53205060896484  1.02637135004704 2.53205485559737  L 2.86518597497648 2.53205485559737  C 2.37230782662277 2.42779216669802  2.00027961015992 2.21689718984008  1.98843158174977 1.82117290856068  C 1.97421394619003 1.3662084607714  2.49315775841957 0.622152027751647  3.25143183546566 0.792763696707432  C 4.00970591251176 0.963375365663217  4.57841146180621 1.57473383847601  4.99783180799624 2.0913080434619  C 5.41962176161806 1.56288580188147  6.01913219783631 0.882808741674507  6.83427683386642 0.776176453715899  C 7.5167235014111 0.688501016086548  8.08068984449671 1.37094768363123  8.00723204252117 1.81880330122295  C 7.9456222770461 2.2121579752587  7.56885484600188 2.4277921667921  7.08782472587018 2.52968524835372  L 8.90294328588899 2.52968524835372  C 8.90531492750135 2.52964695510715  8.90768683959802 2.52962780754808  8.91005879033742 2.52962780754808  C 9.15347652869627 2.52962780754808  9.3508055942885 2.72695687314032  9.3508055942885 2.97037461149916  C 9.3508055942885 2.97118363211545  9.35080336677028 2.97199265119839  9.35079891175917 2.97280165954845  L 9.35079891175917 4.54622035587959  Z M 4.5618242187206 2.24059325484478  C 4.24924626199724 1.79377339804854  3.82639657916758 1.4354123731957  3.33436805841957 1.20033600639699  C 3.25610994422084 1.16023495527605  3.16943657071683 1.13932127453921  3.0815023524685 1.13932127453921  C 2.86351814740901 1.13932127453921  2.66575733058492 1.26704222972124  2.57609398984007 1.4657319349953  C 2.4789401229539 1.62212596011289  2.39600389990593 1.81880330122295  2.53344107460019 1.96334929793039  C 2.89836046914393 2.33774712173095  3.9007040088429 2.30931184223895  4.5618242187206 2.24059325484478  Z M 7.46933137158984 1.96097969068674  L 7.45511372765757 1.96097969068674  C 7.71577044158043 1.62923478212606  7.20630505032926 0.937309693508937  6.66129555757291 1.19322719275635  C 6.18183102364127 1.44434460279918  5.76480923540836 1.79982530967203  5.44094821919097 2.23348443283161  C 5.72144971990153 2.25795578976424  6.00328145776495 2.26349742703139  6.28452812643462 2.2500716841016  C 6.62812106340546 2.2500716841016  7.26080599388523 2.21215798363123  7.46933137158984 1.96097969068674  Z M 4.6471300491063 4.84952998494826  L 4.6471300491063 9.20723630329257  L 1.35811625870179 9.20723630329257  C 1.13878401362579 9.20725166269822  0.960248410925683 9.03082890812723  0.957652762652869 8.8115120219191  L 0.957652762652869 4.84952998494826  L 4.6471300491063 4.84952998494826  Z M 8.97166187328316 4.84952998494826  L 8.97166187328316 8.8115120219191  C 8.9716665470975 8.81230188240966  8.97166888402001 8.81309175499965  8.97166888402001 8.81388162931819  C 8.97166888402001 9.03505151104993  8.79237526970283 9.21434512536711  8.57120538797109 9.21434512536711  L 5.28218458682973 9.21434512530574  L 5.28218458682973 4.84952998494826  L 8.97166187328316 4.84952998494826  Z " fill-rule="nonzero" fill="#546677" stroke="none" transform="matrix(1 0 0 1 1757 1939 )" />
  </g>
</svg>