<?xml version="1.0" encoding="utf-8"?>
<svg version="1.1" xmlns:xlink="http://www.w3.org/1999/xlink" width="33px" height="36px" xmlns="http://www.w3.org/2000/svg">
  <g transform="matrix(1 0 0 1 -1702 -2014 )">
    <path d="M 7.080712890625 9.080859375  C 7.080712890625 4.15546875  11.1130615234375 0.16171875  16.088037109375 0.16171875  C 21.0630126953125 0.16171875  25.095361328125 4.15546875  25.095361328125 9.080859375  C 25.095361328125 14.00625  21.059521484375 18  16.088037109375 18  C 11.116552734375 18  7.080712890625 14.00625  7.080712890625 9.080859375  Z M 7.080712890625 9.080859375  C 7.080712890625 4.15546875  11.1130615234375 0.16171875  16.088037109375 0.16171875  C 21.0630126953125 0.16171875  25.095361328125 4.15546875  25.095361328125 9.080859375  C 25.095361328125 14.00625  21.059521484375 18  16.088037109375 18  C 11.116552734375 18  7.080712890625 14.00625  7.080712890625 9.080859375  Z M 1.075830078125 32.494921875  C 1.075830078125 26.131640625  6.28471679687499 20.97421875  12.708544921875 20.97421875  L 20.2146484375 20.97421875  C 26.6384765625 20.97421875  31.84736328125 26.131640625  31.84736328125 32.494921875  L 31.84736328125 33.23671875  C 31.84736328125 35.743359375  26.6384765625 35.83828125  20.2146484375 35.83828125  L 12.708544921875 35.83828125  C 6.28471679687499 35.83828125  1.075830078125 35.834765625  1.075830078125 33.23671875  L 1.075830078125 32.494921875  Z " fill-rule="nonzero" fill="#6e6e6e" stroke="none" transform="matrix(1 0 0 1 1702 2014 )" />
  </g>
</svg>