<?xml version="1.0" encoding="utf-8"?>
<svg version="1.1" xmlns:xlink="http://www.w3.org/1999/xlink" width="12px" height="12px" xmlns="http://www.w3.org/2000/svg">
  <g transform="matrix(1 0 0 1 -1590 -2425 )">
    <path d="M 11.5449375029297 5.21681250292969  C 11.6885562259171 5.07469369856373  11.7400283190237 4.86387561031621  11.6780625058594 4.67156250585937  C 11.6154527818331 4.47881516346131  11.4488602089594 4.33831627952367  11.2483124970703 4.309125  L 7.95150000146484 3.82968750292969  L 6.47624999414063 0.842249998535156  C 6.38672255543767 0.660946402325522  6.20220286681937 0.546021148869711  6 0.545625005859375  C 5.79779713318063 0.546021148869711  5.61327744456233 0.660946402325523  5.52375000585938 0.842249998535156  L 4.04849999853516 3.82968750292969  L 0.751687502929688 4.309125  C 0.550873683997342 4.33772328717404  0.38400762550148 4.47845282019776  0.321937494140625 4.67156250585937  C 0.259790108221679 4.86407769947953  0.311930811940166 5.0751821829233  0.4565625 5.21662500585937  L 2.8426875 7.54162499853516  L 2.28150000146484 10.8256874956055  C 2.24766880260055 11.0249805724067  2.32959824603869 11.2262451861745  2.49300000585938 11.3452499985352  C 2.65665292512913 11.4642420224917  2.87373397600525 11.479804954497  3.05268750146484 11.3853750043945  L 6.00150000292969 9.83475000146484  L 8.95050000146484 11.3853750043945  C 9.027375 11.4255000102539  9.11250000146484 11.4463125014648  9.19743750585938 11.4463125014648  C 9.19780114462228 11.4463132488112  9.19816478405727 11.4463136224847  9.19852842358814 11.4463136224847  C 9.49168807154869 11.4463136224847  9.7293409221233 11.2086607719101  9.7293409221233 10.9155011239496  C 9.7293409221233 10.8854003990809  9.72678055282234 10.8553542188065  9.72168750146484 10.8256874956055  L 9.159 7.54181249560547  L 11.5449375029297 5.21681250292969  Z " fill-rule="nonzero" fill="#81848a" stroke="none" transform="matrix(1 0 0 1 1590 2425 )" />
  </g>
</svg>