<?xml version="1.0" encoding="utf-8"?>
<svg version="1.1" xmlns:xlink="http://www.w3.org/1999/xlink" width="16px" height="16px" xmlns="http://www.w3.org/2000/svg">
  <g transform="matrix(1 0 0 1 -1619 -2911 )">
    <path d="M 15.3932500039062 6.95575000390625  C 15.5847416345561 6.76625826475164  15.6533710920316 6.48516748042161  15.5707500078125 6.2287500078125  C 15.4872703757775 5.97175355128175  15.2651469452792 5.78442170603156  14.9977499960937 5.7455  L 10.6020000019531 5.10625000390625  L 8.6349999921875 1.12299999804688  C 8.51563007391689 0.881261869767363  8.26960382242583 0.728028198492948  8 0.7275000078125  C 7.73039617757417 0.728028198492948  7.48436992608311 0.881261869767364  7.3650000078125 1.12299999804688  L 5.39799999804688 5.10625000390625  L 1.00225000390625 5.7455  C 0.73449824532979 5.78363104956538  0.512010167335306 5.97127042693035  0.429249992187501 6.2287500078125  C 0.346386810962238 6.48543693263937  0.415907749253555 6.76690957723107  0.608750000000001 6.9555000078125  L 3.79025 10.0554999980469  L 3.04200000195313 14.4342499941406  C 2.99689173680073 14.6999740965422  3.10613099471825 14.9683269148993  3.3240000078125 15.1269999980469  C 3.54220390017217 15.2856560299889  3.83164530134033 15.306406605996  4.07025000195313 15.1805000058594  L 8.00200000390625 13.1130000019531  L 11.9340000019531 15.1805000058594  C 12.0365 15.2340000136719  12.1500000019531 15.2617500019531  12.2632500078125 15.2617500019531  C 12.2637348594964 15.261750998415  12.2642197120764 15.2617514966463  12.2647045647842 15.2617514966463  C 12.6555840953983 15.2617514966463  12.9724545628311 14.9448810292135  12.9724545628311 14.5540014985994  C 12.9724545628311 14.5138671987746  12.9690407370965 14.4738056250754  12.9622500019531 14.4342499941406  L 12.212 10.0557499941406  L 15.3932500039062 6.95575000390625  Z " fill-rule="nonzero" fill="#81848a" stroke="none" transform="matrix(1 0 0 1 1619 2911 )" />
  </g>
</svg>