<?xml version="1.0" encoding="utf-8"?>
<svg version="1.1" xmlns:xlink="http://www.w3.org/1999/xlink" width="23px" height="23px" xmlns="http://www.w3.org/2000/svg">
  <g transform="matrix(1 0 0 1 -1388 -230 )">
    <path d="M 22.28125 11.5  C 22.28125 5.5460546875  17.4539453125 0.71875  11.5 0.71875  C 5.5460546875 0.71875  0.71875 5.5460546875  0.71875 11.5  C 0.71875 17.4539453125  5.5460546875 22.28125  11.5 22.28125  C 17.4539453125 22.28125  22.28125 17.4539453125  22.28125 11.5  Z M 20.93359375 11.5  C 20.93359375 16.7100390625  16.7100390625 20.93359375  11.5 20.93359375  C 6.2899609375 20.93359375  2.06640625 16.7100390625  2.06640625 11.5  C 2.06640625 6.2899609375  6.2899609375 2.06640625  11.5 2.06640625  C 16.7100390625 2.06640625  20.93359375 6.2899609375  20.93359375 11.5  Z " fill-rule="nonzero" fill="#000000" stroke="none" transform="matrix(1 0 0 1 1388 230 )" />
  </g>
</svg>