<?xml version="1.0" encoding="utf-8"?>
<svg version="1.1" xmlns:xlink="http://www.w3.org/1999/xlink" width="17px" height="13px" xmlns="http://www.w3.org/2000/svg">
  <g transform="matrix(1 0 0 1 -1096 -383 )">
    <path d="M 9.22348748134951 2.88380824359303  C 9.22348748134951 4.11828851085987  10.1495791187379 5.15636248394323  11.3760601663173 5.29666847169811  C 11.4676948407768 5.30715122113645  11.5598522767994 5.31240536308989  11.6520846008464 5.31240536308989  C 12.9933617534275 5.31240536308989  14.0806817203432 4.22508539617414  14.0806817203432 2.88380824359303  C 14.0806817203432 2.77881580264384  14.0738732214715 2.67393385617217  14.0602990803634 2.56982259189378  C 13.9025819347624 1.36015994760118  12.8719855849486 0.455211124096175  11.6520846008464 0.455211124096175  C 10.3108074482653 0.455211124096175  9.22348748134951 1.54253109101192  9.22348748134951 2.88380824359303  Z M 5.15544299930119 5.29666847169811  L 5.1980499650594 5.29666847169811  C 5.29700169409929 5.30882043833739  5.39660362123017 5.31491345900203  5.49629873130678 5.31491345900203  C 6.84765230885618 5.31491345900203  7.94314083216765 4.21942493569056  7.94314083216765 2.86807135814116  C 7.94314083216765 1.63205793072965  7.02134453569288 0.59013352891685  5.79454749755416 0.439474244584207  C 5.68666277414408 0.424883232203075  5.57791902529224 0.417562959121936  5.4690520827083 0.417562959121936  C 4.1277749301272 0.417562959121936  3.04045496321145 1.50488292603769  3.04045496321145 2.84616007861879  C 3.04045496321145 2.96759354922859  3.04956272665029 3.0888560046966  3.06770161774983 3.20892710202656  C 3.21213930724027 4.29653311171304  4.06783698879282 5.15223078839644  5.15544299930119 5.29666847169811  Z M 5.41108479385046 6.48966354856744  L 5.41108479385045 6.53227051432565  C 3.57898521872816 6.53227051432565  0 7.42701681900769  0 9.25911639412998  L 0 12.2416040803634  C 0 12.4063223288982  0.133530523652487 12.5398528525507  0.298248772187282 12.5398528525507  L 10.4813138616352 12.5398528525507  C 10.64603211017 12.5398528525507  10.7795626338225 12.4063223288982  10.7795626338225 12.2416040803634  L 10.7795626338225 9.25911639412998  C 10.7795626338225 7.42701681900769  7.20057741509434 6.48966354856744  5.41108479385046 6.48966354856744  Z M 11.4612740978337 6.48966354856744  L 11.5038810635919 6.53227051432565  L 10.7369556561845 6.53227051432565  C 11.6708697432786 7.1286627240972  12.2461002611561 8.15129475092913  12.2708064709993 9.25911639412998  L 12.2708064709993 12.2416040803634  C 12.2708064709993 12.4063223288982  12.4043369946518 12.5398528525507  12.5690552431866 12.5398528525507  L 16.6593240628931 12.5398528525507  C 16.8240423114279 12.5398528525507  16.9575728350804 12.4063223288982  16.9575728350804 12.2416040803634  L 16.9575728350804 9.25911639412998  C 16.9575728350804 7.42701681900769  13.2933736848358 6.48966354856744  11.4612740978337 6.48966354856744  Z " fill-rule="nonzero" fill="#f9f9f9" stroke="none" transform="matrix(1 0 0 1 1096 383 )" />
  </g>
</svg>