<?xml version="1.0" encoding="utf-8"?>
<svg version="1.1" xmlns:xlink="http://www.w3.org/1999/xlink" width="15px" height="17px" xmlns="http://www.w3.org/2000/svg">
  <g transform="matrix(1 0 0 1 -1193 -380 )">
    <path d="M 14.0697916611328 7.05677083886719  C 13.98125 6.215625  13.8395833222656 5.365625  13.4677083388672 4.56875  C 13.1401041777344 3.771875  12.6708333388672 3.11666666113281  12.0598958388672 2.55  C 11.4489583388672 1.98333333886719  10.79375 1.5140625  9.996875 1.18645833886719  C 9.2 0.858854177734375  8.35 0.672916677734375  7.46458333886719 0.672916661132812  C 6.5703125 0.672916661132812  5.72916666113281 0.814583338867188  4.93229166113281 1.18645833886719  C 4.13541666113281 1.5140625  3.42708332226562 1.98333333886719  2.86927083886719 2.55  C 2.31145835546875 3.11666666113281  1.78020833886719 3.81614583886719  1.44375 4.56875  C 1.11614583886719 5.365625  0.930208338867187 6.215625  0.930208338867187 7.05677083886719  C 0.930208338867187 8.32291667773437  1.2578125 9.50052083886719  1.82447916113281 10.7135416611328  C 2.29375 11.6520833222656  2.94895832226563 12.590625  3.79895833886719 13.4848958388672  C 5.20677083886719 14.9901041777344  6.71197917773437 15.9286458388672  7.128125 16.1588541611328  C 7.22552083886719 16.25625  7.41145833886719 16.25625  7.5 16.25625  C 7.64166666113281 16.25625  7.78333333886719 16.2119791611328  7.871875 16.1588541611328  C 8.296875 15.9197916611328  9.79322916113281 14.98125  11.2010416611328 13.4848958388672  C 11.9979166611328 12.590625  12.70625 11.6520833388672  13.1755208388672 10.7135416611328  C 13.7421875 9.5359375  14.0697916777344 8.26979166113281  14.0697916611328 7.05677083886719  Z M 10.5546875 7.1984375  C 10.5546875 8.93385417773437  9.19114583886719 10.2973958388672  7.45572916113281 10.2973958388672  C 5.7203125 10.2973958388672  4.35677082226563 8.93385417773437  4.35677083886719 7.1984375  C 4.35677085546875 5.46302082226563  5.7203125 4.09947916113281  7.45572916113281 4.09947916113281  C 9.19114582226563 4.09947916113281  10.5546875 5.46302082226563  10.5546875 7.1984375  Z " fill-rule="nonzero" fill="#fff8f8" stroke="none" transform="matrix(1 0 0 1 1193 380 )" />
  </g>
</svg>