<?xml version="1.0" encoding="utf-8"?>
<svg version="1.1" xmlns:xlink="http://www.w3.org/1999/xlink" width="15px" height="16px" xmlns="http://www.w3.org/2000/svg">
  <g transform="matrix(1 0 0 1 -1258 -380 )">
    <path d="M 12.4644916090737 8.80031809586874  C 12.4644916090737 9.77989477764025  12.0926408767708 10.7254175043868  11.4194482758621 11.4576  L 13.251724137931 13.2288  C 13.4131883378326 13.3795490975479  13.5043764461193 13.5872354037244  13.5043764461193 13.804230564582  C 13.5043764461193 14.2460583644466  13.133853480462 14.604230564582  12.6767902392228 14.604230564582  C 12.4523124866114 14.604230564582  12.2374645836702 14.5160820599048  12.0815172413793 14.36  L 10.0787586206897 12.424  C 9.53021089146883 12.6718569107592  8.93207479325948 12.8003180958687  8.32656057459096 12.8003180958687  C 6.04124436839457 12.8003180958687  4.1886295401082 11.0094570951919  4.1886295401082 8.80031809586874  C 4.1886295401082 6.59117909654557  6.04124436839457 4.80031809586874  8.32656057459096 4.80031809586874  C 10.6118767807873 4.80031809586874  12.4644916090737 6.59117909654557  12.4644916090737 8.80031809586874  Z M 14.948275862069 1.6  L 14.948275862069 8  L 13.2931034482759 8  L 13.2931034482759 2.4  C 13.2931034482759 1.95817220013537  12.9225804826186 1.6  12.4655172413793 1.6  L 2.53448275862069 1.6  C 2.07741951738141 1.6  1.70689655172414 1.95817220013537  2 2.4  L 2 13.6  C 1.70689655172414 14.0418277998646  2.07741951738141 14.4  2.53448275862069 14.4  L 9.98275862068965 14.4  L 9.98275862068965 16  L 1.70689655172414 16  C 0.792770069245583 16  0.0517241379310343 15.2836555997293  0 14.4  L 0 1.6  C 0.0517241379310343 0.716344400270731  0.792770069245583 0  1.70689655172414 0  L 13.2931034482759 0  C 14.2072299307544 0  14.948275862069 0.716344400270731  14.948275862069 1.6  Z M 8.32758620689655 11.2  C 9.69877593061438 11.2  10.8103448275862 10.1254833995939  10.8103448275862 8.8  C 10.8103448275862 7.4745166004061  9.69877593061438 6.4  8.32758620689655 6.4  C 6.95639648317872 6.4  5.8448275862069 7.4745166004061  5.8448275862069 8.8  C 5.8448275862069 10.1254833995939  6.95639648317872 11.2  8.32758620689655 11.2  Z " fill-rule="nonzero" fill="#ffffff" stroke="none" transform="matrix(1 0 0 1 1258 380 )" />
  </g>
</svg>