<?xml version="1.0" encoding="utf-8"?>
<svg version="1.1" xmlns:xlink="http://www.w3.org/1999/xlink" width="16px" height="16px" xmlns="http://www.w3.org/2000/svg">
  <g transform="matrix(1 0 0 1 -1345 -286 )">
    <path d="M 7.99996401757812 0.1271877734375  C 12.3489114277344 0.1271877734375  15.8730460683594 3.6515202734375  15.8730460683594 7.99987408789062  C 15.8730460683594 12.3480660078125  12.348983375 15.8727942441406  7.99996401757812 15.8727942441406  C 3.65188000976562 15.8727942441406  0.126935931640624 12.3481199726562  0.126935931640624 7.99987408789062  C 0.126935931640625 3.65188002734375  3.65188002734375 0.1271877734375  7.99996401757812 0.1271877734375  Z M 8.52024327734375 10.7115355742188  C 8.52891340625 10.2151081601562  8.56357590429687 9.85598163476562  8.62354722851562 9.63518134765625  C 8.68386034179687 9.4140212890625  8.77531032617187 9.21879965234375  8.90034356445312 9.04849112304688  C 9.02456734765625 8.87854234765625  9.28909599804687 8.61358199609375  9.69364170898437 8.25519297851563  C 10.29603528125 7.72180061328125  10.7014264296875 7.26832807226562  10.9080163671875 6.8957286875  C 11.1153797773438 6.52320126757813  11.2187017285156 6.11590340234375  11.2187017285156 5.67473452929687  C 11.2187017285156 4.911026328125  10.9245831347656 4.26051536328125  10.3355005449219 3.72230228515625  C 9.74650788476562 3.18417913671875  8.95792254101563 2.91484773828125  7.9690070234375 2.91484773828125  C 7.035350046875 2.91484773828125  6.28428726757812 3.16563370507812  5.71612447460937 3.66670197265625  C 5.149148890625 4.1681839765625  4.80657115039063 4.89053821484375  4.6925284765625 5.83318909179687  L 5.9681156328125 5.98497018945312  C 6.07852476757812 5.2812513125  6.31155677539062 4.76397603125  6.66555676367187 4.43235285546875  C 7.01964669921875 4.10161109960938  7.46115734375 3.93594342382813  7.9903765390625 3.93594342382813  C 8.53682804492187 3.93594342382813  9.00013992382812 4.11895133984375  9.37748807421875 4.48435559375  C 9.75438654101562 4.84986777734375  9.94279080078125 5.27446990039063  9.94279080078125 5.75751438476563  C 9.94279080078125 6.02400369921875  9.878538359375 6.27041863671875  9.7492240390625 6.49555398828125  C 9.62147464648437 6.72146283007812  9.34117070117187 7.02381981640625  8.910974375 7.40276889453125  C 8.48164146875 7.78200577929687  8.18315184570312 8.07097985351562  8.0175561171875 8.26891764453125  C 7.792007046875 8.54022768945312  7.62880368359375 8.80952310546875  7.52789211523437 9.07646212109375  C 7.38985370117187 9.430462109375  7.32085249414062 9.85155660546875  7.32085249414062 10.3387922597656  C 7.32085249414062 10.4216980449219  7.32283115820312 10.5462815820312  7.32756194140625 10.711859328125  L 8.52024327734375 10.7115355742188  Z M 8.66576461132813 13.2022708613281  L 8.66576461132813 11.7876199941406  L 7.25138356835937 11.7876199941406  L 7.25138356835937 13.2022708613281  L 8.66576461132813 13.2022708613281  Z " fill-rule="nonzero" fill="#ffffff" stroke="none" transform="matrix(1 0 0 1 1345 286 )" />
  </g>
</svg>