<?xml version="1.0" encoding="utf-8"?>
<svg version="1.1" xmlns:xlink="http://www.w3.org/1999/xlink" width="21px" height="21px" xmlns="http://www.w3.org/2000/svg">
  <g transform="matrix(1 0 0 1 -1790 -420 )">
    <path d="M 10.517064336218 15.4542023608451  C 10.5150273322325 15.4542023608451  10.5129903283502 15.4542014410968  10.5109533251953 15.4541996016004  C 10.5000297785673 15.4542524777892  10.4891061199628 15.4542789159997  10.47818244536 15.4542789159997  C 6.73914573808831 15.4542789159997  3.70805759868035 12.423191017346  3.70805759868035 8.68415460705964  C 3.70805759868035 8.67323093332497  3.70808403689298 8.66230727558729  3.70813691308594 8.65138372982731  L 3.70813691308594 0.567653231279445  C 3.70808939777375 0.564678748078431  3.70806563898111 0.561703932827798  3.70806563898111 0.558729070138926  C 3.70806563898111 0.250151875050331  3.95821690082806 0  4.26679412042642 0  C 4.2678085344947 0  4.26882294668202 0  4.26983734570312 0  L 16.7907047519531 0  C 17.0751039577969 0.0279005556341124  17.2900737327856 0.270065273017759  17.2840501230469 0.555765386520551  L 17.2840501230469 8.63949590557622  C 17.2841615148171 8.65534703354812  17.284217211218 8.67119850398591  17.284217211218 8.68705002334861  C 17.284217211218 12.4244450591297  14.2544596688541 15.4542023608451  10.517064336218 15.4542023608451  Z M 16.2349482421875 1  L 4.75723879394531 1  L 4.75723879394531 8.65138372982731  C 4.7574282537085 11.820731450601  7.32674553989395 14.3898949466535  10.4960935180664 14.3898949466535  C 13.6654414962389 14.3898949466535  16.2347587824243 11.820731450601  16.2349482421875 8.65138372982731  L 16.2349482421875 1  Z M 4.07963191699219 10.4999427079994  L 4.07963191699219 10.5029146589352  C 2.66200700390625 10.5029146589352  0.623242450195312 8.03321610998201  0.623242450195312 5.74777907276043  L 0.623242450195312 2.41918413987952  C 0.624867214085301 2.11292383511027  0.872738651313805 1.86505242671641  1.17899898046875 1.86342767425669  L 3.97264134667969 1.86342767425669  C 4.26304144430267 1.88470649465748  4.48778415079028 2.1265195396804  4.48778415079028 2.41769816441161  C 4.48778415079028 2.70887678914282  4.26304144430268 2.95068983416574  3.97264134667969 2.97196865456652  L 1.67234433105469 2.97196865456652  L 1.67234433105469 5.81019022698291  C 1.67234433105469 7.72413231031327  3.40202504003906 9.45084091046839  4.07963191699219 9.45084091046839  C 4.22659146466553 9.44975599914419  4.36786856192634 9.50755116835586  4.471930640625 9.61132673268221  C 4.57614166202676 9.71655103319614  4.63484381607773 9.85850351371222  4.63538842675781 10.0065973760912  C 4.58844378371598 10.2808556583791  4.35752161156332 10.4858453861893  4.07963191699219 10.4999427079994  Z M 16.2854715556641 10.0095693475348  C 16.3609255534072 10.2918620991423  16.6116420518674 10.4919531280272  16.9036392451172 10.5029146589352  C 18.3212641582031 10.5029146589352  20.3570567402344 8.03321610998201  20.3570567402344 5.74777907276043  L 20.3570567402344 2.41918413987952  C 20.3570620951539 2.41819082112436  20.3570647726282 2.41719748973956  20.3570647726282 2.41620415655049  C 20.3570647726282 2.11090969914624  20.1095746956877 1.86341964186349  19.8042802140345 1.86341964186349  C 19.8032868807665 1.86341964186349  19.8022935493028 1.86342231933762  19.8013002304688 1.86342767425669  L 17.0254895917969 1.86342767425669  C 16.7185537411711 1.86342767425669  16.4697330717773 2.112248323887  16.4697330717773 2.41918415013342  C 16.4697330717773 2.72611997637984  16.7185537411711 2.97494062601015  17.0254895917969 2.97494062601015  L 19.248515671875 2.97494062601015  L 19.248515671875 5.81316217791873  C 19.248515671875 7.72710426124908  17.5188349628906 9.45381286140421  16.8412280859375 9.45381286140421  C 16.8402347602307 9.45380750641102  16.8392414218939 9.45380482889984  16.8382480817528 9.45380482889984  C 16.5329536000995 9.45380482889984  16.2854635231591 9.7012948861826  16.2854635231591 10.0065893435868  C 16.2854635231591 10.007582683649  16.2854662006705 10.0085760219069  16.2854715556641 10.0095693475348  Z M 8.22848805761719 10.4405035047127  L 8.21362826074219 10.4405035047127  C 8.1208111187645 10.3942559759355  8.0621454238476 10.2994801372253  8.0621454238476 10.1957793445844  C 8.0621454238476 10.1527564365907  8.07229804321838 10.1103407168687  8.09177789355469 10.0719805017573  L 8.46030092578125 7.8489545982504  L 6.91785369433594 6.24112438416078  C 6.79600332714844 6.18168518087413  6.79600332714844 5.9944517182067  6.79600334765625 5.87260138120538  C 6.85544255566406 5.74777907276044  6.91785371484375 5.62592871525131  7.04267601269531 5.62592871525131  L 9.26273012109375 5.32873273983365  L 10.2494208427734 3.29294031950197  C 10.2494208427734 3.16811801105702  10.3742431611328 3.10867880777036  10.4960935078125 3.10867880777036  C 10.6218442700886 3.10961147672206  10.7365366365792 3.18072074098895  10.7932895068359 3.29294031950197  L 11.7294569150391 5.31981686651838  L 13.8900718154297 5.61701284193604  C 14.0231339998368 5.62438093086182  14.1293764004031 5.73062331415668  14.1367445009766 5.86368548738231  C 14.1819571518372 5.99146185503293  14.1596002804768 6.13342796031113  14.0773052929687 6.24112438416078  L 12.5348580615234 7.84598264731459  L 12.9063530654297 10.0690085303137  C 12.9233777312659 10.2044830147613  12.8773791744412 10.3402882734586  12.7815307470703 10.4375315537769  C 12.6666040248721 10.4998917670418  12.5279344370419 10.4998917670418  12.4130077148437 10.4375315537769  L 10.5109533251953 9.39140170718173  L 8.59998304101562 10.4405035047127  C 8.53757188183594 10.4405035047127  8.47516072265625 10.5029146589352  8.41274956347656 10.5029146589352  C 8.34505788945583 10.5109834545868  8.27734304321182 10.4880477812221  8.22848805761719 10.4405035047127  Z M 10.5109533251953 5.56648951196465  L 10.0651593164063 6.43132979776402  L 8.95364627636719 6.61559130949563  L 9.75607547167969 7.41802044107253  L 9.57181396582031 8.46712223860351  L 10.5109533251953 7.97377690669535  L 11.4382048388672 8.46712223860351  L 11.2361115439453 7.42990828583142  L 12.0385407392578 6.62747915425452  L 10.9299996708984 6.44321764252292  L 10.5109533251953 5.56648951196465  Z M 12.0415127109375 18.5242340032606  L 8.95364627636719 18.5242340032606  L 8.95364627636719 14.7587610113301  L 10.1870096835938 14.8835833197751  L 10.1870096835938 17.9060663834153  L 10.8081493242187 17.9060663834153  L 10.8081493242187 14.8211721655526  L 12.0415127109375 14.7587610113301  L 12.0415127109375 18.5242340032606  Z M 14.2615668193359 20.9998764745932  L 14.2615668193359 20.9909606012779  L 6.73359218847656 20.9909606012779  C 6.45045927349485 20.9988363123947  6.20868160356536 20.7880889537845  6.17783565820313 20.5065311631929  L 6.17783565820313 18.3994116948156  C 6.20433712117356 18.1143063102714  6.44735565225111 17.8985786555167  6.73359218847656 17.9060663834153  L 14.2615668193359 17.9060663834153  C 14.5472669483754 17.9000427732566  14.7894316821516 18.1150125197115  14.8173233291016 18.3994116948156  L 14.8173233291016 20.5065311631929  C 14.7894316821516 20.7909303382969  14.5472669483754 21.0059000847519  14.2615668193359 20.9998764745932  Z M 7.28934869824219 18.8957289776596  L 7.28934869824219 20.0042699579694  L 13.7058102890625 20.0042699579694  L 13.7058102890625 18.8957289776596  L 7.28934869824219 18.8957289776596  Z M 17.3464612822266 20.3757649323685  C 17.3448254826323 20.7160082981018  17.0685409177305 20.990964544787  16.7282935927734 21  L 4.26983734570312 21  C 3.95777856232854 20.9533706497787  3.72298190414609 20.6885935656374  3.72298190414609 20.3742789569005  C 3.72298190414609 20.0599643481637  3.95777856232855 19.7951872640224  4.26983734570312 19.7575973125232  L 16.7907047519531 19.7575973125232  C 17.1007565877754 19.7645882992227  17.3484581847166 20.0179379606448  17.3484581847166 20.3280685775154  C 17.3484581847166 20.3439882574319  17.3477919676876 20.3599009642291  17.3464612822266 20.3757649323685  Z " fill-rule="nonzero" fill="#d99900" stroke="none" transform="matrix(1 0 0 1 1790 420 )" />
  </g>
</svg>