<?xml version="1.0" encoding="utf-8"?>
<svg version="1.1" xmlns:xlink="http://www.w3.org/1999/xlink" width="24px" height="23px" xmlns="http://www.w3.org/2000/svg">
  <g transform="matrix(1 0 0 1 -1734 -482 )">
    <path d="M 1.7381 9.534525  C 1.680825 9.1191  1.618475 8.7044  1.556125 8.27955  C 1.528575 8.18385  1.61485 8.199075  1.66705 8.19255  C 2.012875 8.149775  2.359425 8.113525  2.70815 8.0983  C 3.6811 8.055525  4.63955 8.14325  5.568275 8.44485  C 6.847175 8.860275  7.9122 9.57585  8.664025 10.7141  C 8.80975 10.935225  8.806125 10.938125  8.572675 11.05195  C 8.2515 11.21  7.930325 11.3666  7.60915 11.52465  C 7.5555 11.55075  7.51925 11.571775  7.4714 11.500725  C 6.813825 10.514  5.861175 9.966625  4.73525 9.688225  C 3.9015 9.4816  3.05615 9.473625  2.20645 9.563525  C 2.08465 9.576575  1.96285 9.5889  1.841775 9.607025  C 1.7787 9.61645  1.74825 9.605575  1.7381 9.534525  Z M 10.30615 6.725875  C 10.095175 6.055975  9.977725 5.371575  9.977 4.5777  C 9.977 3.876625  10.12925 3.124075  10.531625 2.4317  C 10.583825 2.341075  10.6208 2.3157  10.718675 2.3824  C 11.046375 2.60425  11.381325 2.81595  11.714825 3.029825  C 11.77355 3.067525  11.8011 3.093625  11.75615 3.170475  C 11.434975 3.72075  11.366825 4.32395  11.405975 4.946  C 11.43425 5.394775  11.51835 5.834125  11.65465 6.261875  C 11.677125 6.3322  11.6677 6.35975  11.597375 6.385125  C 11.20805 6.5265  10.818725 6.669325  10.4323 6.81795  C 10.32645 6.85855  10.325 6.78605  10.30615 6.725875  Z M 22.937825 21.749325  C 23.063975 21.51805  23.08065 21.276625  23.013225 21.02215  C 22.02215 17.271  21.033975 13.5184  20.042175 9.76725  C 19.882675 9.1626  19.6978 8.5623  19.560775 7.954025  C 19.336025 6.95715  18.6857 6.36555  17.662 6.3206  C 17.09215 6.295225  16.5484 6.42645  16.015525 6.6106  C 15.624025 6.746175  15.248475 6.920175  14.86205 7.117375  C 14.78665 6.343075  14.772875 5.590525  14.859875 4.8387  C 14.93165 4.217375  15.067225 3.612  15.36085 3.053025  C 15.7944 2.2287  16.456325 1.71105  17.390125 1.5733  C 17.609075 1.540675  17.82585 1.56315  18.010725 1.701625  C 18.23475 1.8691  18.2855 2.17505  18.1463 2.471575  C 18.01725 2.747075  17.8099 2.85075  17.51265 2.783325  C 17.439425 2.76665  17.3662 2.7449  17.29805 2.71445  C 17.24005 2.68835  17.207425 2.68835  17.17625 2.751425  C 16.9892 3.12625  16.799975 3.50035  16.608575 3.873725  C 16.5774 3.934625  16.5861 3.966525  16.6499 3.989725  C 16.773875 4.0354  16.894225 4.089775  17.01965 4.12965  C 17.94185 4.4182  18.863325 4.08035  19.3353 3.2727  C 20.1357 1.90245  19.3295 0.168975000000003  17.6185 0.149400000000003  C 16.41065 0.135625000000003  15.434075 0.661975000000003  14.6547 1.562425  C 14.07325 2.2345  13.759325 3.03925  13.576625 3.8991  C 13.299675 5.1983  13.3439 6.50475  13.50485 7.811925  C 13.5179 7.91705  13.485275 7.962  13.409875 8.016375  C 11.403075 9.457675  9.70875 11.19695  8.395775 13.29655  C 8.3443 13.3792  8.3037 13.385  8.217425 13.353825  C 7.9383 13.25305  7.657725 13.1559  7.37425 13.071075  C 6.14465 12.704225  4.89765 12.478025  3.609325 12.663625  C 2.50225 12.823125  1.561925 13.298725  0.857949999999998 14.1854  C 0.406274999999998 14.7538  0.0887249999999979 15.380925  0.0916249999999978 16.13275  C 0.0945249999999977 16.961425  0.571574999999998 17.669025  1.335725 17.970625  C 2.134675 18.286  3.0924 18.0917  3.635425 17.499375  C 4.135675 16.95345  4.234275 16.303125  4.11465 15.59915  C 4.10305 15.530275  4.071875 15.52375  4.006625 15.538975  C 3.616575 15.6296  3.226525 15.720225  2.8343 15.79925  C 2.730625 15.820275  2.711775 15.852175  2.72555 15.955125  C 2.75455 16.174075  2.7473 16.393025  2.5617 16.55615  C 2.371025 16.723625  2.0078 16.743925  1.775075 16.60545  C 1.566275 16.48075  1.46695 16.2415  1.5293 15.96455  C 1.667775 15.346125  2.0426 14.88865  2.553 14.541375  C 3.27655 14.049825  4.097975 13.974425  4.94115 14.0346  C 5.80245 14.0955  6.631125 14.31445  7.4453 14.590675  C 7.675125 14.66825  7.6715 14.66825  7.5845 14.8988  C 7.32495 15.588275  7.1234 16.28935  7.2365 17.036825  C 7.351775 17.800975  7.7614 18.33385  8.5067 18.5876  C 8.68215 18.64705  8.86775 18.655025  9.04465 18.702875  C 11.142075 19.26185  13.238775 19.823725  15.335475 20.38415  C 17.523525 20.969225  19.71085 21.553575  21.899625 22.1372  C 22.353475 22.258275  22.73265 22.116175  22.937825 21.749325  Z M 11.87505 16.282825  C 11.22545 16.68665  10.544675 17.029575  9.792125 17.20575  C 9.544175 17.26375  9.2926 17.303625  9.03595 17.25215  C 8.795975 17.2043  8.6836 17.0912  8.646625 16.8505  C 8.5821 16.42565  8.704625 16.029075  8.83005 15.633225  C 8.865575 15.521575  8.9185 15.415  8.95475 15.30335  C 8.98085 15.221425  9.016375 15.222875  9.085975 15.256225  C 9.455 15.434575  9.824025 15.612925  10.17855 15.81955  C 10.266275 15.871025  10.3018 15.85435  10.34965 15.770975  C 10.547575 15.42805  10.74985 15.0873  10.957925 14.7509  C 11.010125 14.666075  10.989825 14.63345  10.9137 14.5914  C 10.538875 14.383325  10.160425 14.1825  9.76965 14.004875  C 9.6725 13.96065  9.67105 13.929475  9.7247 13.8461  C 10.303975 12.946375  10.9775 12.12205  11.717725 11.3521  C 12.31005 10.73585  12.9408 10.160925  13.614325 9.634575  C 13.6687 9.5918  13.71655 9.538875  13.7905 9.5164  C 13.860825 9.79335  13.934775 10.065225  13.998575 10.339275  C 14.0196 10.42845  14.055125 10.4386  14.1356 10.41395  C 14.5221821362175 10.2939029607058  14.9100808853745 10.1781375396178  15.299225 10.066675  C 15.37825 10.0442  15.390575 10.01955  15.368825 9.94125  C 15.25935 9.541775  15.170175 9.1365  15.088975 8.729775  C 15.075925 8.6638  15.084625 8.62465  15.1448 8.5913  C 15.78425 8.2346  16.43675 7.90835  17.1661 7.777125  C 17.31835 7.749575  17.47205 7.727825  17.6301 7.748125  C 18.02305 7.7996  18.154275 7.940975  18.158625 8.34045  C 18.162975 8.70875  18.071625 9.05965  17.9491 9.402575  C 17.619225 10.3255  17.116075 11.154175  16.53245 11.934275  C 15.2405 13.66195  13.711475 15.1395  11.87505 16.282825  Z M 19.0946 17.7553  C 18.4421 18.46145  17.701875 19.04  16.792 19.378575  C 16.50345 19.485875  16.206925 19.5591  15.9017 19.59245  C 15.699425 19.6142  15.5015 19.60405  15.302125 19.5417  C 14.25885 19.217625  13.2134 18.902975  12.168675 18.5847  C 12.125175 18.57165  12.081675 18.557875  12.039625 18.531775  C 12.2825 18.523075  12.523925 18.512925  12.763175 18.4803  C 13.801375 18.33965  14.7446 17.95105  15.60735 17.36815  C 17.002975 16.424925  18.1086 15.224325  18.8046 13.674275  C 19.15695 12.89055  19.320075 12.132925  19.3585 11.299175  C 19.457825 11.6218  19.55715 11.9437  19.65575 12.266325  C 19.9037 13.076875  20.155275 13.885975  20.395975 14.6987  C 20.494575 15.0322  20.419175 15.36425  20.33 15.6876  C 20.10815 16.488725  19.650675 17.152825  19.0946 17.7553  Z M 21.989525 19.7244  C 22.195425 20.350075  21.6959 21.1077  21.038325 21.166425  C 20.95785 21.173675  20.87665 21.173675  20.7998 21.14975  C 20.235025 20.970675  19.670975 20.79015  19.108375 20.61035  C 20.3068 20.212325  21.080375 19.404675  21.503775 18.2425  C 21.66255 18.726075  21.82495 19.2256  21.989525 19.7244  Z M 7.80345 4.2761  C 7.802 2.877575  6.67245 1.749475  5.275375 1.7531  C 3.86815 1.756725  2.75745 2.87975  2.75745 4.29785  C 2.75745 5.689125  3.89425 6.7991  5.318875 6.798375  C 6.6797 6.79765  7.804175 5.655775  7.80345 4.2761  Z M 6.383175 4.28045  C 6.381725 4.8793  5.88075 5.3781  5.28045 5.3781  C 4.6787 5.378825  4.179175 4.881475  4.17845 4.281175  C 4.177725 3.673625  4.68305 3.169025  5.28625 3.1741  C 5.88655 3.179175  6.3839 3.680875  6.383175 4.28045  Z " fill-rule="nonzero" fill="#c11b1b" stroke="none" transform="matrix(1 0 0 1 1734 482 )" />
  </g>
</svg>