<?xml version="1.0" encoding="utf-8"?>
<svg version="1.1" xmlns:xlink="http://www.w3.org/1999/xlink" width="31px" height="19px" xmlns="http://www.w3.org/2000/svg">
  <g transform="matrix(1 0 0 1 -1815 -516 )">
    <path d="M 24.4860284697509 4.07553321470937  L 24.4871316725979 4.07553321470937  C 27.3489317912218 7.68381553973903  30.8032805456702 13.0962390272835  30.8032805456702 13.0962390272835  C 31.0635444839858 13.4971429418743  30.9129205219454 13.846012455516  30.5263950177936 13.9899988137604  L 16.6448119810202 18.9139976275208  C 14.7686868327402 18.7700296559905  0.56153024911032 15.7797431791222  0.56153024911032 15.7797431791222  C 0.292883522912597 15.779061905936  0.0754629344871116 15.56108925185  0.0754629344871116 15.2924416618182  C 0.0754629344871116 15.1948929300432  0.1047397789848 15.0995893486683  0.159504744958482 15.0188641755635  L 9.458162514828 1.34218268090154  C 11.1404733096085 -1.13198873072361  14.4740948991696 0.69761803084223  15.6026346381969 1.36433867141163  C 16.7323143534994 2.02883451957295  18.7956162514828 2.09640569395018  19.5742016607355 1.83724495848161  C 22.3263618030842 0.919122775800711  23.151465599051 2.3943256227758  24.4860284697509 4.07553321470937  Z M 13.7885462633452 15.5659792408066  L 13.7885462633452 15.5671008303677  C 14.3910237247924 15.6844816132859  14.7033404507711 15.3145776986951  14.4884916963227 14.7486346381969  L 10.7750005931198 4.95822419928826  C 10.5590302491103 4.38897153024911  10.1149175563464 4.34686595492289  9.78377283511269 4.86298102016607  L 4.7246684460261 12.7451447212337  C 4.39240213523132 13.2623629893238  4.6139068801898 13.7762348754448  5.21417793594306 13.8936340450771  L 13.7885462633452 15.5659792408066  Z M 19.1234513641756 6.58960379596678  C 21.4159804270463 6.58960379596678  23.0584288256228 4.79763463819692  23.0584288256228 4.79763463819692  C 23.0584288256228 4.79763463819692  21.6984003558719 5.69472241992883  19.1234329774614 5.69472241992883  C 16.549568801898 5.69472241992883  13.5670415183867 4.79763463819692  13.5670415183867 4.79763463819692  C 13.5670415183867 4.79763463819692  16.8319887307236 6.58960379596678  19.1234329774614 6.58960379596678  Z " fill-rule="nonzero" fill="#01683c" stroke="none" transform="matrix(1 0 0 1 1815 516 )" />
  </g>
</svg>