<?xml version="1.0" encoding="utf-8"?>
<svg version="1.1" xmlns:xlink="http://www.w3.org/1999/xlink" width="68px" height="68px" xmlns="http://www.w3.org/2000/svg">
  <defs>
    <filter x="1593px" y="477px" width="68px" height="68px" filterUnits="userSpaceOnUse" id="filter237">
      <feOffset dx="1" dy="1" in="SourceAlpha" result="shadowOffsetInner" />
      <feGaussianBlur stdDeviation="2.5" in="shadowOffsetInner" result="shadowGaussian" />
      <feComposite in2="shadowGaussian" operator="atop" in="SourceAlpha" result="shadowComposite" />
      <feColorMatrix type="matrix" values="0 0 0 0 0  0 0 0 0 0  0 0 0 0 0  0 0 0 0.349019607843137 0  " in="shadowComposite" />
    </filter>
    <g id="widget238">
      <path d="M 1626 483  C 1641.12 483  1653 494.88  1653 510  C 1653 525.12  1641.12 537  1626 537  C 1610.88 537  1599 525.12  1599 510  C 1599 494.88  1610.88 483  1626 483  Z " fill-rule="nonzero" fill="#ffffff" stroke="none" />
      <path d="M 1626 482.5  C 1641.4 482.5  1653.5 494.6  1653.5 510  C 1653.5 525.4  1641.4 537.5  1626 537.5  C 1610.6 537.5  1598.5 525.4  1598.5 510  C 1598.5 494.6  1610.6 482.5  1626 482.5  Z " stroke-width="3" stroke="#2d326f" fill="none" />
    </g>
  </defs>
  <g transform="matrix(1 0 0 1 -1593 -477 )">
    <use xlink:href="#widget238" filter="url(#filter237)" />
    <use xlink:href="#widget238" />
  </g>
</svg>