<?xml version="1.0" encoding="utf-8"?>
<svg version="1.1" xmlns:xlink="http://www.w3.org/1999/xlink" width="37px" height="23px" xmlns="http://www.w3.org/2000/svg">
  <g transform="matrix(1 0 0 1 -1607 -498 )">
    <path d="M 29.2252597864769 4.93354020727976  L 29.2265765124555 4.93354020727977  C 32.6422734282325 9.30146091652619  36.7652058125741 15.8533419803958  36.7652058125741 15.8533419803958  C 37.0758434163701 16.3386467191109  36.8960664294187 16.760962446151  36.4347295373666 16.9352617219205  L 19.8663884934757 22.8958918648935  C 17.6271423487545 22.7216148467254  0.670213523131673 19.1017943747269  0.670213523131673 19.1017943747269  C 0.349570656379551 19.1009696756067  0.0900686637426816 18.8371080417132  0.0900686637426816 18.5119030643062  C 0.0900686637426816 18.3938177574207  0.125011994272181 18.2784502641775  0.190376631079478 18.1807303177874  L 11.2887746144721 1.62474745582818  C 13.2966939501779 -1.37030214771805  17.2755326215896 0.844484984703753  18.6224994068802 1.65156786539302  C 19.9708268090154 2.45595757632515  22.4334774614472 2.53775426109758  23.3627568208778 2.22403337079353  C 26.6475931198102 1.11262230754823  27.6323944246738 2.89839417493913  29.2252597864769 4.93354020727976  Z M 16.4572971530249 18.8430275020291  L 16.4572971530249 18.8443852157083  C 17.1763831553974 18.9864777423987  17.5491482799526 18.5386993194731  17.2927158956109 17.8536103515015  L 12.8604845788849 6.00206087282263  C 12.6027135231317 5.31296553661734  12.0726435349941 5.2619956296435  11.67740628707 5.88676649809578  L 5.63912040332147 15.4283330835987  C 5.24254448398576 16.0544394081289  5.50692111506524 16.6764948492227  6.22337366548043 16.8186096335144  L 16.4572971530249 18.8430275020291  Z M 22.8247645314353 7.976888805644  C 25.5610088967972 7.976888805644  27.5213505338078 5.80766298308048  27.5213505338078 5.80766298308048  C 27.5213505338078 5.80766298308048  25.898090747331 6.89361135044016  22.8247425860024 6.89361135044016  C 19.7527111506524 6.89361135044016  16.1929205219454 5.80766298308048  16.1929205219454 5.80766298308048  C 16.1929205219454 5.80766298308048  20.0897930011862 7.976888805644  22.8247425860024 7.976888805644  Z " fill-rule="nonzero" fill="#01683c" stroke="none" transform="matrix(1 0 0 1 1607 498 )" />
  </g>
</svg>