<?xml version="1.0" encoding="utf-8"?>
<svg version="1.1" xmlns:xlink="http://www.w3.org/1999/xlink" width="17px" height="10px" xmlns="http://www.w3.org/2000/svg">
  <g transform="matrix(1 0 0 1 -1729 -791 )">
    <path d="M 13.4284270462633 2.14501748142599  C 14.9978013048636 4.04411344196791  16.8921215895611 6.8927573827808  16.8921215895611 6.8927573827808  C 17.034846975089 7.10375944309171  16.952246737841 7.28737497658738  16.74028113879 7.3631572704002  L 9.12780011862396 9.95473559343198  C 8.09895729537367 9.87896297683711  0.307935943060498 8.30512798901168  0.307935943060498 8.30512798901167  C 0.160613544823037 8.30476942417685  0.0413828995574483 8.19004697465791  0.0413828995574483 8.04865350622011  C 0.0413828995574483 7.99731206844379  0.0574379433142454 7.94715228877281  0.0874703440094899 7.90466535555972  L 5.18673428232503 0.706411937316601  C 6.10929181494662 -0.595783542486108  7.9374068801898 0.367167384653805  8.55628351126928 0.718072984953487  C 9.17578529062871 1.0678076418805  10.3072734282325 1.10337141786851  10.7342396204033 0.966971030779796  C 12.2434887307236 0.483748829368795  12.6959650059312 1.26017138040832  13.4278220640569 2.14501748142598  Z M 7.56146085409253 8.19321096335144  C 7.89185172004745 8.25499032278204  8.0631221826809 8.06030405194481  7.94530189798339 7.76243928326153  L 5.90887129300119 2.60959168383592  C 5.7904359430605 2.30998501592058  5.54689027283511 2.28782418680152  5.36529478054567 2.55946369482425  L 2.59094721233689 6.70797090591247  C 2.40873665480427 6.98019104701255  2.53020699881376 7.25064993444465  2.85938790035587 7.31243897109321  L 7.56146085409253 8.19262065305613  Z M 10.4870539739027 3.46821252419304  C 11.7442473309609 3.46821252419304  12.6449448398577 2.5250708622089  12.6449448398577 2.5250708622089  C 12.6449448398577 2.5250708622089  11.8991227758007 2.99722232627833  10.487043890866 2.99722232627833  C 9.0755699881376 2.99722232627833  7.43999051008304 2.5250708622089  7.43999051008304 2.5250708622089  C 7.43999051008304 2.5250708622089  9.23044543297746 3.46821252419304  10.487043890866 3.46821252419304  Z " fill-rule="nonzero" fill="#01683c" stroke="none" transform="matrix(1 0 0 1 1729 791 )" />
  </g>
</svg>