<?xml version="1.0" encoding="utf-8"?>
<svg version="1.1" xmlns:xlink="http://www.w3.org/1999/xlink" width="18px" height="18px" xmlns="http://www.w3.org/2000/svg">
  <g transform="matrix(1 0 0 1 -1554 -646 )">
    <path d="M 17.7259609375 9.1016953125  L 17.7259609375 9.081890625  C 17.71555078125 4.24827734375  13.79396875 0.335328125  8.9601015625 0.335835937500001  C 4.119125 0.336089843750001  0.19500390625 4.26071875  0.1952578125 9.1016953125  C 0.19551171875 13.942671875  4.120140625 17.86679296875  8.9611171875 17.8665390625  C 13.8015859375 17.86628515625  17.72570703125 13.94241796875  17.7259609375 9.1016953125  Z M 16.35969140625 9.1453671875  C 16.34928125 13.264234375  13.01117578125 16.60030859375  8.89180078125 16.6081796875  C 4.7625234375 16.61909765625  1.406390625 13.28073828125  1.39521875 9.1514609375  L 1.39521875 9.1067734375  C 1.4058828125 4.97444921875  4.76430078125 1.63304296875  8.896625 1.64370703125  C 13.02894921875 1.65437109375  16.37035546875 5.0127890625  16.35969140625 9.1453671875  Z " fill-rule="nonzero" fill="#7d7d7d" stroke="none" transform="matrix(1 0 0 1 1554 646 )" />
  </g>
</svg>