<?xml version="1.0" encoding="utf-8"?>
<svg version="1.1" xmlns:xlink="http://www.w3.org/1999/xlink" width="17px" height="17px" xmlns="http://www.w3.org/2000/svg">
  <g transform="matrix(1 0 0 1 -1557 -651 )">
    <path d="M 3.67113671875 0.689703124999997  C 3.49289453125 0.485562499999997  3.2047109375 0.417261718749996  2.95359765625 0.519078125000001  C 1.24683984375 1.55323828125  0.20480859375 3.40421484375  0.20582421875 5.39991796875  C 0.2050625 5.7449765625  0.48410546875 6.0252890625  0.8291640625 6.02605078125  C 1.17422265625 6.0268125  1.45453515625 5.74776953125  1.455296875 5.4027109375  L 1.455296875 5.39991796875  C 1.4497109375 3.8345859375  2.26475 2.38046484375  3.6028359375 1.56847265625  C 3.8638515625 1.3463046875  3.89584375 0.954781249999997  3.67418359375 0.693257812499997  L 3.67113671875 0.689703124999997  Z M 16.5297109375 15.607203125  C 16.5266640625 15.5955234375  16.517015625 15.59069921875  16.5119375 15.58562109375  L 13.64711328125 12.720796875  C 13.4026015625 12.47628515625  13.00625390625 12.47628515625  12.7617421875 12.720796875  C 12.51723046875 12.96530859375  12.51723046875 13.36165625  12.7617421875 13.60616796875  L 15.62656640625 16.4709921875  C 15.864984375 16.720328125  16.2605703125 16.72921484375  16.50990625 16.490796875  C 16.7592421875 16.25237890625  16.76812890625 15.85679296875  16.5297109375 15.607203125  Z " fill-rule="nonzero" fill="#7d7d7d" stroke="none" transform="matrix(1 0 0 1 1557 651 )" />
  </g>
</svg>