<?xml version="1.0" encoding="utf-8"?>
<svg version="1.1" xmlns:xlink="http://www.w3.org/1999/xlink" width="14px" height="14px" xmlns="http://www.w3.org/2000/svg">
  <g transform="matrix(1 0 0 1 -2214 -430 )">
    <path d="M 13.111328125 6.9958984375  C 13.111328125 3.61484375  10.3701171875 0.8736328125  6.9890625 0.8736328125  C 3.6080078125 0.8736328125  0.866796875 3.61484375  0.866796875 6.9958984375  C 0.866796875 10.376953125  3.6080078125 13.1181640625  6.9890625 13.1181640625  C 10.3701171875 13.1181640625  13.111328125 10.376953125  13.111328125 6.9958984375  Z M 10.6640625 3.748828125  L 10.6640625 6.833203125  C 10.6640625 7.0478515625  10.4890625 7.2228515625  10.2744140625 7.2228515625  C 10.059765625 7.2228515625  9.884765625 7.0478515625  9.884765625 6.833203125  L 9.884765625 4.694921875  L 8.468359375 6.1236328125  C 8.8060546875 6.5830078125  9.009765625 7.14765625  9.01796875 7.757421875  C 9.0275390625 8.51484375  8.741796875 9.23125  8.2126953125 9.7740234375  C 7.6849609375 10.316796875  6.975390625 10.6216796875  6.21796875 10.63125  L 6.1796875 10.63125  C 4.6361328125 10.63125  3.36328125 9.3748046875  3.3427734375 7.83125  C 3.322265625 6.2658203125  4.5787109375 4.9765625  6.144140625 4.9587890625  L 6.182421875 4.9587890625  C 6.838671875 4.9587890625  7.4443359375 5.1857421875  7.926953125 5.564453125  L 9.33515625 4.1453125  L 7.1927734375 4.153515625  L 7.19140625 4.153515625  C 6.9767578125 4.1548828125  6.8017578125 3.9798828125  6.8017578125 3.765234375  C 6.800390625 3.5505859375  6.975390625 3.3755859375  7.1900390625 3.3755859375  L 10.273046875 3.3646484375  L 10.2744140625 3.3646484375  C 10.2880859375 3.3646484375  10.300390625 3.3646484375  10.3140625 3.366015625  C 10.31953125 3.3673828125  10.325 3.3673828125  10.33046875 3.36875  C 10.3359375 3.3701171875  10.34140625 3.3701171875  10.3455078125 3.371484375  L 10.3537109375 3.371484375  C 10.360546875 3.3728515625  10.366015625 3.3755859375  10.3728515625 3.376953125  C 10.3783203125 3.3783203125  10.38515625 3.3796875  10.390625 3.3810546875  C 10.39609375 3.3837890625  10.4015625 3.3865234375  10.40703125 3.387890625  L 10.4166015625 3.390625  C 10.41796875 3.390625  10.420703125 3.390625  10.4220703125 3.3919921875  C 10.4234375 3.3919921875  10.4248046875 3.393359375  10.426171875 3.393359375  C 10.431640625 3.3947265625  10.4357421875 3.3974609375  10.4412109375 3.4001953125  C 10.448046875 3.404296875  10.4548828125 3.40703125  10.4603515625 3.409765625  C 10.464453125 3.4125  10.469921875 3.415234375  10.4740234375 3.41796875  C 10.478125 3.420703125  10.4822265625 3.4220703125  10.4849609375 3.4248046875  L 10.4890625 3.4275390625  C 10.4904296875 3.4275390625  10.4904296875 3.42890625  10.491796875 3.42890625  C 10.497265625 3.431640625  10.5013671875 3.4357421875  10.50546875 3.4384765625  L 10.521875 3.45078125  C 10.5259765625 3.4548828125  10.5287109375 3.458984375  10.5328125 3.46171875  C 10.53828125 3.4658203125  10.54375 3.4712890625  10.5478515625 3.475390625  C 10.551953125 3.4794921875  10.5546875 3.4822265625  10.557421875 3.486328125  C 10.562890625 3.491796875  10.568359375 3.4986328125  10.573828125 3.5041015625  C 10.5765625 3.508203125  10.579296875 3.5109375  10.58203125 3.5150390625  C 10.5875 3.521875  10.59296875 3.52734375  10.5970703125 3.5341796875  L 10.5984375 3.535546875  C 10.5998046875 3.5369140625  10.5998046875 3.53828125  10.601171875 3.5396484375  C 10.6025390625 3.541015625  10.60390625 3.54375  10.6052734375 3.5451171875  L 10.617578125 3.565625  C 10.6189453125 3.5697265625  10.6216796875 3.573828125  10.623046875 3.5779296875  C 10.6271484375 3.584765625  10.63125 3.59296875  10.633984375 3.5998046875  L 10.6353515625 3.6025390625  L 10.63671875 3.606640625  L 10.639453125 3.6134765625  C 10.6421875 3.6203125  10.644921875 3.628515625  10.64765625 3.6353515625  L 10.6517578125 3.6517578125  C 10.653125 3.65859375  10.655859375 3.6654296875  10.6572265625 3.672265625  L 10.6572265625 3.677734375  C 10.6572265625 3.6818359375  10.65859375 3.6859375  10.65859375 3.6900390625  C 10.65859375 3.696875  10.6599609375 3.7037109375  10.661328125 3.710546875  C 10.6626953125 3.716015625  10.6626953125 3.7228515625  10.6626953125 3.7283203125  C 10.6626953125 3.73515625  10.6640625 3.7419921875  10.6640625 3.748828125  Z " fill-rule="nonzero" fill="#00a0e9" stroke="none" transform="matrix(1 0 0 1 2214 430 )" />
  </g>
</svg>