<?xml version="1.0" encoding="utf-8"?>
<svg version="1.1" xmlns:xlink="http://www.w3.org/1999/xlink" width="25px" height="27px" xmlns="http://www.w3.org/2000/svg">
  <g transform="matrix(1 0 0 1 -2053 -564 )">
    <path d="M 5.36417643229167 6.81064453125  C 5.36417643229167 3.1166015625  8.41898600260417 0.1212890625  12.1879069010417 0.1212890625  C 15.9568277994792 0.1212890625  19.0116373697917 3.1166015625  19.0116373697917 6.81064453125  C 19.0116373697917 10.5046875  15.9541829427083 13.5  12.1879069010417 13.5  C 8.421630859375 13.5  5.36417643229167 10.5046875  5.36417643229167 6.81064453125  Z M 5.36417643229167 6.81064453125  C 5.36417643229167 3.1166015625  8.41898600260417 0.1212890625  12.1879069010417 0.1212890625  C 15.9568277994792 0.1212890625  19.0116373697917 3.1166015625  19.0116373697917 6.81064453125  C 19.0116373697917 10.5046875  15.9541829427083 13.5  12.1879069010417 13.5  C 8.421630859375 13.5  5.36417643229167 10.5046875  5.36417643229167 6.81064453125  Z M 0.81502278645833 24.37119140625  C 0.81502278645833 19.59873046875  4.76114908854166 15.7306640625  9.627685546875 15.7306640625  L 15.3141276041667 15.7306640625  C 20.1806640625 15.7306640625  24.1267903645833 19.59873046875  24.1267903645833 24.37119140625  L 24.1267903645833 24.9275390625  C 24.1267903645833 26.80751953125  20.1806640625 26.8787109375  15.3141276041667 26.8787109375  L 9.627685546875 26.8787109375  C 4.76114908854166 26.8787109375  0.81502278645833 26.87607421875  0.81502278645833 24.9275390625  L 0.81502278645833 24.37119140625  Z " fill-rule="nonzero" fill="#6e6e6e" stroke="none" transform="matrix(1 0 0 1 2053 564 )" />
  </g>
</svg>