<?xml version="1.0" encoding="utf-8"?>
<svg version="1.1" xmlns:xlink="http://www.w3.org/1999/xlink" width="16px" height="17px" xmlns="http://www.w3.org/2000/svg">
  <g transform="matrix(1 0 0 1 -1996 -2056 )">
    <path d="M 3.43307291666667 4.28818359375  C 3.43307291666667 1.9623046875  5.38815104166667 0.0763671875  7.80026041666667 0.0763671875  C 10.2123697916667 0.0763671875  12.1674479166667 1.9623046875  12.1674479166667 4.28818359375  C 12.1674479166667 6.6140625  10.2106770833333 8.5  7.80026041666667 8.5  C 5.38984375 8.5  3.43307291666667 6.6140625  3.43307291666667 4.28818359375  Z M 3.43307291666667 4.28818359375  C 3.43307291666667 1.9623046875  5.38815104166667 0.0763671875  7.80026041666667 0.0763671875  C 10.2123697916667 0.0763671875  12.1674479166667 1.9623046875  12.1674479166667 4.28818359375  C 12.1674479166667 6.6140625  10.2106770833333 8.5  7.80026041666667 8.5  C 5.38984375 8.5  3.43307291666667 6.6140625  3.43307291666667 4.28818359375  Z M 0.521614583333331 15.34482421875  C 0.521614583333331 12.33994140625  3.04713541666666 9.9044921875  6.16171875 9.9044921875  L 9.80104166666667 9.9044921875  C 12.915625 9.9044921875  15.4411458333333 12.33994140625  15.4411458333333 15.34482421875  L 15.4411458333333 15.6951171875  C 15.4411458333333 16.87880859375  12.915625 16.9236328125  9.80104166666666 16.9236328125  L 6.16171875 16.9236328125  C 3.04713541666666 16.9236328125  0.521614583333331 16.92197265625  0.521614583333331 15.6951171875  L 0.521614583333331 15.34482421875  Z " fill-rule="nonzero" fill="#6e6e6e" stroke="none" transform="matrix(1 0 0 1 1996 2056 )" />
  </g>
</svg>