<?xml version="1.0" encoding="utf-8"?>
<svg version="1.1" xmlns:xlink="http://www.w3.org/1999/xlink" width="17px" height="17px" xmlns="http://www.w3.org/2000/svg">
  <g transform="matrix(1 0 0 1 -2179 -2149 )">
    <path d="M 16.7167075664062 2.46249242382812  C 16.7166885849609 1.62743858300781  16.0187787666016 0.944319745117187  15.1675858730469 1  L 1.74131389550781 1  C 0.889437465820313 0.944319745117187  0.191527647460937 1.62743858300781  0.191527647460937 2.46249242382813  L 0.191527647460937 12.3071277646484  C 0.191527647460937 13.1421816054687  0.889437465820313 13.5725058330078  1.74131389550781 13.5725058330078  L 7.93774370605469 13.5725058330078  C 8.78962013574219 13.5725058330078  9.97969526660156 14.1951127138672  10.5821188222656 14.7854414707031  L 11.4897984189453 15.7321016269531  C 11.7237767763672 15.9607066396484  11.9416160810547 16.0992177158203  12.1191267353516 16.099217734375  C 12.4001741787109 16.099217734375  12.5857353779297 15.7267282822266  12.5857353779297 15.2157467167969  C 12.5857353779297 14.3806928759766  13.2823161054688 13.5725058330078  14.1348570712891 13.5725058330078  L 15.1676048730469 13.5725058330078  C 16.0187977666016 13.5725058330078  16.7167075849609 13.1422005869141  16.7167075664062 12.3071277646484  L 16.7167075664062 2.46249242382812  Z M 15.8130342607422 2.36030370703125  L 15.8130342607422 12.3810826298828  C 15.8130342607422 12.6594339101562  15.5716509130859 12.6634591826172  15.2872617333984 12.6634591826172  L 14.2356976972656 12.6634591826172  C 13.0758880449219 12.6634591826172  12.0881777207031 13.5200444208984  11.7412639199219 14.5447226777344  L 11.3634011230469 14.1157465224609  C 10.5525368798828 13.3210403320313  9.0760409609375 12.6634591640625  7.929009625 12.6634591826172  L 1.62095449902344 12.6634591826172  C 1.33654631933594 12.6634591826172  1.09584652636719 12.6594339101563  1 12.3810826298828  L 1 2.36030370703125  C 1.0958465078125 2.0806043359375  1.33654631933594 1.84527788769531  1.62095449902344 2  L 15.2872617333984 2  C 15.5723534492188 1.84527790625  15.8130342607422 2.08060435449219  15.8130342607422 2.36030370703125  Z M 3.576153859375 5.01206481347656  C 3.57617284082031 5.29176418457031  3.80745503515625 5.51902108789063  4.09252776953125 5.51902110644531  L 9.25622877832031 5.51902110644531  C 9.54132049414063 5.51902110644531  9.77258368847656 5.29176418457031  9.77258368847656 5.01206481347656  C 9.77258368847656 4.73369455175781  9.54130149414063 4.50645661132813  9.05585763574219 4.50645662988281  L 3.89217560839844 4.50645662988281  C 3.80745505371094 4.50645662988281  3.57615387792969 4.73371355175781  3.576153859375 5.01206481347656  Z M 13.3602772246094 7.54282096875  C 13.3602772246094 7.26445070703125  13.1289950302734 7.03721276660156  12.8439223144531 7.03721276660156  L 4.06497745410156 7.03721276660156  C 3.77922120214844 7.03721276660156  3.5486035625 7.26446968847656  3.54860354394531 7.54282096875  C 3.54860354394531 7.82252033984375  3.77922118359375 8.04977724316406  4.06497745410156 8.04977724316406  L 12.8439223144531 8.04977724316406  C 13.1289950302734 8.04977724316406  13.3602772246094 7.82252032128906  13.3602772246094 7.54282096875  Z M 13.3602772246094 9.567949921875  C 13.3602772246094 9.28825055078125  13.1289950302734 9.06232273828125  12.8439223144531 9.06232273828125  L 4.06497745410156 9.06232273828125  C 3.77922120214844 9.06232273828125  3.5486035625 9.28823156933594  3.54860354394531 9.567949921875  C 3.54860354394531 9.84763029296875  3.77922118359375 10.0735581240234  4.06497745410156 10.0735581240234  L 12.8439223144531 10.0735581240234  C 13.1289950302734 10.0735581240234  13.3602772246094 9.84764929296875  13.3602772246094 9.567949921875  Z " fill-rule="nonzero" fill="#ffffff" stroke="none" transform="matrix(1 0 0 1 2179 2149 )" />
  </g>
</svg>