<?xml version="1.0" encoding="utf-8"?>
<svg version="1.1" xmlns:xlink="http://www.w3.org/1999/xlink" width="16px" height="16px" xmlns="http://www.w3.org/2000/svg">
  <g transform="matrix(1 0 0 1 -2297 -2149 )">
    <path d="M 14.1499971875 5.402006015625  L 14.15 5.40048437515625  C 13.565 5.24749609390625  12.1895 5.25048437515625  10.1765 5.196490625  C 10.27250578125 4.75699375  10.29351171875 4.361003125  10.29351171875 3.658990625  C 10.295 1.979  9.071 0.5  7.987984375 0.50000000015625  C 7.2229984375 0.50000000015625  6.5929984375 1.12548906265625  6.583990625 1.89350625  C 6.57350234375 2.835503125  6.28399062515625 4.462990625  4.711990625 5.289490625  C 4.59648765625 5.349490625  4.267996875 5.5114875  4.21999375 5.5339875  L 4.2439878125 5.5549934375  C 3.98527635312361 5.32465413977015  3.65418151762928 5.1920026366524  3.3079971875 5.1799934375  L 1.904 5.1799934375  C 1.12893306921507 5.18082189973833  0.500824839471341 5.80893306535119  0.5 6.584  L 0.50000000015625 14.075  C 0.50000000015625 14.84899375  1.13000000015625 15.47899375  1.90399375 15.47899375  L 3.308003125 15.47899375  C 3.8460309923281 15.474557966847  4.33298944445125 15.1594700693234  4.5575 14.670503125  L 4.5785059375 14.676508984375  L 4.6910059375 14.706494296875  C 4.69850593734375 14.706494296875  4.703003 14.7080030859375  4.7119971875 14.711006015625  C 4.98199718734375 14.778506015625  5.5010065625 14.901493515625  6.6094971875 15.156493515625  C 6.84949718734375 15.210502265625  8.1034909375 15.478993515625  9.4054971875 15.478993515625  L 11.9644971875 15.478993515625  C 12.7444971875 15.478993515625  13.3219971875 15.188002890625  13.6399971875 14.576006015625  C 13.9520096875 14.032988828125  15.4789971875 11.118506015625  15.4774971876563 7.010006015625  C 15.4774971876563 6.41899976578125  15.0680003126563 5.664502890625  14.1499971875 5.402006015625  Z M 3.77600000015625 14.075  C 3.77600000015625 14.333003125  3.56600000015625 14.543003125  3.3079828125 14.543003125  L 1.904015625 14.543003125  C 1.64555012795429 14.5429953586607  1.43602656238332 14.3334654971624  1.4360265625 14.075  L 1.4360265625 6.584  C 1.4360265625 6.32601249984375  1.64602656234375 6.1160109375  1.904015625 6.1160109375  L 3.308025 6.1160109375  C 3.567521875 6.1160109375  3.776028125 6.3260109375  3.776028125 6.584  L 3.776028125 14.075  Z M 14.531 7.304  C 14.336 12.0065000001563  12.815 14.135  12.8150000001562 14.135  C 12.6725000001562 14.3899999998438  12.4460062501563 14.543003125  11.963003125 14.543003125  L 9.4055 14.543003125  C 8.119996875 14.543003125  6.845 14.251996875  6.812 14.243003125  C 4.868 13.79600625  4.766015625 13.7615093748437  4.6445 13.726996875  L 4.71200000015625 6.849496875  C 4.71200000015625 6.13850625  4.72700000015625 6.31849062515625  4.712 6.3275  C 6.85099999984375 5.4425  7.502 3.5  7.52 1.9055  C 7.52082167433636 1.64737185180994  7.72987185180994 1.43832167433636  7.988 1.4375  C 8.483 1.4375  9.35749687515625 2.430503125  9.357496875 3.6605  C 9.357496875 4.77050000015625  9.312496875 4.96098750015625  8.923990625 6.1175  C 13.603990625 6.1175  13.572490625 6.18499999984375  13.984990625 6.2929875  C 14.497978125 6.43999921875  14.539990625 6.8630015625  14.539990625 7.0099984375  C 14.539990625 7.1705015625  14.5369876875 7.14798671875  14.530996484375 7.3039921875  Z " fill-rule="nonzero" fill="#ffffff" stroke="none" transform="matrix(1 0 0 1 2297 2149 )" />
  </g>
</svg>