<?xml version="1.0" encoding="utf-8"?>
<svg version="1.1" xmlns:xlink="http://www.w3.org/1999/xlink" width="130px" height="82px" xmlns="http://www.w3.org/2000/svg">
  <g transform="matrix(1 0 0 1 -2225 -4450 )">
    <path d="M 122.154911469613 27.1956760908533  C 127.184455857581 27.2578300306937  129.054611840393 26.0141362209945  129.054611840393 23.9624415076734  C 129.054611840393 20.3556680368324  125.508453794966 17.9932037028852  123.187220311848 17.993203781461  L 114.99797997299 17.993203781461  C 113.962594180479 17.993203781461  113.19582404911 18.4381273812155  112.664438767342 19.0793588999386  C 105.967507840393 10.3498102099448  100.647193890731 2.5107240466544  95.6361110472683 1.64026150030694  C 90.6247205794966 0.769798953959487  77.9803980454266 0.769798953959487  63.9305354057704 0.769798953959487  C 47.6831317569061 0.769798953959487  41.8523556144874 1.39133811663597  36.9006575420503 1.64026150030694  C 31.9486517667281 1.8888771810927  23.8307960613874 10.4553487636587  17.1670958674033 18.8412047243708  C 16.6492491197053 18.3335118575813  15.9547867305095 17.9932037028852  15.0557088373235 17.993203781461  L 6.8664684198895 17.993203781461  C 4.54523493677102 17.993203781461  0.999076891344383 20.3556681154082  0.999076891344383 23.9624415076734  C 0.999076891344383 26.0141362209945  2.86923295273174 27.2578299521179  7.89877734069982 27.1956760908533  C 8.93539394475138 27.1827529625537  9.79231803560467 27.1695222099448  10.5553958109269 27.1427530018416  C 6.16215985267035 32.6510671282996  2.85569449723757 36.9904568888889  3 38.9473821780233  L 3 78.7415827722529  L 5.94831349785144 81  L 21.9409476439533 81  L 24.5206429858809 80.2335844812768  L 24.5206429858809 73  L 108.085664176796 73  L 108.085664176796 79.2391218367096  L 109.568742816452 81  L 124.560145011664 81  L 126 78.7415827722529  L 126 38.9473821780233  C 126.8149168717 37.5313804886433  123.315528171885 32.8959904530387  118.849984471455 27.1135221706569  C 119.749062443217 27.1624452793125  120.814602175568 27.1790606850829  122.154911469613 27.1956760908533  Z M 25.3720285819521 25  C 24.0126423376304 24.5218268090853  23.2575645230203 23.1082866642112  23.9535654266421 21.9818238035605  C 26.22710653407 18.3039733235114  33.6052690976059 9.05688558870473  38.0098895911602 8.10673058809085  C 41.4689705488029 7.36057584284838  53.7794465316145 6.98765236095765  65.6714604984653 6.98765236095765  C 78.0400903621854 6.98765236095765  90.344104820135 7.36057584284838  93.977647577655 8.10673058809085  C 98.5001144260282 9.03534709392265  103.911505365255 17.927357485574  106.099815680786 22.1405932277471  C 106.66935478453 23.2353637127072  105.43550723143 24.5218268090853  104.165351837937 25  L 25.3720285819521 25  Z M 39.1326601743401 42.4649247980356  C 40.7717389907919 45.5153899177409  25.3237208790669 44.6738504996931  20.0277146715776 44.3584654929405  C 14.7307853554328 44.0427727833026  13.9744768078576 41.67600084469  15.1095550349908 39.1513824333947  C 16.6424798919583 35.740301475752  20.1184839582566 36.1606097090239  25.3864901461019 37.5209189834254  C 33.3311148631062 39.5719982909761  38.1231204812768 40.6766150325353  39.1326601743401 42.4649247980356  Z M 94.0967246654389 60.3741765696746  C 94.0967246654389 62.169255562922  92.5816459472069 63.2991030767342  88.512102737876 63  L 40.436046300798 63  C 37.3092733799877 63.2991030767342  35.7052715138121 62.4286405303867  35.5812713370166 60.8077155555555  C 35.3092710227133 57.2329421632903  41.9043556734193 51.4913969502762  46.5815919656231 51  L 85.2084065512584 51  C 89.0877957421731 51.4913969502762  94.0967246654389 57.1243266593002  94.0967246654389 60.3741765696746  Z M 116.749366649478 39.1513824333947  C 117.884137173726 41.6760007661142  117.127213220381 44.0427727833026  111.830899310006 44.3584654929405  C 106.534893102517 44.6738504996931  91.0871826151013 45.5153899177409  92.7262615101289 42.4649247980356  C 93.7348780945365 40.6766150325353  98.5268837127072 39.5719982909761  106.471508429711 37.5209189834254  C 111.739514617557 36.1606097090239  115.215518683855 35.740301475752  116.749366649478 39.1513824333947  Z " fill-rule="nonzero" fill="#797979" stroke="none" transform="matrix(1 0 0 1 2225 4450 )" />
  </g>
</svg>