<?xml version="1.0" encoding="utf-8"?>
<svg version="1.1" xmlns:xlink="http://www.w3.org/1999/xlink" width="24px" height="22px" xmlns="http://www.w3.org/2000/svg">
  <g transform="matrix(1 0 0 1 -2096 -4483 )">
    <path d="M 20.96228125 6.753138671875  C 20.96070703125 6.4287734375  20.830935546875 6.107455078125  20.60544140625 5.8772890625  C 20.379896484375 5.648697265625  20.063275390625 5.514279296875  19.745029296875 5.514279296875  C 19.42680859375 5.514279296875  19.11013671875 5.6471484375  18.884642578125 5.8772890625  C 18.659123046875 6.107455078125  18.527828125 6.428748046875  18.527828125 6.753138671875  L 20.96228125 6.753138671875  Z M 7.16658984375 12.12556640625  C 7.166615234375 14.85815625  9.34926953125 17.0824765625  12.0354453125 17.0824765625  C 14.7201484375 17.0824765625  16.9043515625 14.8596796875  16.9043515625 12.12556640625  C 16.9043515625 9.391453125  14.720123046875 7.168681640625  12.0354453125 7.168681640625  C 9.350818359375 7.168681640625  7.16658984375 9.391453125  7.16658984375 12.12556640625  Z M 8.79006640625 12.12556640625  C 8.78854296875 10.30130078125  10.245177734375 8.819935546875  12.0354453125 8.819935546875  C 13.825763671875 8.819935546875  15.280875 10.30282421875  15.280875 12.12556640625  C 15.280875 13.94830859375  13.82421484375 15.43122265625  12.0354453125 15.43122265625  C 10.245177734375 15.43122265625  8.79006640625 13.94830859375  8.79006640625 12.12556640625  Z M 23 5.514279296875  C 23.39668359375 4.14722265625  22.303033203125 3.0350625  20.96070703125 3.0350625  L 12.0354453125 3.0350625  C 11.58750390625 3.0350625  11.224494140625 3.405791015625  11.224494140625 3.8614765625  C 11.224494140625 4.317162109375  11.58750390625 4.687890625  12.0354453125 4.687890625  L 20.962255859375 4.687890625  C 21.410197265625 4.687890625  21.77320703125 5.05859375  21.77320703125 5.514279296875  L 21.77320703125 18.73378125  C 21.77320703125 19.18944140625  21.410197265625 19.560169921875  20.962255859375 19.560169921875  L 3.1087109375 19.560169921875  C 2.66229296875 19.560169921875  2.297734375 19.18944140625  2.297734375 18.73378125  L 2.297734375 5.514279296875  C 2.297734375 5.05859375  2.66229296875 4.687890625  3.1087109375 4.687890625  L 5.5431640625 4.687890625  C 5.99110546875 4.687890625  6.354115234375 4.317162109375  6.354115234375 3.8614765625  C 6.354115234375 3.405791015625  5.99110546875 3.0350625  5.5431640625 3.0350625  L 3.1087109375 3.0350625  C 1.766359375 3.0350625  0.6742578125 4.14722265625  1 5.514279296875  L 1 18.73378125  C 0.6742578125 20.1008125  1.766359375 21.212998046875  3.1087109375 21  L 20.96070703125 21  C 22.30305859375 21.212998046875  23.39516015625 20.1008125  23 18.73378125  L 23 5.514279296875  Z M 5.78564453125 1.899720703125  C 5.787193359375 2.213294921875  6.040541015625 2.468166015625  6.354115234375 2.468166015625  L 10.898580078125 2.468166015625  C 11.212154296875 2.468166015625  11.467025390625 2.213294921875  11.467025390625 1.899720703125  L 11.467025390625 1.331275390625  C 11.467025390625 1.017701171875  11.212154296875 0.762830078125001  10.898580078125 0.762830078125001  L 6.354115234375 0.762830078125001  C 6.040541015625 0.762830078125001  5.78564453125 1.017701171875  5.78564453125 1.331275390625  L 5.78564453125 1.899720703125  Z " fill-rule="nonzero" fill="#8a8a8a" stroke="none" transform="matrix(1 0 0 1 2096 4483 )" />
  </g>
</svg>