<?xml version="1.0" encoding="utf-8"?>
<svg version="1.1" xmlns:xlink="http://www.w3.org/1999/xlink" width="21px" height="18px" xmlns="http://www.w3.org/2000/svg">
  <g transform="matrix(1 0 0 1 -2306 -4710 )">
    <path d="M 8.0255 6.13828571428572  C 7.7245 6.94742857142857  6.825 7.46171428571429  5.9255 7.46171428571429  C 4.72408715035344 7.46108375023431  3.75031033830248 6.50717993434765  3.74966666666667 5.33028571428571  C 3.74966666666667 4.44914285714286  4.27466666666667 3.56685714285714  5.0995 3.2  C 5.9255 2.90628571428571  6.9755 3.05257142857143  7.57516666666667 3.71428571428571  C 8.17483333333333 4.376  8.4 5.33028571428571  8.0255 6.13828571428572  Z M 6.00016666666667 4.52228571428571  C 5.775 4.52228571428571  5.54983333333333 4.59542857142857  5.47516666666667 4.74285714285714  C 5.32493759706863 4.90250400192139  5.24416286803813 5.11323405528297  5.25 5.33028571428571  C 5.34127412819391 5.70775622780703  5.67906748226724 5.9787475650586  6.07483333333333 5.992  C 6.46016781588634 5.90258860911617  6.73680480599732 5.57168899696271  6.75033333333333 5.184  C 6.75033333333333 4.816  6.37466666666667 4.52228571428571  6.00016666666667 4.52228571428571  Z M 1.50033333333333 0.114285714285714  L 19.4996666666667 0.114285714285714  C 20.3272143125179 0.116795512242718  20.9974379145856 0.773341081615109  21 1.584  L 21 16.2777142857143  C 20.9967981500472 17.087926856157  20.3267609061496 17.7437794794408  19.4996666666667 17.7462857142857  L 1.50033333333333 17.7462857142857  C 0.673239093850414 17.7437794794408  0.00320184995283713 17.087926856157  0 16.2777142857143  L 0 1.584  C 0.00256208541444094 0.773341081615109  0.672785687482091 0.116795512242717  1.50033333333333 0.114285714285714  Z M 19.4985 15.5428571428571  L 19.4996666666667 15.5428571428571  L 19.4996666666667 2.31885714285714  C 19.4990242462387 1.91326770420028  19.1635392186289 1.58462930980699  18.7495 1.584  L 2.25166666666667 1.584  C 1.83762744803778 1.58462930980699  1.50214242042796 1.91326770420028  1.5015 2.31885714285714  L 1.5015 15.5428571428571  C 1.5015 15.9097142857143  1.80133333333333 16.2777142857143  2.25166666666667 16  L 18.7483333333333 16  C 19.1623725519622 16.2770849759073  19.497857579572 15.948446581514  19.4985 15.5428571428571  Z M 10.2001666666667 12.0171428571429  L 17.0998333333333 5.25714285714286  C 17.3996666666667 4.96342857142857  17.85 4.96342857142857  18.0751666666667 5.33028571428571  C 18.2186712333164 5.46442623295508  18.2998671557214 5.65026429288463  18.2998671557214 5.84457142857143  C 18.2998671557214 6.03887856425822  18.2186712333164 6.22471662418778  18.0751666666667 6.35885714285714  L 10.6505 13.6342857142857  C 10.5167175153693 13.7791717100105  10.3248494647071 13.8593647238382  10.1255 13.8537142857143  C 9.92615053529295 13.8593647238382  9.73428248463074 13.7791717100105  9.6005 13.6342857142857  L 6.9755 11.0628571428571  L 3.8255 14.1485714285714  C 3.68856488719169 14.2891473305956  3.4988552010136 14.3686861933597  3.3005 14.3686861933597  C 3.1021447989864 14.3686861933597  2.91243511280831 14.2891473305956  2.7755 14.1485714285714  C 2.63168739912785 14.0145968576475  2.55027472397469 13.8286968710566  2.55027472397469 13.6342857142857  C 2.55027472397469 13.4398745575149  2.63168739912785 13.2539745709239  2.7755 13.12  L 6.52516666666667 9.44571428571428  C 6.65873428404717 9.30040533153392  6.85063221831103 9.21978209058061  7.05016666666667 9.22514285714286  C 7.27533333333333 9.22514285714286  7.42466666666667 9.29942857142857  7.57516666666667 9.44571428571428  L 10.2001666666667 12.0171428571429  Z " fill-rule="nonzero" fill="#e0dfee" stroke="none" fill-opacity="0.223529411764706" transform="matrix(1 0 0 1 2306 4710 )" />
  </g>
</svg>