<?xml version="1.0" encoding="utf-8"?>
<svg version="1.1" xmlns:xlink="http://www.w3.org/1999/xlink" width="16px" height="16px" xmlns="http://www.w3.org/2000/svg">
  <g transform="matrix(1 0 0 1 -2339 -4694 )">
    <path d="M 14.85346484375 12.548427734375  C 15.48866796875 13.183701171875  15.48866796875 14.213568359375  14.85346484375 14.848771484375  C 14.21826171875 15.483974609375  13.18839453125 15.483974609375  12.55319140625 14.848771484375  L 10.636244140625 12.93189453125  C 10.58591796875 12.881515625  10.546419921875 12.824966796875  10.504056640625 12.7700703125  C 8.007048828125 14.2545078125  4.73345703125 13.929962890625  2.5851640625 11.78172265625  C 0.0443515624999991 9.240857421875  0.0443515624999991 5.1213359375  2.5851640625 2.580453125  C 5.126029296875 0.03960546875  9.24555078125 0.03960546875  11.786416015625 2.580453125  C 13.934638671875 4.728763671875  14.259166015625 8.002373046875  12.77478125 10.49936328125  C 12.829642578125 10.54169140625  12.8862265625 10.581154296875  12.936587890625 10.6315859375  L 14.853482421875 12.5484453125  Z M 12.087283203125 7.197224609375  C 12.087283203125 4.499158203125  9.900072265625 2.3119296875  7.202005859375 2.3119296875  C 4.50388671875 2.3119296875  2.31667578125 4.499158203125  2.31667578125 7.197224609375  C 2.31667578125 9.89537890625  4.50388671875 12.082607421875  7.202005859375 12.082607421875  C 9.900072265625 12.082607421875  12.087283203125 9.89537890625  12.087283203125 7.197224609375  Z M 9.916015625 7.197189453125  C 9.916015625 7.497072265625  9.6730859375 7.74001953125  9.373203125 7.74001953125  L 7.744765625 7.74001953125  L 7.744765625 9.368509765625  C 7.744765625 9.6683046875  7.50180078125 9.911322265625  7.202005859375 9.911322265625  C 6.9022109375 9.911322265625  6.659193359375 9.6683046875  6.659193359375 9.368509765625  L 6.659193359375 7.74001953125  L 5.030755859375 7.74001953125  C 4.7309609375 7.74001953125  4.487943359375 7.497072265625  4.487943359375 7.19720703125  C 4.487943359375 6.89746484375  4.7309609375 6.65439453125  5.030755859375 6.65439453125  L 6.659193359375 6.65439453125  L 6.659193359375 5.0259921875  C 6.659193359375 4.726197265625  6.9022109375 4.4831796875  7.202005859375 4.4831796875  C 7.50180078125 4.4831796875  7.744765625 4.726197265625  7.744765625 5.0259921875  L 7.744765625 6.654376953125  L 9.373203125 6.654376953125  C 9.67305078125 6.654376953125  9.916015625 6.89746484375  9.916015625 7.197189453125  Z " fill-rule="nonzero" fill="#ffffff" stroke="none" transform="matrix(1 0 0 1 2339 4694 )" />
  </g>
</svg>