<?xml version="1.0" encoding="utf-8"?>
<svg version="1.1" xmlns:xlink="http://www.w3.org/1999/xlink" width="30px" height="28px" xmlns="http://www.w3.org/2000/svg">
  <g transform="matrix(1 0 0 1 -81 -476 )">
    <path d="M 10.15155921875 8.79092375  C 10.15155925 11.342729625  12.3249336875 14.5671994375  15.00625175 14.5671994375  C 17.68686628125 14.5671994375  19.8604965625 11.342729625  19.8604965625 8.79092375  L 10.15155921875 8.79092375  Z M 5.2852905625 14.56723140625  C 7.965905125 14.5671994375  10.13950340625 11.342729625  10.13950340625 8.79095571875  L 0.4305660625 8.79095571875  C 0.4305660625 11.34276159375  2.6039405 14.56723140625  5.2852905625 14.56723140625  Z M 19.86049659375 8.79092375  C 19.86049659375 11.342729625  22.03380709375 14.5671994375  24.71518909375 14.5671994375  C 27.395803625 14.5671994375  29.5694019375 11.342729625  29.5694019375 8.79092375  L 19.86049659375 8.79092375  Z M 29.61909625 8  L 25.45967634375 2.46621990625  C 23.8079961875 0.83068878125  22.48310246875 0.71105790625  21.43523690625 1  L 8.571702375 1  C 6.8295555625 0.71105790625  5.96249540625 1.0601971875  4.54224234375 2.46621990625  L 0.38087178125 8  L 29.61909625 8  Z M 24.83283734375 16.905422125  L 24.83283734375 21  L 5.166842875 21  L 5.166842875 16.905422125  L 2.70873346875 16.905422125  L 2.70873346875 24.98097090625  C 2.70873346875 26.256074375  3.80904346875 27.288910125  5.166842875 27  L 24.83283734375 27  C 26.19066871875 27.288910125  27.2912025625 26.256074375  27.2912025625 24.98097090625  L 27.2912025625 16.905422125  L 24.83283734375 16.905422125  Z " fill-rule="nonzero" fill="#737373" stroke="none" transform="matrix(1 0 0 1 81 476 )" />
  </g>
</svg>