<?xml version="1.0" encoding="utf-8"?>
<svg version="1.1" xmlns:xlink="http://www.w3.org/1999/xlink" width="28px" height="29px" xmlns="http://www.w3.org/2000/svg">
  <g transform="matrix(1 0 0 1 -264 -478 )">
    <path d="M 27.4916552734375 8.14299609375  C 27.4916552734375 11.1520576171875  25.21314453125 13.592333984375  22.4033447265625 13.592333984375  C 22.2006845703125 13.592333984375  22.0065771484375 13.55659375  21.81244140625 13.5276220703125  C 20.77875 16.7580634765625  18.4712958984375 19.6768681640625  15.6512724609375 20.5623876953125  L 15.6512724609375 26.4204443359375  L 19.0571015625 26.4204443359375  L 19.0571015625 28  L 8.8395859375 28  L 8.8395859375 26.4204443359375  L 12.2454150390625 26.4204443359375  L 12.2454150390625 20.576009765625  C 9.4015458984375 19.7109375  7.07024609375 16.7785107421875  6.031513671875 13.527650390625  C 5.8373779296875 13.55659375  5.6432421875 13.592333984375  5.44058203125 13.592333984375  C 2.6290546875 13.592333984375  0.350572265625001 11.1520576171875  0.350572265625001 8.14299609375  C 0.350572265625001 4.5089619140625  -0.369783203124999 4.5089619140625  5.44058203125 4.5089619140625  C 5.44058203125 2.5029208984375  6.9595986328125 0.876655273437499  8.8327890625 1  L 19.011166015625 1  C 20.8843564453125 0.876655273437499  22.403373046875 2.5029208984375  22.403373046875 4.5089619140625  C 28.2120390625 4.5089619140625  27.49168359375 4.5089619140625  27.49168359375 8.1430244140625  Z M 5.4405537109375 6.32596484375  C 2.082416015625 6.32596484375  2.0483466796875 6.135255859375  2.0483466796875 8.14299609375  C 2.0483466796875 10.149037109375  3.5656357421875 11.7753310546875  5.4405537109375 11.7753310546875  L 5.4405537109375 6.3259931640625  Z M 25.7955517578125 8.14299609375  C 25.7955517578125 6.135255859375  25.7615107421875 6.32596484375  22.4033447265625 6.32596484375  L 22.4033447265625 11.7753310546875  C 24.2765634765625 11.7753310546875  25.7955517578125 10.149037109375  25.7955517578125 8.14299609375  Z " fill-rule="nonzero" fill="#737373" stroke="none" transform="matrix(1 0 0 1 264 478 )" />
  </g>
</svg>