<?xml version="1.0" encoding="utf-8"?>
<svg version="1.1" xmlns:xlink="http://www.w3.org/1999/xlink" width="14px" height="14px" xmlns="http://www.w3.org/2000/svg">
  <g transform="matrix(1 0 0 1 -304 -499 )">
    <path d="M 13.469093753418 6.08628125341797  C 13.6366489302366 5.92047598165768  13.6966997055276 5.67452154536891  13.6244062568359 5.45015625683594  C 13.5513615788053 5.22528435737153  13.3570035771193 5.06136899277762  13.123031246582 5.0273125  L 9.27675000170898 4.46796875341797  L 7.55562499316406 0.982624998291016  C 7.45117631467728 0.771104136046443  7.2359033446226 0.63702467368133  7 0.636562506835937  C 6.7640966553774 0.63702467368133  6.54882368532272 0.771104136046443  6.44437500683594 0.982624998291016  L 4.72324999829102 4.46796875341797  L 0.876968753417969 5.0273125  C 0.642685964663566 5.06067716836971  0.448008896418393 5.22486162356405  0.375593743164063 5.45015625683594  C 0.303088459591959 5.67475731605945  0.36391928059686 5.92104588007718  0.53265625 6.08606250683594  L 3.31646875 8.79856249829102  L 2.66175000170898 12.629968744873  C 2.62228026970064 12.8624773344745  2.71786462037847 13.0972860505369  2.90850000683594 13.236124998291  C 3.09942841265065 13.3749490262403  3.35268963867279 13.3931057802465  3.56146875170898 13.282937505127  L 7.00175000341797 11.473875001709  L 10.442250001709 13.282937505127  C 10.5319375 13.3297500119629  10.631250001709 13.354031251709  10.7303437568359 13.354031251709  C 10.7307680020593 13.3540321236131  10.7311922480668 13.3540325595655  10.7316164941862 13.3540325595655  C 11.0736360834735 13.3540325595655  11.3508977424772 13.0767709005618  11.3508977424772 12.7347513112745  C 11.3508977424772 12.6996337989278  11.3479106449594 12.6645799219409  11.341968751709 12.629968744873  L 10.6855 8.79878124487304  L 13.469093753418 6.08628125341797  Z " fill-rule="nonzero" fill="#9d9d9d" stroke="none" transform="matrix(1 0 0 1 304 499 )" />
  </g>
</svg>