<?xml version="1.0" encoding="utf-8"?>
<svg version="1.1" xmlns:xlink="http://www.w3.org/1999/xlink" width="29px" height="28px" xmlns="http://www.w3.org/2000/svg">
  <g transform="matrix(1 0 0 1 -265 -568 )">
    <path d="M 28.0036463044667 16.4269826727438  C 28.0036463044667 15.1201458450319  27.0701914165907 14  25.7633546144029 14  L 20 14  L 20 27.0683682771194  L 25.7633546144029 27.0683682771194  C 26.8835004594348 27.0683682771194  28.0036463299909 25.9482224320875  28.0036463044667 24.8280765615314  L 28.0036463044667 16.4269826727438  Z M 18.6690975278031 27.0683682771194  L 18.6690975278031 3.17192343846855  C 18.6690975278031 1.86508661075661  17.7356426654512 0.931631722880583  16.4288058377393 0.931631722880583  L 11.5748404667274 0.931631722880583  C 10.2680036390155 0.931631722880583  9.33454877666363 1.86508661075661  9.33454877666363 3.17192343846855  L 9.33454877666363 27.0683682771194  L 18.6690975278031 27.0683682771194  Z M 2.24029171558797 8.39927074931632  C 0.933454887876026 8.39927074931632  0 9.33272561166819  0 10.6395624393801  L 0 24.8280765615315  C 0 26.1349133892434  0.933454887876026 27.0683682771194  2.24029171558797 27.0683682771194  L 8 27.0683682771194  L 8 8.39927074931632  L 2.24029171558797 8.39927074931632  Z " fill-rule="nonzero" fill="#737373" stroke="none" transform="matrix(1 0 0 1 265 568 )" />
  </g>
</svg>