<?xml version="1.0" encoding="utf-8"?>
<svg version="1.1" xmlns:xlink="http://www.w3.org/1999/xlink" width="12px" height="13px" xmlns="http://www.w3.org/2000/svg">
  <g transform="matrix(1 0 0 1 -90 -728 )">
    <path d="M 11.5981714285714 6.50515666666666  C 11.5969660953115 5.36334697721458  10.6816055450614 4.43814535932033  9.55234285714286 4.43733333333333  L 2.04805714285714 4.43733333333333  C 1.44240734399842 4.43652169642477  0.951631289250224 3.9402925744016  0.950828571428571 3.32791333333333  L 0.950828571428571 3.27855666666667  C 0.951230439939218 2.66560245757437  1.44256726573289 2.16880633371632  2.04878571428571 2.1684  L 3.00904285714286 2.1684  C 3.19456212336822 2.58260652565084  3.60265228644269 2.84870726486222  4.05235714285714 2.84870726486222  C 4.5020619992716 2.84870726486222  4.91015216234607 2.58260652565084  5.09567142857143 2.1684  L 9.55234285714286 2.1684  C 9.81388913509844 2.1684  10.0259142857143 1.95401901437731  10.0259142857143 1.68956666666667  C 10.0259142857143 1.42511431895602  9.81388913509844 1.21073333333333  9.55234285714286 1.21073333333333  L 5.09567142857143 1.21073333333333  C 4.91015216234607 0.796526807682497  4.5020619992716 0.530426068471111  4.05235714285714 0.530426068471111  C 3.60265228644269 0.530426068471111  3.19456212336822 0.796526807682497  3.00904285714286 1.21073333333333  L 2.04878571428571 1.21073333333333  C 0.919807540691658 1.21195139132726  0.00489038702695512 2.13703429114379  0.00368571428571407 3.27855666666667  L 0.00368571428571407 3.32791333333333  C 0.00529175522219142 4.4691480121445  0.920091575293432 5.39378275408295  2.04878571428571 5.395  L 9.55307142857143 5.395  C 10.1592898771242 5.39540633371632  10.6506267029179 5.89220245757437  10.6510285714286 6.50515666666667  L 10.6510285714286 6.55451333333333  C 10.6506267029179 7.16746754242563  10.1592898771242 7.66426366628368  9.55307142857143 7.66467  L 9.06128571428571 7.66467  C 8.87576644806035 7.25046347434916  8.46767628498588 6.98436273513778  8.01797142857143 6.98436273513778  C 7.56826657215698 6.98436273513778  7.16017640908251 7.25046347434916  6.97465714285714 7.66467  L 2.04878571428571 7.66467  C 0.919807540691658 7.66588805799392  0.0048903870269555 8.59097095781045  0.00368571428571407 9.73249333333333  L 0.00368571428571407 9.78185  C 0.00489038702695664 10.9233723755229  0.919807540691658 11.8484552753394  2.04878571428571 11.8496733333333  L 3.00904285714286 11.8496733333333  C 3.19456212336822 12.2638798589842  3.60265228644269 12.5299805981956  4.05235714285714 12.5299805981956  C 4.5020619992716 12.5299805981956  4.91015216234607 12.2638798589842  5.09567142857143 11.8496733333333  L 9.55234285714286 11.8496733333333  C 9.81388913509844 11.8496733333333  10.0259142857143 11.6352923477106  10.0259142857143 11.37084  C 10.0259142857143 11.1063876522894  9.81388913509844 10.8920066666667  9.55234285714286 10.8920066666667  L 5.09567142857143 10.8920066666667  C 4.91015216234607 10.4778001410158  4.5020619992716 10.2116994018044  4.05235714285714 10.2116994018044  C 3.60265228644269 10.2116994018044  3.19456212336822 10.4778001410158  3.00904285714286 10.8920066666667  L 2.04878571428571 10.8920066666667  C 1.44256726573289 10.8916003329503  0.951230439939218 10.3948042090923  0.950828571428571 9.78185  L 0.950828571428571 9.73249333333333  C 0.951230439939218 9.11953912424103  1.44256726573289 8.62274300038298  2.04878571428571 8.62233666666666  L 6.97538571428571 8.62233666666666  C 7.16090498051108 9.0365431923175  7.56899514358555 9.30264393152889  8.0187 9.30264393152889  C 8.46840485641445 9.30264393152889  8.87649501948892 9.0365431923175  9.06201428571428 8.62233666666666  L 9.55307142857143 8.62233666666666  C 10.6820496021655 8.62111860867274  11.5969667558302 7.69603570885621  11.5981714285714 6.55451333333333  L 11.5981714285714 6.50515666666666  Z " fill-rule="nonzero" fill="#ffffff" stroke="none" transform="matrix(1 0 0 1 90 728 )" />
  </g>
</svg>