<?xml version="1.0" encoding="utf-8"?>
<svg version="1.1" xmlns:xlink="http://www.w3.org/1999/xlink" width="13px" height="12px" xmlns="http://www.w3.org/2000/svg">
  <g transform="matrix(1 0 0 1 -206 -728 )">
    <path d="M 12.000137390625 10.2721318945312  C 12.0000686953125 8.44705747265625  10.9520952539062 6.887084953125  9.4700938828125 6.250881609375  C 10.187840625 5.7335928515625  10.6608884765625 4.852347140625  10.6608884765625 3.851499890625  C 10.6608884765625 2.48518434375  9.779642765625 1.34165330859375  8.59661094140625 1.04426380078125  C 8.58617433101003 1.04162617542691  8.57515075488573 1.04261950850567  8.5653537890625 1.04708037890625  C 8.55195786328125 1.0457064375  8.53883673046875 1.04261506640625  8.5251660234375 1.04261506640625  C 8.27242959375 1.04261506640625  8.06757500390625 1.26368216015625  8.0675749921875 1.5362720390625  C 8.0675749921875 1.7824135546875  8.23512708984375 1.9847950546875  8.45372109375 2.0220288515625  C 8.492603625 2.03913441796875  8.54364553125 2.05211816015625  8.5456377421875 2.05294252734375  C 9.23075337890625 2.30368674609375  9.72365469140625 3.00219830859375  9.7236546796875 3.8258758828125  C 9.7236546796875 4.7442866953125  9.11032744921875 5.50744217578125  8.3014197421875 5.66716280859375  C 8.30032059375 5.66723150390625  8.2993588359375 5.6694985078125  8.29819098046875 5.6701167890625  C 8.02910465625 5.68845889453125  7.81545684375 5.92731853125  7.81545683203125 6.2220288515625  C 7.81545683203125 6.5212731796875  8.03535608203125 6.7637050546875  8.31028166015625 6.775520953125  C 8.31213648046875 6.77655140625  8.31385391015625 6.77978016796875  8.31577742578125 6.77984886328125  C 9.9426608671875 6.958598578125  11.0958781757812 8.4531715078125  11.0958781757812 10.2722005898437  C 11.0958781757812 10.5414930117187  11.2983283710937 10.7598122226562  11.5480421367187 10.7598122226562  C 11.7916418671875 10.7598122226562  11.9888023828125 10.5515227734375  11.998351265625 10.2912983789062  C 11.9986260585937 10.28875659375  12.000137390625 10.2867643710937  12.000137390625 10.2841538789063  C 12.000137390625 10.2832608164063  11.9997939023437 10.2823677539063  11.9997939140625 10.2811999101562  C 11.9999313046875 10.2782459414063  12.0001374023437 10.2752919609375  12.000137390625 10.2723379921875  Z M 9.606663609375 11.1434165273437  C 9.60652621875 8.9604304921875  8.3539042734375 7.0943439375  6.58200137109375 6.3318067265625  C 7.43920311328125 5.71243415625  8.003686734375 4.65930844921875  8.00368674609375 3.46308678515625  C 8.00368674609375 1.5568811484375  6.5708724609375 0.0115411054687495  4.80329745703125 0.0115411054687495  C 3.03579116015625 0.0115411054687495  1.60283947265625 1.55688116015625  1.60283947265625 3.46308678515625  C 1.60283947265625 4.65944583984375  2.16752919140625 5.71243416796875  3.02452484765625 6.3318067265625  C 1.2527593359375 7.0943439375  6.86953124990897E-05 8.9604304921875  6.86953124990897E-05 11.1432791367187  C 6.86953124990897E-05 11.26617815625  0.00652621874999909 11.38722234375  0.0152507460937491 11.507579578125  C 0.0160751132812491 11.77329975  0.215777425781249 11.9884588945312  0.462193722656249 11.9884588945312  C 0.708403933593749 11.9884588945312  0.908174941406249 11.7732310546875  0.908174953124999 11.507579578125  C 0.908174953124999 11.492603625  0.905358374999999 11.4784520273437  0.904053128906249 11.4638195507812  C 0.895466003906249 11.3578887070312  0.888115417968749 11.2518204609375  0.888115406249999 11.1432791367187  C 0.888115406249999 8.8113579140625  2.64098923828125 6.92095259765625  4.80336615234375 6.92095259765625  C 6.96581176171875 6.92095259765625  8.71868559375 8.8113579140625  8.71868559375 11.1432791367187  C 8.71868559375 11.2558048945312  8.7113350078125 11.36647584375  8.70212961328125 11.47625371875  C 8.70206091796875 11.4819555703125  8.70061828125 11.4871765546875  8.70061826953125 11.4929471015625  C 8.70061826953125 11.49466453125  8.70116784375 11.4963819492187  8.70116785546875 11.4980306835937  C 8.7008930625 11.50119075  8.70096176953125 11.5044882070312  8.70061826953125 11.507579578125  L 8.70206090625 11.507579578125  C 8.7094114921875 11.7661552617187  8.90506067578125 11.973895125  9.1465995 11.973895125  C 9.388275703125 11.973895125  9.583856203125 11.7662926523437  9.59127547265625 11.507579578125  C 9.60068696484375 11.3871536601562  9.606663609375 11.266040765625  9.606663609375 11.1434165273437  Z M 7.10217540234375 3.46308678515625  C 7.10217540234375 4.8323563125  6.07295626171875 5.9423631796875  4.80329745703125 5.9423631796875  C 3.53363865234375 5.9423631796875  2.50441951171875 4.8323563125  2.50441951171875 3.46308678515625  C 2.50441951171875 2.09388596484375  3.53363865234375 0.983810390625  4.80329745703125 0.983810390625  C 6.07295626171875 0.983810390625  7.10217540234375 2.0938172578125  7.10217540234375 3.46308678515625  Z " fill-rule="nonzero" fill="#dfe0e2" stroke="none" transform="matrix(1 0 0 1 206 728 )" />
  </g>
</svg>