<?xml version="1.0" encoding="utf-8"?>
<svg version="1.1" xmlns:xlink="http://www.w3.org/1999/xlink" width="13px" height="13px" xmlns="http://www.w3.org/2000/svg">
  <g transform="matrix(1 0 0 1 -338 -702 )">
    <path d="M 344.5 703  C 347.58 703  350 705.42  350 708.5  C 350 711.58  347.58 714  344.5 714  C 341.42 714  339 711.58  339 708.5  C 339 705.42  341.42 703  344.5 703  Z " fill-rule="nonzero" fill="#ffffff" stroke="none" fill-opacity="0" />
    <path d="M 344.5 703  C 347.58 703  350 705.42  350 708.5  C 350 711.58  347.58 714  344.5 714  C 341.42 714  339 711.58  339 708.5  C 339 705.42  341.42 703  344.5 703  Z " stroke-width="2" stroke="#ffffff" fill="none" />
  </g>
</svg>