<?xml version="1.0" encoding="utf-8"?>
<svg version="1.1" xmlns:xlink="http://www.w3.org/1999/xlink" width="20px" height="20px" xmlns="http://www.w3.org/2000/svg">
  <g transform="matrix(1 0 0 1 -253 -170 )">
    <path d="M 18.23 9.96  C 18.23 5.36  14.5 1.64  9.9 1.64  C 5.3 1.64  1.57 5.37  1.57 9.97  C 1.57 14.57  5.3 18.29  9.9 18.29  C 14.5 18.29  18.23 14.56  18.23 9.96  Z M 19.67 9.97  C 19.67 15.37  15.29 19.73  9.9 19.73  C 4.51 19.73  0.13 15.36  0.13 9.96  C 0.13 4.56  4.51 0.2  9.9 0.2  C 15.29 0.2  19.67 4.57  19.67 9.97  Z M 14.62 7.22  L 12.64 5.4  C 12.48 5.25  12.2 5.36  12.2 5.57  L 12.2 6.98  C 12.2 7.11  12.08 7.22  11.94 7.22  L 4.33 7.22  C 4.19 7.22  4.07 7.33  4.07 7.46  L 4.07 8.1  C 4.07 8.23  4.19 8.34  4.33 8.34  L 15.21 8.34  C 15.44 8.34  15.56 8.08  15.39 7.93  L 14.62 7.22  Z M 4.15 11.73  L 4.91 12.45  L 6.9 14.26  C 7.06 14.41  7.34 14.3  7.34 14.09  L 7.34 12.68  C 7.34 12.55  7.46 12.44  7.6 12.44  L 15.21 12.44  C 15.35 12.44  15.47 12.33  15.47 12.2  L 15.47 11.56  C 15.47 11.43  15.35 11.32  15.21 11  L 4.33 11  C 4.1 11.32  3.98 11.58  4.15 11.73  Z " fill-rule="nonzero" fill="#bbbbbb" stroke="none" transform="matrix(1 0 0 1 253 170 )" />
  </g>
</svg>