<?xml version="1.0" encoding="utf-8"?>
<svg version="1.1" xmlns:xlink="http://www.w3.org/1999/xlink" width="21px" height="26px" xmlns="http://www.w3.org/2000/svg">
  <g transform="matrix(1 0 0 1 -70 -403 )">
    <path d="M 20.865375 15.83725  C 20.865375 14.421875  20.576125 13.047125  19.997625 11.74875  C 19.4344355760788 10.4809633570233  18.6156976276389 9.34302824895515  17.592625 8.406125  L 16.747625 7.631  C 16.7047231194027 7.59262689026092  16.6491831150027 7.57141228979097  16.5916238680494 7.57141228979097  C 16.4920354359127 7.57141228979097  16.4033582237279 7.63444474028628  16.370625 7.7285  L 15.993625 8.809125  C 15.759625 9.488375  15.327375 10.18225  14.71475 10.86475  C 14.6836829658937 10.8978359888403  14.6413750016702 10.9181206292214  14.596125 10.921625  C 14.5502919814153 10.9260994784162  14.5047388395226 10.9107178980368  14.471 10.879375  C 14.4307542716502 10.8444774069417  14.4091160783805 10.7927861674641  14.4125 10.739625  C 14.51975 8.99275  13.998125 7.021625  12.854125 4.87825  C 11.91 3.095625  10.59375 1.70625  8.9525 0.73775  L 7.75325 0.0325  C 7.71767475267115 0.0117107396159792  7.6772114465828 0.000754663374011873  7.63600718017963 0.000754663374011873  C 7.5076700114377 0.000754663374011873  7.40363218017963 0.104792494632081  7.40363218017963 0.233129663374012  C 7.40363218017963 0.236671163399547  7.40371314126979 0.240212200658273  7.403875 0.24375  L 7.468875 1.636375  C 7.51275 2.588625  7.40225 3.430375  7.140625 4.129125  C 6.81967844044502 4.98739315053039  6.35840119922469 5.78639122907274  5.775625 6.4935  C 5.36787408535359 6.99001936461129  4.90564315834907 7.43916828424776  4.397625 7.8325  C 3.17454536437062 8.77354118512813  2.18015293695076 9.97903368093881  1.488875 11.35875  C 0.182317383331574 13.9958709390927  0.0921057705346531 17.0719682359772  1.241875 19.781125  C 2.28626365312335 22.2141312965104  4.23619510284288 24.1454142685279  6.679125 25.166375  C 7.9385 25.6945  9.272625 25.962625  10.65225 25.962625  C 12.03025 25.962625  13.366 25.6945  14.62375 25.169625  C 15.8370680072847 24.6648978831254  16.9404174756259 23.9285956366185  17.872125 23.001875  C 19.7898223133893 21.11138169926  20.8682287534149 18.5301146015006  20.865375 15.83725  Z " fill-rule="nonzero" fill="#dddddd" stroke="none" transform="matrix(1 0 0 1 70 403 )" />
  </g>
</svg>