<?xml version="1.0" encoding="utf-8"?>
<svg version="1.1" xmlns:xlink="http://www.w3.org/1999/xlink" width="54px" height="59px" xmlns="http://www.w3.org/2000/svg">
  <g transform="matrix(1 0 0 1 -326 -1021 )">
    <path d="M 53 18.9694382906605  C 53.1993534728906 16.6832086200994  51.5684431483594 13.8774296762429  49.5751232017969 12.7343148734375  L 30.4441629953906 1.76343001896307  C 28.4508430488281 0.620315216157671  25.1890223997656 0.620315216157671  23.1956354932031 1.76343001896307  L 4.0646753521875 12.7343148734375  C 2.071355405625 13.8774296762429  0.440445081093751 16.6832086200994  1 18.9694382906605  L 1 40.9112079346591  C 0.440445081093751 43.1974376052202  2.071355405625 46.0032165490767  4.0646753521875 47.1463313518821  L 23.1956354932031 58.1172162063565  C 25.1889554397656 59.2603310091619  28.4508430488281 59.2603310091619  30.4441629953906 58.1172162063565  L 49.5751231364062 47.1463313518821  C 51.5684430829687 46.0032165490767  53.1993534075 43.1974376052202  53 40.9112079346591  L 53 18.9694382906605  Z " fill-rule="nonzero" fill="#4a4a4a" stroke="none" transform="matrix(1 0 0 1 326 1021 )" />
  </g>
</svg>