<?xml version="1.0" encoding="utf-8"?>
<svg version="1.1" xmlns:xlink="http://www.w3.org/1999/xlink" width="2px" height="17px" xmlns="http://www.w3.org/2000/svg">
  <g transform="matrix(1 0 0 1 -356 -1054 )">
    <path d="M 1.34291484375 4.28709895833333  C 1.34291484375 3.84007421875001  1.08708671875 3.47765104166667  0.771485156249998 3.47765104166667  C 0.455883593749999 3.47765104166667  0.200055468749998 3.84007421875  0.200055468749998 4.28717643229167  L 0.200055468749998 15.858376953125  C 0.200055468749998 16.3054791666667  0.455883593749999 16.66790234375  0.771485156249998 16.66790234375  C 1.08708671875 16.66790234375  1.34291484375 16.3054791666667  1.34291484375 15.858376953125  L 1.34291484375 4.28709895833333  Z M 1.34291484375 1.54839453125  C 1.34291484375 1.10129231770833  1.08708671875 0.738869140624998  0.771485156249998 0.738869140624998  C 0.455883593749999 0.738869140624998  0.200055468749998 1.10129231770833  0.200055468749998 1.54839453125  L 0.200055468749998 1.847521484375  C 0.200055468749998 2.29462369791667  0.455883593749999 2.657046875  0.771485156249998 2.657046875  C 1.08708671875 2.657046875  1.34291484375 2.29462369791667  1.34291484375 1.847521484375  L 1.34291484375 1.54839453125  Z " fill-rule="nonzero" fill="#cecece" stroke="none" transform="matrix(1 0 0 1 356 1054 )" />
  </g>
</svg>