<?xml version="1.0" encoding="utf-8"?>
<svg version="1.1" xmlns:xlink="http://www.w3.org/1999/xlink" width="61px" height="67px" xmlns="http://www.w3.org/2000/svg">
  <g transform="matrix(1 0 0 1 -322 -1017 )">
    <path d="M 60 21.5415655165128  C 60.0955659601172 18.9453386024858  58.2532413342578 15.7591150560724  56.0015280612891 14.4610016359375  L 34.3906285688672 2.0025391740767  C 32.1389152958984 0.704425753941762  28.4542660441797 0.704425753941762  26.2024771312109 2.0025391740767  L 4.59157771265625 14.4610016359375  C 2.3398644396875 15.7591150560724  0.497539813828126 18.9453386024858  1 21.5415655165128  L 1 46.4584903664773  C 0.497539813828126 49.0547172805043  2.3398644396875 52.2409408269176  4.59157771265625 53.5390542470526  L 26.2024771312109 65.9975167089134  C 28.4541904041797 67.2956301290483  32.1389152958984 67.2956301290483  34.3906285688672 65.9975167089134  L 56.0015279874219 53.5390542470526  C 58.2532412603906 52.2409408269176  60.09556588625 49.0547172805043  60 46.4584903664773  L 60 21.5415655165128  Z " fill-rule="nonzero" fill="#cecece" stroke="none" transform="matrix(1 0 0 1 322 1017 )" />
  </g>
</svg>