<?xml version="1.0" encoding="utf-8"?>
<svg version="1.1" xmlns:xlink="http://www.w3.org/1999/xlink" width="40px" height="39px" xmlns="http://www.w3.org/2000/svg">
  <g transform="matrix(1 0 0 1 -331 -1034 )">
    <path d="M 31.7470592672414 28.57344140625  L 34.4886756465517 28.57344140625  C 36.7670700431034 28.57344140625  38.6207122844828 26.70159375  38.6207122844828 24.400822265625  L 38.6207122844828 19.8046875  C 38.6207122844828 18.12448828125  37.2671778017241 16.757583984375  35.6034709051724 16.757583984375  C 33.9396131465517 16.757583984375  32.5859278017241 18.12448828125  32.5859278017241 19.8046875  L 32.5859278017241 22.47938671875  L 31 22.47938671875  L 31 9.5961328125  C 31.7469838362069 6.674712890625  29.3933092672414 4.29807421875  26.5003028017241 4.29807421875  C 23.6072963362069 4.29807421875  21.2536971982759 6.6747890625  21.2536971982759 9.5961328125  L 21.2536971982759 16.462494140625  L 20.3412079741379 16.462494140625  L 20.3412079741379 12.0543515625  C 20.3412079741379 10.363259765625  18.9787726293103 8.98751953125  17.3042036637931 8.98751953125  C 15.6297101293103 8.98751953125  14.2674256465517 10.3633359375  14.2674256465517 12.0543515625  L 14.2674256465517 18.39383203125  C 14.2674256465517 20.710904296875  16.1341174568966 22.5959296875  18.4286540948276 22.5959296875  L 21 22.5959296875  L 21 37  L 5.46492564655172 37  C 5.02961314655172 37.40816015625  4.67674676724138 37.7644921875  4.67674676724138 38.204080078125  C 4.67674676724138 38.64366796875  5.02961314655172 39  5.46492564655172 39  L 37.8325334051724 39  C 38.2678459051724 39  38.6207122844828 38.64366796875  38.6207122844828 38.204080078125  C 38.6207122844828 37.7644921875  38.2678459051724 37.40816015625  37.8325334051724 37.40816015625  L 31.7470592672414 37.40816015625  L 31.7470592672414 28.57344140625  Z M 34.4887510775862 26.981525390625  L 30.9587295258621 26.981525390625  C 30.5234170258621 26.981525390625  30.1705506465517 27.337857421875  30.1705506465517 27.7774453125  L 30.1705506465517 37.4080078125  L 22.8299795258621 37.4080078125  L 22.8299795258621 21.79993359375  C 22.8299795258621 21.360345703125  22.4771131465517 21.004013671875  22.0418006465517 21.004013671875  L 18.4285786637931 21.004013671875  C 17.0033092672414 21.004013671875  15.8437079741379 19.833099609375  15.8437079741379 18.393755859375  L 15.8437079741379 12.054275390625  C 15.8437079741379 11.240912109375  16.4988265086207 10.579283203125  17.3041282327586 10.579283203125  C 18.1095808189655 10.579283203125  18.7647747844828 11.240912109375  18.7647747844828 12.054275390625  L 18.7647747844828 17.258337890625  C 18.7647747844828 17.69792578125  19.1176411637931 18.0542578125  19.5529536637931 18.0542578125  L 22.0418006465517 18.0542578125  C 22.4771131465517 18.0542578125  22.8299795258621 17.69792578125  22.8299795258621 17.258337890625  L 22.8299795258621 9.5961328125  C 22.8299795258621 7.55244140625  24.4764881465517 5.889837890625  26.5003028017241 5.889837890625  C 28.524192887931 5.889837890625  30.1707015086207 7.552517578125  30 9.5961328125  L 30 23.27523046875  C 30.1707015086207 23.714818359375  30.523567887931 24.071150390625  30.958880387931 24.071150390625  L 33.374182112069 24.071150390625  C 33.809494612069 24.071150390625  34.1623609913793 23.714818359375  34.1623609913793 23.27523046875  L 34.1623609913793 19.804611328125  C 34.1623609913793 19.002140625  34.808880387931 18.34934765625  35.6035463362069 18.34934765625  C 36.3980614224138 18.34934765625  37.0444299568966 19.002140625  37.0444299568966 19.804611328125  L 37.0444299568966 24.40074609375  C 37.0444299568966 25.8237890625  35.8979536637931 26.981525390625  34.4887510775862 26.981525390625  Z M 9.56671443965517 6.6778359375  C 9.56671443965517 4.5986484375  7.89169288793103 2.90717578125  5.83272737068966 2.90717578125  C 3.77376185344828 2.90717578125  2.09874030172414 4.598724609375  2.09874030172414 6.6778359375  C 2.09874030172414 8.756947265625  3.77376185344828 10.44849609375  5.83272737068966 10.44849609375  C 7.89169288793103 10.44849609375  9.56671443965517 8.7570234375  9.56671443965517 6.6778359375  Z M 7.99035668103448 6.6778359375  C 7.99035668103448 7.87921875  7.02250107758621 8.85665625  5.83272737068966 8.85665625  C 4.6429536637931 8.85665625  3.67509806034483 7.879294921875  3.67509806034483 6.6778359375  C 3.67509806034483 5.476376953125  4.6429536637931 4.499015625  5.83272737068966 4.499015625  C 7.02250107758621 4.499015625  7.99035668103448 5.476376953125  7.99035668103448 6.6778359375  Z M 6.62090625 0.79599609375  C 6.62090625 0.356408203125  6.26803987068965 7.61718749999578E-05  5.83272737068966 7.6171875E-05  C 5.39741487068965 7.6171875E-05  5.04454849137931 0.356408203125  5.04454849137931 0.79599609375  L 5.04454849137931 1.97208984375  C 5.04454849137931 2.411677734375  5.39741487068965 2.768009765625  5.83272737068966 2.768009765625  C 6.26803987068965 2.768009765625  6.62090625 2.411677734375  6.62090625 1.97208984375  L 6.62090625 0.79599609375  Z M 6.62090625 11.383505859375  C 6.62090625 10.94391796875  6.26803987068965 10.5875859375  5.83272737068966 10.5875859375  C 5.39741487068965 10.5875859375  5.04454849137931 10.94391796875  5.04454849137931 11.383505859375  L 5.04454849137931 12.55967578125  C 5.04454849137931 12.999263671875  5.39741487068965 13.355595703125  5.83272737068966 13.355595703125  C 6.26803987068965 13.355595703125  6.62090625 12.999263671875  6.62090625 12.55967578125  L 6.62090625 11.383505859375  Z M 11.2710032327586 4.4261953125  C 11.6480075431034 4.20636328125  11.7771454741379 3.719625  11.5595269396552 3.33891796875  C 11.3418329741379 2.958134765625  10.8598286637931 2.8278046875  10.4828997844828 3.047560546875  L 9.47423599137931 3.635607421875  C 9.09723168103448 3.855439453125  8.96809375 4.342177734375  9.18571228448276 4.72280859375  C 9.32640444801019 4.96915547091956  9.5866053420421 5.12094038702974  9.86821915808224 5.12094038702974  C 10.0065916412921 5.12094038702974  10.1425237841493 5.08414016237953  10.2623394396552 5.0142421875  L 11.2710032327586 4.4261953125  Z M 2.19114331896552 9.720064453125  C 2.56814762931034 9.50030859375  2.69728556034483 9.013494140625  2.47959159482759 8.632787109375  C 2.26189762931034 8.252080078125  1.77981788793103 8.12159765625  1.40296443965517 8.341505859375  L 0.39445150862069 8.929552734375  C 0.0174471982758623 9.14930859375  -0.11169073275862 9.636123046875  0.106003232758621 10.01675390625  C 0.246657217564727 10.2630958429289  0.506831716127728 10.4148844186957  0.78842222190147 10.4148844186957  C 0.926832188856047 10.4148844186957  1.06279886141875 10.3780572215568  1.18263038793103 10.308111328125  L 2.19114331896552 9.720064453125  Z M 2.47959159482759 4.722732421875  C 2.69721012931034 4.3421015625  2.56807219827586 3.85536328125  2.19106788793103 3.635607421875  L 1.1823286637931 3.047560546875  C 0.805324353448276 2.827728515625  0.323320043103448 2.958287109375  0.10570150862069 3.33891796875  C -0.111917025862069 3.719701171875  0.0172963362068966 4.206439453125  0.394225215517241 4.4261953125  L 1.40296443965517 5.014166015625  C 1.52279227513603 5.08411751195498  1.65875807611299 5.12094800912843  1.79716762426692 5.12094800912843  C 2.07878148016388 5.12094800912843  2.33896956637898 4.9691201777242  2.47959159482759 4.722732421875  Z M 11.5596023706897 10.01675390625  C 11.7772209051724 9.636123046875  11.6480829741379 9.1494609375  11.2710786637931 8.92962890625  L 10.2624903017241 8.341505859375  C 9.88556142241379 8.12175  9.40355711206896 8.25215625  9.18586314655172 8.632787109375  C 8.96816918103448 9.013494140625  9.09738254310345 9.50015625  9.47431142241379 9.71998828125  L 10.4829752155172 10.308111328125  C 10.6028148502451 10.3780929204419  10.7388039630527 10.4149403113119  10.8772386437465 10.4149403113119  C 11.1588291868764 10.4149403113119  11.4189951535183 10.2631231104758  11.5596023706897 10.01675390625  Z M 3.88140193965517 38.20400390625  C 3.88140193965517 37.764416015625  3.52853556034483 37.408083984375  3.09322306034483 37.408083984375  L 0.788352370689655 37.408083984375  C 0.353039870689655 37.408083984375  0.000173491379310342 37.764416015625  0.000173491379310342 38.20400390625  C 0.000173491379310342 38.643591796875  0.353039870689655 38.999923828125  0.788352370689655 38.999923828125  L 3.09322306034483 38.999923828125  C 3.52853556034483 38.999923828125  3.88140193965517 38.643591796875  3.88140193965517 38.20400390625  Z " fill-rule="nonzero" fill="#cecece" stroke="none" transform="matrix(1 0 0 1 331 1034 )" />
  </g>
</svg>