<?xml version="1.0" encoding="utf-8"?>
<svg version="1.1" xmlns:xlink="http://www.w3.org/1999/xlink" width="17px" height="15px" xmlns="http://www.w3.org/2000/svg">
  <g transform="matrix(1 0 0 1 -1019 -210 )">
    <path d="M 15.0182585273799 1.11532144104997  L 15.0182585273799 1.10842419389882  C 12.143324652064 -0.833148888839622  9.42044754170177 1.56019341440163  9.42044754170177 1.56019341440163  L 9.32850622830665 1.6567547767481  L 12.5959587607414 5.1053748186494  C 13.1460925581218 5.6904812758399  13.2312689227594 6.56057014008976  12.8045947910699 7.23662199552166  L 14.7424346015164 9.25061608256108  C 15.0571567615838 8.90575407418082  15.3152996562763 8.59537827362213  15.5062546840775 8.34707764155545  C 15.6477028475147 8.16430078060568  15.7856147961247 7.98152391965592  15.9235267590564 7.79529844211413  C 17.0374310353833 6.29859734669445  17.8931924026959 3.05689452378841  15.0182585273799 1.11532144104997  Z M 11.0506375930918 8.21258145479537  L 11.0541738079191 8.20568422161132  L 10.9940583277169 8.20568422161132  C 10.438752223504 8.19181055046395  9.91403259339311 7.95467040100569  9.54421467396798 7.55044641267237  L 7.3270147514743 5.13641239591185  C 7.1705035881603 4.97412547561976  7.11517221813378 4.74248829144504  7.18203038753159 4.52945526116259  C 7.25314217256715 4.32632724356427  7.42952974308986 4.17531834035315  7.64527311204718 4.13286396200062  C 7.86643075063638 4.08547939129962  8.09633875387149 4.16110175833739  8.24289159898905 4.32943530328559  L 10.1807314094356 6.43309351948743  L 10.5626414363943 6.8917599871414  C 10.8018406395562 7.15706580548869  11.2079239749936 7.20321916020193  11.503271716091 6.99866721323106  C 11.8003276466325 6.79814187684185  11.9063018555021 6.41822342216251  11.7543421954507 6.09857737485035  C 11.7400011784364 6.07516348394459  11.7270148019223 6.05098535272562  11.7154439612468 6.02615635658227  L 11.6977629300758 5.98132429898461  L 11.6694732973884 5.94683810513014  L 11.63411126369 5.90545466412451  L 11.609357831508 5.88131432004611  L 10.9021170286436 5.12261791557664  L 7.51089736394271 1.52915583713918  C 7.18556658803707 1.26016347758613  4.63596348862679 -0.695204085487517  1.94844842628475 1.10842419389882  C -0.926485449031173 3.05344589322928  -0.0671878668913243 6.28135423580012  1.03610777927548 7.78840119496298  L 1.44984365374895 8.34362902496342  C 2.39754633445661 9.58513224116526  5.21943714490311 12.3371310191549  6.99107537405223 14.0304034558595  C 7.8053628548037 14.8111540663965  9.10722019252903 14.8233472305088  9.93673333108677 14.05799241653  L 6.55965848272957 10.5507458366958  C 6.32285041693013 10.3037735123222  6.33228353973403 9.91739501445705  6.58087570008424 9.68169358954463  C 6.69564828638315 9.57329586745705  6.84915568888453 9.51268702919999  7.00892809030104 9.51268702919999  C 7.17902388920481 9.51268702919999  7.3415312693317 9.58135615826305  7.45785429907329 9.702385317031  L 10.831392946925 13.202734649714  C 11.1850133555181 12.8578726413338  11.5704595829823 12.4854216862502  11.9523696242628 12.1095221006075  L 8.67430849031171 8.70918274686295  C 8.46529808092551 8.45964756433332  8.48680214973649 8.09564288395963  8.72381534035383 7.87116807697424  C 8.96072001612539 7.64868798481792  9.33559963088386 7.64868798481792  9.57250430665543 7.87116807697424  L 12.8293482232519 11.2473670866404  C 13.182968631845 10.8714675009977  13.5613424582982 10.5059137790981  13.8902094347093 10.1541545375338  L 11.8604283251896 8.04704770473995  C 11.6053631157736 8.15692112404653  11.3294759637052 8.21331672486512  11.0506375930918 8.21258145479537  Z " fill-rule="nonzero" fill="#ffffff" stroke="none" transform="matrix(1 0 0 1 1019 210 )" />
  </g>
</svg>