<?xml version="1.0" encoding="utf-8"?>
<svg version="1.1" xmlns:xlink="http://www.w3.org/1999/xlink" width="45px" height="45px" xmlns="http://www.w3.org/2000/svg">
  <g transform="matrix(1 0 0 1 -1310 -198 )">
    <path d="M 1332.5 201  C 1343.42 201  1352 209.58  1352 220.5  C 1352 231.42  1343.42 240  1332.5 240  C 1321.58 240  1313 231.42  1313 220.5  C 1313 209.58  1321.58 201  1332.5 201  Z " fill-rule="nonzero" fill="#44474d" stroke="none" />
    <path d="M 1332.5 200  C 1343.98 200  1353 209.02  1353 220.5  C 1353 231.98  1343.98 241  1332.5 241  C 1321.02 241  1312 231.98  1312 220.5  C 1312 209.02  1321.02 200  1332.5 200  Z " stroke-width="4" stroke="#d7d7d7" fill="none" />
  </g>
</svg>