<?xml version="1.0" encoding="utf-8"?>
<svg version="1.1" xmlns:xlink="http://www.w3.org/1999/xlink" width="33px" height="33px" xmlns="http://www.w3.org/2000/svg">
  <g transform="matrix(1 0 0 1 -1022 -405 )">
    <path d="M 1038.5 406  C 1047.18 406  1054 412.82  1054 421.5  C 1054 430.18  1047.18 437  1038.5 437  C 1029.82 437  1023 430.18  1023 421.5  C 1023 412.82  1029.82 406  1038.5 406  Z " fill-rule="nonzero" fill="#44474d" stroke="none" />
    <path d="M 1038.5 406  C 1047.18 406  1054 412.82  1054 421.5  C 1054 430.18  1047.18 437  1038.5 437  C 1029.82 437  1023 430.18  1023 421.5  C 1023 412.82  1029.82 406  1038.5 406  Z " stroke-width="2" stroke="#ffffff" fill="none" />
  </g>
</svg>