<?xml version="1.0" encoding="utf-8"?>
<svg version="1.1" xmlns:xlink="http://www.w3.org/1999/xlink" width="7px" height="4px" xmlns="http://www.w3.org/2000/svg">
  <g transform="matrix(1 0 0 1 -1035 -427 )">
    <path d="M 3.60651547070313 3.07012080957032  L 4.80175052734375 2.26363165917969  L 6.68929762792969 0.972342825195312  C 6.7199696765839 0.949432945785286  6.75631532954291 0.93533334165085  6.79441308398437 0.93156528515625  C 6.76450955273437 0.917972781249997  6.74910469042969 0.917972781249997  6.71920115917969 0.904380249023436  C 6.62858440039063 0.877195212890623  6.55427866894531 0.850010205078124  6.46456807519531 0.822825168945315  C 6.42642407464998 0.807370830686875  6.38603067024984 0.798190508896742  6.34495395019531 0.795640132812498  C 6.22533982519531 0.768455096679684  6.10572570019531 0.727677556640625  5.97070671289063 0.705023374023437  L 5.95620804394532 0.705023374023437  C 5.83659391894532 0.677838337890623  5.70157495996094 0.650653330078125  5.58196083496094 0.623468293945312  C 5.53665244140625 0.609875790039062  5.50674893847657 0.609875790039062  5.46234670996094 0.59628328613281  C 5.23761715722657 0.555505746093747  4.99838890722657 0.514728206054688  4.77365932617188 0.487543169921874  C 4.72835093261719 0.487543169921874  4.68304256738282 0.473950666015622  4.65404520117188 0.47395063769531  L 4.2498944609375 0.433173097656248  L 2.7501871015625 0.433173097656248  L 2.34603633300782 0.47395063769531  C 2.30072793945313 0.47395063769531  2.27082443652344 0.487543141601559  2.22642223632813 0.487543169921874  C 1.98719398632813 0.514728206054688  1.76246443359375 0.555505746093747  1.52232999023438 0.59628328613281  C 1.47702159667969 0.609875790039062  1.44711809375 0.609875790039062  1.40271586523438 0.623468293945312  C 1.14808278125 0.677838337890623  0.893449668945316 0.73220841015625  0.638816584960942 0.800170986328126  C 0.605716751349407 0.815532569843672  0.57009835172772 0.824744228889145  0.533701157226567 0.827356022460936  C 0.443084398437504 0.85454105859375  0.352467639648442 0.881726066406248  0.279068073242193 0.908911102539061  C 0.249164541992192 0.922503606445311  0.233759679687505 0.922503606445311  0.203856148437506 0.936096110351563  L 0.203856148437506 0.949688642578124  L 0.294472907226567 0.990466182617187  L 2.19742487011719 2.28175501660156  L 3.42528195312501 3.07012080957032  L 3.60651547070313 3.07012080957032  Z " fill-rule="nonzero" fill="#ebf1ff" stroke="none" transform="matrix(1 0 0 1 1035 427 )" />
  </g>
</svg>