<?xml version="1.0" encoding="utf-8"?>
<svg version="1.1" xmlns:xlink="http://www.w3.org/1999/xlink" width="43px" height="43px" xmlns="http://www.w3.org/2000/svg">
  <g transform="matrix(1 0 0 1 -1231 -478 )">
    <path d="M 1252.5 479  C 1263.98 479  1273 488.02  1273 499.5  C 1273 510.98  1263.98 520  1252.5 520  C 1241.02 520  1232 510.98  1232 499.5  C 1232 488.02  1241.02 479  1252.5 479  Z " fill-rule="nonzero" fill="#44474d" stroke="none" />
    <path d="M 1252.5 479  C 1263.98 479  1273 488.02  1273 499.5  C 1273 510.98  1263.98 520  1252.5 520  C 1241.02 520  1232 510.98  1232 499.5  C 1232 488.02  1241.02 479  1252.5 479  Z " stroke-width="2" stroke="#ffffff" fill="none" />
  </g>
</svg>