<?xml version="1.0" encoding="utf-8"?>
<svg version="1.1" xmlns:xlink="http://www.w3.org/1999/xlink" width="25px" height="14px" xmlns="http://www.w3.org/2000/svg">
  <g transform="matrix(1 0 0 1 -1320 -212 )">
    <path d="M 24.8880463656122 5.49023503325942  C 24.8849553248008 2.56263946784922  22.5790388794977 0.191318847006653  19.7321902922 0.191318847006653  L 13.9673991789423 0.191318847006653  L 13.9673991789423 6.03697383592018  C 13.9673991789423 6.27219866962306  13.7819367302584 6.46292150776053  13.5531997102149 6.46292150776053  C 13.3244626901715 6.46292150776053  13.1390002414876 6.27219866962306  13.1390002414876 6.03697383592018  L 13.1390002414876 0.191318847006653  L 5.26921033566771 0.191318847006653  C 2.42236174836996 0.191318847006653  0.116445303066893 2.56263946784922  0.116445303066893 5.49023503325942  L 0.116445303066893 13.0873614190687  C 0.116445303066893 13.5768833702882  0.502825404491669 13.974222616408  0.978845689446995 14  L 24.0256459792321 14  C 24.5016662641874 13.974222616408  24.8880463656122 13.5768833702882  24.8880463656122 13.0873614190687  L 24.8880463656122 5.49023503325942  Z M 4.36971745955083 12.8807450110865  L 0.941753199710215 12.8807450110865  L 0.941753199710215 5.50612860310421  C 0.941753199710215 3.17613126385809  2.77783144168075 1.28479645232816  5.04665539724704 1.28479645232816  C 7.20729292441439 1.28479645232816  8.97536826853417 3.00448070953437  9.13610239072688 5.18507849223947  L 4.36971745955083 5.18507849223947  L 4.36971745955083 12.8807450110865  Z M 9.15155759478387 12.8807450110865  L 5.04665539724704 12.8807450110865  L 5.04665539724704 5.8843955654102  L 9.15155759478387 5.8843955654102  L 9.15155759478387 12.8807450110865  Z " fill-rule="nonzero" fill="#7b7b7b" stroke="none" transform="matrix(1 0 0 1 1320 212 )" />
  </g>
</svg>