<?xml version="1.0" encoding="utf-8"?>
<svg version="1.1" xmlns:xlink="http://www.w3.org/1999/xlink" width="25px" height="25px" xmlns="http://www.w3.org/2000/svg">
  <g transform="matrix(1 0 0 1 -1321 -267 )">
    <path d="M 18.9791642333984 12.3300166992187  C 19.1591473349309 12.30098541993  19.3252636942178 12.2155541518821  19.4535685302734 12.0860373535156  C 19.5825862105061 11.9560082239776  19.6678675138409 11.7889990181032  19.6975479003906 11.6082444580078  C 19.7573590258613 11.2389188212197  19.5736448803417 10.8728564430224  19.2417809082031 10.7000990966797  L 13.7522454833984 7.86553342285156  L 14.699359765625 1.69827758789062  C 14.7703466110094 1.34214020664693  14.5940376497888 0.982580983605939  14.2690072998047 0.820629638671875  C 13.9301470947266 0.651199536132812  13.5912868896484 0.77996640625  13.3354474365234 1.0459716796875  L 9.11833210449219 5.31899892578125  L 3.45089506835937 2.57084262695313  C 3.11203486328125 2.40141252441406  2.65796218261719 2.40141252441406  2.39365119628906 2.67419499511719  L 2.40889992675781 2.69113798828125  C 2.15096683002277 2.98102897521196  2.10093219951031 3.40091412831412  2.28352163085937 3.74329895019531  L 5.00795773925781 9.54458576660156  L 0.784065209960937 13.7515353027344  C 0.52144853515625 14.0175405517578  0.392681665039062 14.3614836669922  0.560417456054688 14.6986495849609  C 0.710055526899409 15.011707779391  1.05855491550957 15.1771212838302  1.39570788574219 15.0951160400391  L 7.51044040527344 14.1446131347656  L 10.3280630615234 19.7256408203125  C 10.4965483937677 20.0597198222216  10.86156573191 20.2466799251339  11.2311255126953 20.1881850097656  C 11.4114083818076 20.1600700573596  11.5777959855758 20.0744992835911  11.7055298095703 19.9442056396484  C 11.8341830952314 19.8136746896034  11.9183758937153 19.6458820033374  11.9461205566406 19.4647184570313  L 12.9135664550781 13.3160999267578  L 18.9791642333984 12.3300166992187  Z M 24.06376171875 21.3436983154297  L 15.4567123535156 13.9091052978516  L 14.5553441894531 14.0971727050781  C 14.0703398003206 14.1595338854958  13.6790924899714 14.5241981932443  13.5828153808594 15.0036237792969  L 13.4608257080078 15.7711421386719  L 21.0750146484375 24.5120412841797  C 21.4895778235977 24.9937502761355  22.177906602834 25.1332292659348  22.7472897949219 24.8509015136719  C 23.0671878838885 24.6999436308335  23.3611274047445 24.4992183862778  23.6181605224609 24.2562018310547  C 23.9323391713655 23.9183227598349  24.1965081775059 23.5371890859061  24.4026219238281 23.1244087402344  C 24.7149498922642 22.5238823828287  24.5748270972016 21.7875370752902  24.06376171875 21.3436983154297  Z M 21.0445172363281 5.01741335449219  C 21.0724102518945 4.99441805956192  21.0930137282398 4.9638071779967  21.1038177734375 4.92930969238281  C 21.1092267797566 4.89393410473485  21.1032956518221 4.85775423800891  21.0868747558594 4.82595732421875  C 21.0543989996089 4.7638704372983  20.9870561889378 4.72817874968038  20.9174446533203 4.736159375  L 19.7314339111328 4.93778120117187  L 19.1858689697266 3.853428515625  C 19.1575534577356 3.78748417105333  19.0866853353812 3.7506327539646  19.0164388671875 3.76532487792969  C 18.9477671045856 3.78115066853352  18.8979535383666 3.84065020623868  18.8944491943359 3.911034765625  L 18.7114646728516 5.08349108886719  L 17.5068166259766 5.32069323730469  C 17.4315370904429 5.3317052322138  17.3705084260431 5.38736873516218  17.3526352294922 5.46132021484375  C 17.3439193120966 5.53552583780847  17.382498971232 5.60727048162153  17.4492103759766 5.64091613769531  L 18.5352573730469 6.23392150878906  L 18.3438013427734 7.39621203613281  C 18.3275962802471 7.46219908732305  18.356499208407 7.53101558152526  18.4149619873047 7.56564213867188  C 18.4726185344056 7.59384393600387  18.5420175148936 7.57996413390623  18.5843920898437 7.53175610351563  L 19.4400141357422 6.65919106445313  L 20.5142010009766 7.20475600585938  C 20.5792437273985 7.23565297085141  20.6567102247858 7.22206236122573  20.7073513183594 7.17086999511719  C 20.7335424119612 7.1455933787285  20.750285111097 7.1121079804569  20.7547917480469 7.07598913574219  C 20.7598602839561 7.04078851884361  20.754561384647 7.00487374743365  20.7395430419922 6.97263676757813  L 20.1973666992188 5.88997839355469  L 21.0445172363281 5.01741335449219  Z M 10.5008817626953 1.06969189453125  C 10.5203271555684 1.04723223416254  10.5327051368778 1.01952913192347  10.5364620849609 0.990059741210938  C 10.5406165728986 0.959998556083174  10.5359057765602 0.929378401096263  10.5229076660156 0.901956079101563  C 10.4956041881585 0.847168101442993  10.435995503063 0.816336016476948  10.3755034912109 0.825712524414063  L 9.37078295898438 0.995142651367187  L 8.90823876953125 0.0768314697265625  C 8.884658759489 0.0220663656926634  8.82617223189973 -0.00893853597286057  8.76761176757812 0.0022822265625  C 8.70909684279953 0.0152986523617262  8.66667181620723 0.0660695989678709  8.66425942382812 0.1259662109375  L 8.50838371582031 1.11882661132812  L 7.49180307617188 1.31875415039062  C 7.42911518175733 1.33105126385655  7.37867312213782 1.3775627679818  7.36134189453125 1.43904951171875  C 7.35455220067897 1.50220930430153  7.38762863898162 1.56296195164011  7.44436264648438 1.59153662109375  L 8.36436811523438 2.09982692871094  L 8.19493801269531 3.08421584472656  C 8.17914097744294 3.14373626360403  8.20654724559106 3.20627875790861  8.26101577148438 3.23500864257812  C 8.31164763314143 3.26156655819379  8.37397730164467 3.24881731013771  8.4101142578125 3.20451123046875  L 9.13696940917969 2.46579594726562  L 10.0451147705078 2.92834013671875  C 10.1016680528788 2.95777102971207  10.1708939855627 2.94600262803865  10.2145448730469 2.89953703613281  C 10.2343720772691 2.87692217459676  10.2478221872847 2.84943716350982  10.2535137939453 2.8199048828125  C 10.2593353656974 2.78985349429876  10.2545445438687 2.75871311789572  10.2399593994141 2.73180122070312  L 9.78588671875 1.80840715332031  L 10.5008817626953 1.06969189453125  Z M 1.8921380859375 7.15392697753906  L 1.89552668457031 7.15392697753906  C 1.88117326931788 7.13567264051506  1.86170870935433 7.12210642819233  1.83961477050781 7.11495805664063  C 1.79481774816991 7.10268359532186  1.74727756487605 7.12128626926642  1.72270798339844 7.16070417480469  L 1.29743842773438 7.8197873046875  L 0.560417456054688 7.60969396972656  C 0.517325585547765 7.59536844467116  0.470074202474869 7.61299955593796  0.446899291992188 7.65205148925781  C 0.424615921859686 7.69164611909755  0.430803901270536 7.74114996429167  0.462147998046875 7.77404116210937  L 0.921303588867188 8.37382373046875  L 0.504505517578125 9.05154416503906  C 0.47754475546132 9.09270350179767  0.477544755461321 9.14592892007733  0.504505517578125 9.18708825683594  C 0.535044300707376 9.22371950978332  0.585931839270542 9.23609755515131  0.629883813476563 9.21758566894531  L 1.37707058105469 8.95496899414062  L 1.82267175292969 9.55983447265625  C 1.84607863057242 9.59761698543567  1.89193121161242 9.61498539341192  1.93449562988281 9.60219201660156  C 1.97341192150269 9.58588808133867  1.99688604052609 9.54584398014516  1.99210185546875 9.50392253417969  L 1.96499304199219 8.7109896484375  L 2.68507099609375 8.43142998046875  C 2.72914849919079 8.41399984587622  2.75712931196726 8.3703224687977  2.75453732910156 8.32299470214844  C 2.75286075291112 8.29972601081373  2.74463755688641 8.2774059133636  2.73081711425781 8.25861127929688  C 2.71689147298023 8.24103049080555  2.69800107392277 8.22804333613711  2.67659948730469 8.22133664550781  L 1.94127282714844 8.0095490234375  L 1.90908110351562 7.2216990234375  C 1.91047272981054 7.19790950773027  1.90456106115442 7.1742628416242  1.8921380859375 7.15392697753906  Z " fill-rule="nonzero" fill="#7b7b7b" stroke="none" transform="matrix(1 0 0 1 1321 267 )" />
  </g>
</svg>