<?xml version="1.0" encoding="utf-8"?>
<svg version="1.1" xmlns:xlink="http://www.w3.org/1999/xlink" width="24px" height="20px" xmlns="http://www.w3.org/2000/svg">
  <g transform="matrix(1 0 0 1 -1320 -325 )">
    <path d="M 0.318840572690217 1.84210526315789  C 0.318840572690217 0.840887293672882  1.12343029920344 0.0292397625411171  2.11594202547554 0  L 21.8840579745245 0  C 22.8765697007966 0.0292397625411171  23.6811594273098 0.840887293672882  23.6811594273098 1.84210526315789  L 23.6811594273098 18.1578947368421  C 23.6811594273098 19.1591127063271  22.8765697007966 19.9707602374589  21.8840579745245 20  L 2.11594202547554 20  C 1.12343029920344 19.9707602374589  0.318840572690217 19.1591127063271  0.318840572690217 18.1578947368421  L 0.318840572690217 1.84210526315789  Z M 5.7101449310462 14.5321637356086  L 5.7101449310462 10.906432734375  L 9.30434783661685 10.906432734375  L 9.30434783661685 14.5321637356086  L 5.7101449310462 14.5321637356086  Z M 11.1014492894022 16.3450292362253  L 11.1014492894022 9.093567265625  L 3.91304347826087 9.093567265625  L 3.91304347826087 16.3450292362253  L 11.1014492894022 16.3450292362253  Z M 10.4661739025136 6.37426899876645  L 11.7367246447011 7.65596492290296  L 15.0676521633832 4.29581870990954  L 13.7971014527853 3.0141228176398  L 10.4661739025136 6.37426899876645  Z M 15.8574782608696 6.37426899876645  L 17.1280289714674 7.65596492290296  L 20.4589565217391 4.29581870990954  L 19.1884058111413 3.0141228176398  L 15.8574782608696 6.37426899876645  Z " fill-rule="nonzero" fill="#7b7b7b" stroke="none" transform="matrix(1 0 0 1 1320 325 )" />
  </g>
</svg>