<?xml version="1.0" encoding="utf-8"?>
<svg version="1.1" xmlns:xlink="http://www.w3.org/1999/xlink" width="11px" height="12px" xmlns="http://www.w3.org/2000/svg">
  <g transform="matrix(1 0 0 1 -1233 -807 )">
    <path d="M 10.6316571428571 6.00476  C 10.6305522540355 4.95078182512115  9.79147174963958 4.09674956244953  8.75631428571429 4.096  L 1.87738571428571 4.096  C 1.32220673199855 4.09525079669979  0.872328681812706 3.63719314560148  0.871592857142857 3.07192  L 0.871592857142857 3.02636  C 0.87196123661095 2.46055611468403  1.32235332692182 2.0019750772766  1.87805357142857 2.0016  L 2.75828928571429 2.0016  C 2.92834861308754 2.38394448521616  3.30243126257247 2.6295759367959  3.71466071428571 2.6295759367959  C 4.12689016599896 2.6295759367959  4.50097281548389 2.38394448521616  4.67103214285714 2.0016  L 8.75631428571429 2.0016  C 8.9960650405069 2.0016  9.19042142857143 1.80370985942521  9.19042142857143 1.5596  C 9.19042142857143 1.31549014057479  8.9960650405069 1.1176  8.75631428571429 1.1176  L 4.67103214285714 1.1176  C 4.50097281548389 0.735255514783844  4.12689016599896 0.489624063204103  3.71466071428571 0.489624063204103  C 3.30243126257246 0.489624063204103  2.92834861308754 0.735255514783844  2.75828928571429 1.1176  L 1.87805357142857 1.1176  C 0.843156912300686 1.11872436122516  0.00448285477470886 1.97264703797888  0.00337857142857123 3.02636  L 0.00337857142857123 3.07192  C 0.00485077562034213 4.12536739582569  0.843417277352312 4.97887638838426  1.87805357142857 4.98  L 8.75698214285714 4.98  C 9.31268238736389 4.9803750772766  9.76307447767477 5.43895611468404  9.76344285714286 6.00476  L 9.76344285714286 6.05032  C 9.76307447767477 6.61612388531597  9.31268238736389 7.0747049227234  8.75698214285714 7.07508  L 8.30617857142857 7.07508  C 8.13611924405532 6.69273551478384  7.76203659457039 6.4471040632041  7.34980714285714 6.4471040632041  C 6.9375776911439 6.4471040632041  6.56349504165896 6.69273551478384  6.39343571428571 7.07508  L 1.87805357142857 7.07508  C 0.843156912300687 7.07620436122516  0.00448285477470921 7.93012703797888  0.00337857142857123 8.98384  L 0.00337857142857123 9.0294  C 0.00448285477471025 10.0831129620211  0.843156912300687 10.9370356387748  1.87805357142857 10.93816  L 2.75828928571429 10.93816  C 2.92834861308754 11.3205044852162  3.30243126257246 11.5661359367959  3.71466071428571 11.5661359367959  C 4.12689016599896 11.5661359367959  4.50097281548389 11.3205044852162  4.67103214285714 10.93816  L 8.75631428571429 10.93816  C 8.9960650405069 10.93816  9.19042142857143 10.7402698594252  9.19042142857143 10.49616  C 9.19042142857143 10.2520501405748  8.9960650405069 10.05416  8.75631428571429 10.05416  L 4.67103214285714 10.05416  C 4.50097281548389 9.67181551478384  4.12689016599896 9.4261840632041  3.71466071428571 9.4261840632041  C 3.30243126257246 9.4261840632041  2.92834861308754 9.67181551478384  2.75828928571429 10.05416  L 1.87805357142857 10.05416  C 1.32235332692182 10.0537849227234  0.87196123661095 9.59520388531596  0.871592857142857 9.0294  L 0.871592857142857 8.98384  C 0.871961236610949 8.41803611468403  1.32235332692182 7.9594550772766  1.87805357142857 7.95908  L 6.39410357142857 7.95907999999999  C 6.56416289880182 8.34142448521615  6.93824554828675 8.58705593679589  7.350475 8.58705593679589  C 7.76270445171325 8.58705593679589  8.13678710119818 8.34142448521615  8.30684642857143 7.95908  L 8.75698214285714 7.95908  C 9.79187880198503 7.95795563877484  10.630552859511 7.10403296202112  10.6316571428571 6.05032  L 10.6316571428571 6.00476  Z " fill-rule="nonzero" fill="#555555" stroke="none" transform="matrix(1 0 0 1 1233 807 )" />
  </g>
</svg>