<?xml version="1.0" encoding="utf-8"?>
<svg version="1.1" xmlns:xlink="http://www.w3.org/1999/xlink" width="18px" height="18px" xmlns="http://www.w3.org/2000/svg">
  <g transform="matrix(1 0 0 1 -1332 -826 )">
    <path d="M 0.5625 9  C 0.5625 4.34025  4.34025 0.5625  9 0.5625  C 13.65975 0.5625  17.4375 4.34025  17.4375 9  C 17.4375 13.65975  13.65975 17.4375  9 17.4375  C 4.34025 17.4375  0.5625 13.65975  0.5625 9  Z M 11.244375 9.0106875  C 11.2434684410999 8.92931150584773  11.2034914341495 8.85333426227173  11.1369375 8.8065  L 7.2264375 5.162625  C 7.17258016660184 5.11328114751099  7.10204204553045 5.08615110094507  7.029 5.0866875  C 6.874875 5.0866875  6.75 5.203125  6.75 5.3465625  C 6.75 5.418  6.7809375 5.48325  6.832125 5.5305  L 10.5688125 9.012375  L 6.832125 12.49425  C 6.78045562608709 12.5413057848835  6.75070148807907 12.607743106737  6.75 12.677625  C 6.75 12.821625  6.874875 12.9375  7.029 12.9375  C 7.1055 12.9375  7.17525 12.90825  7.225875 12.861  L 11.17125 9.1845  C 11.21625 9.1395  11.244375 9.077625  11.244375 9.010125  Z " fill-rule="nonzero" fill="#000000" stroke="none" transform="matrix(1 0 0 1 1332 826 )" />
  </g>
</svg>