<?xml version="1.0" encoding="utf-8"?>
<svg version="1.1" xmlns:xlink="http://www.w3.org/1999/xlink" width="10px" height="12px" xmlns="http://www.w3.org/2000/svg">
  <g transform="matrix(1 0 0 1 -1233 -829 )">
    <path d="M 9.57455079622396 6.46228775390625  L 9.5758781796875 6.46069489453125  L 9.5758781796875 1.10653613671875  C 9.57717139434711 0.949390847159441  9.50034173973311 0.803097796403043  9.37358517447917 0.72134553515625  C 9.24706705914254 0.641227825708473  9.09053556434494 0.635600549962764  8.95917656184896 0.70644762890625  C 8.43497388936768 1.01911279489447  7.83978000068268 1.17344746132416  7.23844718684896 1.15263533203125  C 6.31290805208334 1.15263533203125  5.8788541796875 0.91023978515625  5.37595343945313 0.62914715625  C 4.69405459064882 0.202460763460223  3.91344988276307 -0.0148437068326914  3.12152806770833 0.00156099609375  C 2.52743492138719 -0.0147420789443387  1.93706236314181 0.105483052011038  1.3910645546875 0.3539574609375  L 1.27726368815104 0.40605329296875  L 1.23372555924479 0.29005573828125  C 1.17109659120462 0.117815282531091  1.01477650177353 0.00418053680511016  0.840465234021357 0.00418053680511016  C 0.608145836487578 0.00418053680511016  0.419650416726709 0.203263398218216  0.419067065104167 0.4492478671875  L 0.419067065104167 11.5472534648438  C 0.419067065104167 11.7936761288417  0.60773404650192 11.9934411679688  0.8404665625 11.9934411679688  C 1.07319907849808 11.9934411679688  1.26186605989583 11.7936761288417  1.26186605989583 11.5472534648438  L 1.26186605989583 6.7729888125  L 1.32646530729167 6.73729004296875  C 1.87075594335656 6.40256001021695  2.49242857305432 6.23519285218114  3.12161655403646 6.2539981171875  C 4.04591680273438 6.2539981171875  4.47997067513021 6.4963936640625  4.98278292903646 6.77598713671875  C 5.66544399169386 7.20322070006784  6.44722832678216 7.42009375564996  7.24004005143229 7.4021678203125  C 7.97545126497692 7.42262225318144  8.7027294613635 7.23523361643855  9.34703753841146 6.85928424609375  C 9.48710363983164 6.78250370544465  9.57490863571412 6.62928944577013  9.57455079622396 6.46228775390625  Z M 8.73307917382813 6.18559890234375  L 8.66140055533854 6.21979850390625  C 8.21410675067986 6.42807539495932  7.72831321360981 6.52721555538303  7.23995155403646 6.50988610546875  C 6.31432393294271 6.50988610546875  5.88027004947917 6.2673968671875  5.37736930924479 5.9863042265625  C 4.69478911450868 5.56033631436742  3.91366909043283 5.34403064502602  3.12152806770834 5.36162269921875  C 2.54396030907835 5.34776229556397  1.96997886009341 5.4611940015826  1.43601856445313 5.69471746875  L 1.26885693359375 5.7691133203125  L 1.26885693359375 1.414426265625  L 1.33345618098959 1.3787275078125  C 1.87572615985575 1.04544425383747  2.49473446725344 0.878102145171634  3.12152806770834 0.89534187890625  C 4.04582831640625 0.89534187890625  4.47988218880209 1.13773742578125  4.98269443164063 1.41742458984375  C 5.6654538780465 1.8443985463493  6.44717553199527 2.06122176697077  7.23995155403646 2.04351158203125  C 7.69198910916903 2.05105226164378  8.14245791535986 1.98536068557986  8.57574017838542 1.84871438671875  L 8.73166330403646 1.7966185546875  L 8.73166330403646 6.1855052109375  L 8.73307917382813 6.1855052109375  Z " fill-rule="nonzero" fill="#555555" stroke="none" transform="matrix(1 0 0 1 1233 829 )" />
  </g>
</svg>