<?xml version="1.0" encoding="utf-8"?>
<svg version="1.1" xmlns:xlink="http://www.w3.org/1999/xlink" width="12px" height="12px" xmlns="http://www.w3.org/2000/svg">
  <g transform="matrix(1 0 0 1 -1179 -467 )">
    <path d="M 1185 468  C 1187.8 468  1190 470.2  1190 473  C 1190 475.8  1187.8 478  1185 478  C 1182.2 478  1180 475.8  1180 473  C 1180 470.2  1182.2 468  1185 468  Z " fill-rule="nonzero" fill="#44474d" stroke="none" />
    <path d="M 1185 468  C 1187.8 468  1190 470.2  1190 473  C 1190 475.8  1187.8 478  1185 478  C 1182.2 478  1180 475.8  1180 473  C 1180 470.2  1182.2 468  1185 468  Z " stroke-width="2" stroke="#ffffff" fill="none" />
  </g>
</svg>