<?xml version="1.0" encoding="utf-8"?>
<svg version="1.1" xmlns:xlink="http://www.w3.org/1999/xlink" width="23px" height="25px" xmlns="http://www.w3.org/2000/svg">
  <g transform="matrix(1 0 0 1 -1321 -382 )">
    <path d="M 21.6523324707031 13.1332839428237  C 21.75886796875 12.5140470574367  22.77442265625 11.9615194733484  22.77442265625 11.3108125930608  C 22.77442265625 10.6601057127731  21.75886796875 10.1079063269247  21.6523324707031 9.4881783526739  C 21.5422503417969 8.85123961193994  22.3094367431641 7.9799152282877  22.096848828125 7.38559213667453  C 21.8802320068359 6.78094272677305  20.7400891601563 6.61506953455517  20.4270906005859 6.06549265845438  C 20.1115122558594 5.5105070665705  20.5381388427734 4.4234827820589  20.1350437988281 3.93553466529962  C 19.7308205810547 3.44611079171457  18.6038942626953 3.68574142971394  18.1224685546875 3.27466518742566  C 17.6426548583984 2.86457280743529  17.6803698486328 1.69411959283376  17.134796875 1.37319142121416  C 16.5937366699219 1.05488656500621  15.6158969726562 1.67068077463568  15.0213270996094 1.45055519021302  C 14.4367504638672 1.23419967412379  14.0778169921875 0.121277782368527  13.4513351806641 0.00965776360541312  C 12.8424213867187 -0.0988478020541336  12.1319679443359 0.820664618375866  11.4922695800781 0.820664618375866  C 10.8525712402344 0.820664618375866  10.1422798828125 -0.0988478020541336  9.53320400390625 0.00982148430741144  C 8.90672219238281 0.121277782368527  8.54795 1.23419967412379  7.96353464355469 1.45055519021302  C 7.36864301757813 1.67068077463568  6.39096379394531 1.05488656500621  5.85022614746094 1.37319142121416  C 5.30433142089844 1.69411959283376  5.34204560546875 2.86457280743529  4.86190935058594 3.27450149113772  C 4.38064489746094 3.68574142971394  3.25371940917969 3.44611079171457  2.84965666503906 3.93553466529962  C 2.44623903808594 4.4234827820589  2.87302690429688 5.5105070665705  2.55712680664063 6.06549265845438  C 2.24445 6.61506953455517  1.10446926269531 6.78077903048511  0.887851635742188 7.38559213667453  C 0.67510244140625 7.9799152282877  1.44212756347656 8.85123961193994  1.33220749511719 9.4881783526739  C 1.22550993652344 10.1075789343489  0.210116528320313 10.6601057127731  0.210116528320313 11.3108125930608  C 0.210116528320313 11.9615194733484  1.22550993652344 12.5140470574367  1.33220749511719 13.1332839428237  C 1.44212756347656 13.7703863798456  0.67510244140625 14.6417107634979  0.887851635742188 15.236033855111  C 1.10446926269531 15.8406832650125  2.24445 16.0062282589905  2.55712680664063 16.5561325276671  C 2.87302690429688 17.1112826459171  2.44623903808594 18.1978158171508  2.84965666503906 18.686091326486  C 3.25371940917969 19.175514394407  4.38064489746094 18.9360482583596  4.86190935058594 19.3471245006479  C 5.34204560546875 19.7570532087644  5.30433142089844 20.9271782007119  5.85006486816406 21.2485982912734  C 6.3906412109375 21.5669031474814  7.36864301757813 20.9506169944959  7.96321208496094 21.1712344978605  C 8.54762741699219 21.3872626213739  8.90672219238281 22.5001845131291  9.53320400390625 22.6116400055262  C 10.1422798828125 22.7203100975518  10.8525712402344 21.8006331507557  11.4922695800781 21.8006331507557  C 12.1319679443359 21.8006331507557  12.8424213867187 22.7203100975518  13.4513351806641 22.6119682281802  C 14.0778169921875 22.5001845131291  14.4367504638672 21.3875900383638  15.0211658203125 21.1712344978605  C 15.6155743896484 20.9509444114858  16.5937366699219 21.5669031474814  17.1344743164062 21.2485982912734  C 17.6803698486328 20.9275063989518  17.6426548583984 19.7570532087644  18.1224685546875 19.3471245006479  C 18.6038942626953 18.9360482583596  19.7306593017578 19.1758425926469  20.1350437988281 18.686091326486  C 20.5381388427734 18.1981432097267  20.1115122558594 17.1112826459171  20.4270906005859 16.5562970540332  C 20.7400891601563 16.0062282589905  21.8802320068359 15.8410106820025  22.096848828125 15.236033855111  C 22.3094367431641 14.6417107634979  21.5422503417969 13.7708782987876  21.6523324707031 13.1332839428237  Z M 12.3214299316406 15.5669278713886  C 13.2208623291016 13.4163575981023  13.8907420166016 11.7627924239347  14.3310883544922 10.6061831545504  C 14.7714354736328 9.44957307950208  14.9916062255859 8.7267030649454  14.9916062255859 8.43755135795089  C 14.9916062255859 8.25683102228049  14.9307080810547 8.10773876256431  14.80891015625 7.99027055048207  C 14.6871114257813 7.87280236281388  14.3919897216797 7.77792619159179  13.9235353759766 7.70563805732363  C 13.6799395507813 7.68756603596363  13.5581432373047 7.5700994352095  13.5581432373047 7.35323505681908  C 13.5581432373047 7.317090989685  13.5675114990234 7.26287568244091  13.5862504394531 7.19058754817275  C 13.6049885986328 7.11829943831865  13.6237259277344 7.05504892605861  13.6424640625 7.00083283756452  C 14.3732531982422 7.05504892605861  15.1508755859375 7.08215617684863  15.9753554199219 7.08215617684863  C 16.4063334960938 7.08215617684863  16.7857751953125 7.07763857434065  17.1136934814453 7.06860253924659  C 17.4416117675781 7.05956652856658  17.7554716064453 7.0369769046986  18.0552818603516 7.00083283756452  C 18.1114962890625 7.14540908168678  18.139603515625 7.26287487677685  18.139603515625 7.35323505681908  C 18.139603515625 7.46166723380726  18.1068117675781 7.53847216491933  18.0412282714844 7.58365224273342  C 17.9756447753906 7.6288323205475  17.8866402099609 7.68756523029957  17.774210546875 7.75985336456773  C 17.4369239990234 7.95864572159813  17.1090105712891 8.1393636158623  16.7904613525391 8.30201190575863  C 16.4719129394531 8.4646593899909  16.2376894042969 8.72669984228918  16.0877834716797 9.08814048921591  L 12.0122513916016 18.7927671314159  C 11.8998225585937 18.82891119855  11.7592881103516 18.84698321991  11.5906448242187 18.84698321991  C 11.3845244628906 18.84698321991  11.2393062988281 18.7611422781179  11.1549846435547 18.5894579775416  C 11.0706622070313 18.4177736525512  10.9348131103516 18.124108371369  10.7474308837891 17.7084516115341  L 6.89675571289062 9.08814048921591  C 6.78432685546875 8.81705999791734  6.68126789550781 8.60471725035519  6.58757717285156 8.45110497113886  C 6.49388647460937 8.29749269192254  6.3908283203125 8.17550848866044  6.27839946289063 8.08514833303227  C 6.16596979980469 7.9947881774041  6.02543615722656 7.92701925697203  5.85679208984375 7.88183917915794  C 5.68814880371094 7.83665910134386  5.47266259765625 7.79599743170181  5.21032861328125 7.75985336456773  C 4.96673198242188 7.74178131879366  4.84493566894531 7.60624350234358  4.84493566894531 7.35323505681908  C 4.84493566894531 7.26287487677685  4.87304287109375 7.14540908168678  4.92925729980469 7.00083283756452  C 5.39771164550781 7.0369769046986  5.83805231933594 7.05956652856658  6.25029226074219 7.06860253924659  C 6.66253217773438 7.07763857434065  7.14034831542969 7.08215617684863  7.68375522460938 7.08215617684863  C 8.2833765625 7.08215617684863  8.81272180175781 7.07763857434065  9.27180708007813 7.06860253924659  C 9.73089235839844 7.05956652856658  10.2040239746094 7.0369769046986  10.6912164550781 7.00083283756452  C 10.7474316894531 7.1092650145527  10.7755380859375 7.22673080964277  10.7755380859375 7.35323505681908  C 10.7755380859375 7.5700994352095  10.653741796875 7.68756603596363  10.4101459472656 7.70563805732363  C 9.96042973632813 7.77792619159179  9.66530805664063 7.85473112270387  9.52477119140625 7.93605526765203  C 9.38423513183594 8.0173794126002  9.31396789550781 8.13032760518229  9.31396789550781 8.27490387371862  C 9.31396789550781 8.36526402934678  9.37018151855469 8.58664278758894  9.48261037597656 8.93904742383568  C 9.59504001464844 9.29145125441835  9.77304995117187 9.74776323858283  10.0166457763672 10.30799624254  L 12.3214299316406 15.5669278713886  Z M 0.491929760742188 20.8436355743337  C 0.0131950927734374 21.3235540768904  0.160226098632813 21.8466873984857  0.812866796875 22.0102154979463  L 1.50946423339844 22.1847577819014  C 2.16544755859375 22.3491237719812  2.83097900390625 23.0188139529194  2.99410388183594 23.6730674884561  L 3.16821555175781 24.3713874299395  C 3.33217670898437 25.0289925035391  3.85008598632813 25.1761420630733  4.33191977539062 24.6931171884677  L 6.65124702148437 22.3680570726321  C 6.6244228515625 22.3538252367926  6.59713334960938 22.341454655823  6.5693212890625 22.3311581959329  C 5.98775988769531 22.115629242338  5.03073891601563 22.7182754784252  4.50168881835938 22.4068494551777  C 3.96759211425781 22.092697675113  4.004491796875 20.9475420921733  3.53504797363281 20.546472807824  C 3.06402756347656 20.1442817705527  1.96161584472656 20.3788932191335  1.56597138671875 19.8997271091497  C 1.54570668945313 19.8751972020919  1.52758625488281 19.8491197608652  1.51139965820312 19.8216463967964  L 0.491929760742188 20.8436355743337  Z M 21.4867020263672 19.8278937844487  L 22.507258984375 20.8509732451816  C 22.9877008544922 21.3326021969453  22.8401448486328 21.8575999716528  22.1851792236328 22.0217103220859  L 21.486099609375 22.1968743589664  C 20.8277784423828 22.3618257982609  20.1598753173828 23.0339030153156  19.9961689941406 23.6904879229065  L 19.8214371826172 24.3912957061697  C 19.6568921875 25.0512442367844  19.1371377685547 25.198917990651  18.6535863037109 24.7141722176197  L 16.3274778076172 22.3823139084715  C 16.3553205078125 22.367399015996  16.3836632080078 22.3544808764365  16.4125663574219 22.3437965259241  C 16.9963583251953 22.1271780947976  17.956631640625 22.7322936179771  18.4874090820313 22.4197579267685  C 19.0232500976563 22.1041642765966  18.9862197753906 20.9552499290343  19.4576522460938 20.5527524464526  C 19.9301927734375 20.1491275957146  21.0366906738281 20.384253521831  21.4334286376953 19.903701987052  C 21.4531425537109 19.8798414159272  21.4708363769531 19.8545268653201  21.4867020263672 19.8278937844487  Z " fill-rule="nonzero" fill="#7b7b7b" stroke="none" transform="matrix(1 0 0 1 1321 382 )" />
  </g>
</svg>