<?xml version="1.0" encoding="utf-8"?>
<svg version="1.1" xmlns:xlink="http://www.w3.org/1999/xlink" width="12px" height="21px" xmlns="http://www.w3.org/2000/svg">
  <g transform="matrix(1 0 0 1 -2522 -768 )">
    <path d="M 2.1554443359375 19.8414794921875  C 2.002880859375 19.99404296875  1.8029296875 20.0703125  1.6030029296875 20.0703125  C 1.403076171875 20.0703125  1.203125 19.99404296875  1.0505615234375 19.84150390625  C 0.745483398437498 19.5364013671875  0.745483398437498 19.0417236328125  1.0505615234375 18.73662109375  L 9.28720703125 10.5  L 1.0505615234375 2.2633544921875  C 0.745483398437502 1.958251953125  0.745483398437502 1.4635986328125  1.0505615234375 1.15849609375  C 1.3556884765625 0.8533935546875  1.8503173828125 0.8533935546875  2.1554443359375 1.15849609375  L 10.9445068359375 9.94755859375  C 11.2495849609375 10.2526611328125  11.2495849609375 10.747314453125  10.9445068359375 11.0524169921875  L 2.1554443359375 19.8414794921875  Z " fill-rule="nonzero" fill="#ffffff" stroke="none" transform="matrix(1 0 0 1 2522 768 )" />
  </g>
</svg>