<?xml version="1.0" encoding="utf-8"?>
<svg version="1.1" xmlns:xlink="http://www.w3.org/1999/xlink" width="38px" height="42px" xmlns="http://www.w3.org/2000/svg">
  <g transform="matrix(1 0 0 1 -2569 -648 )">
    <path d="M 32.7214511640625 8.581816703125  C 32.728170890625 4.245350171875  29.238390453125 0.721971101562501  24.928802828125 0.721971101562501  C 20.6124954765625 0.721971101562501  17.1294348203125 4.245350171875  17.1294348203125 8.5840566484375  C 17.1294348203125 12.9294828515625  24.928802828125 22.74925003125  24.928802828125 22.74925003125  C 24.928802828125 22.74925003125  32.721451109375 12.93844246875  32.7214511640625 8.581816703125  Z M 25.159513640625 13.5006599921875  L 25.16175353125 13.5006599921875  C 22.3404502318228 13.4895843437257  20.0591884814287 11.1993494185835  20.0591884814287 8.37802437928937  C 20.0591884814287 8.3705448197021  20.0592048626584 8.3630652690833  20.059237625 8.35558578125  C 20.0591904679601 8.3466182864187  20.0591668893179 8.33765068309691  20.0591668893179 8.32868306427496  C 20.0591668893179 5.50931256451581  22.3401562628052 3.22135332037848  25.159513640625 3.212751515625  C 27.9779928362147 3.22258466904882  30.2576204851407 5.51017939144289  30.2576204851407 8.32867574000861  C 30.2576204851407 8.33764580029037  30.2575968936581 8.34661584506019  30.2575497109375 8.35558578125  C 30.2699493514461 11.1839014975945  27.9878239523132 13.4870834239798  25.159513640625 13.5006599921875  Z M 15.4696612109375 4.303587875  L 15.4674213203125 5  L 4.590416359375 5  C 2.5274588828125 4.305827765625  0.8408063671875 6.0059197890625  1 8.0867965546875  L 1 20.39734409375  L 9.7847686015625 24.63077478125  L 15.064237453125 10.559657625  C 14.8346718409314 9.8319132442381  14.7072736059067 9.07581611827357  14.685692546875 8.3130274765625  C 14.6776881610937 6.93770241840951  14.9442152097033 5.57460698798071  15.4696612109375 4.303587875  Z M 34.672413125 4.4715811484375  L 34.674653015625 4.4715811484375  C 35.1605467317268 5.69783352700881  35.409101887624 7.00521846950818  35.407103703125 8.3242270390625  C 35.407103703125 14.067357296875  25.06319746875 27.0207591875  25.06319746875 27.0207591875  C 25.06319746875 27.0207591875  20.5699372265625 21.400823953125  17.507979671875 15.9197631953125  L 13.5634974453125 26.39134434375  L 37.38942440625 37.6222550859375  C 37.3983840234375 37.5012998984375  37.4073436953125 37.3893043828125  37 37.266109359375  L 37 8.1002360078125  C 37.411274017775 6.41466872852394  36.2938556620315 4.93209890004735  34.672413125 4.4715811484375  Z M 8.3467461328125 28.5125395234375  L 1 24.98020078125  L 1 37.2593896328125  C 0.8408063671875 39.0065197421875  2.05035796875 40.4960601875  3.66981321875 40.921643125  L 8.3467461328125 28.5125395234375  Z M 8.04435821875 41  L 33.6554937578125 41  C 33.9914803046875 41.0403583671875  34.320747125 40.995560171875  34.6410543828125 40.9104435625  L 12.096356125 30.2865485390625  L 8.04435821875 41  Z " fill-rule="nonzero" fill="#d7d7d7" stroke="none" transform="matrix(1 0 0 1 2569 648 )" />
  </g>
</svg>