<?xml version="1.0" encoding="utf-8"?>
<svg version="1.1" xmlns:xlink="http://www.w3.org/1999/xlink" width="55px" height="55px" xmlns="http://www.w3.org/2000/svg">
  <g transform="matrix(1 0 0 1 -2660 -643 )">
    <path d="M 2687.5 646  C 2701.22 646  2712 656.78  2712 670.5  C 2712 684.22  2701.22 695  2687.5 695  C 2673.78 695  2663 684.22  2663 670.5  C 2663 656.78  2673.78 646  2687.5 646  Z " fill-rule="nonzero" fill="#44474d" stroke="none" />
    <path d="M 2687.5 645  C 2701.78 645  2713 656.22  2713 670.5  C 2713 684.78  2701.78 696  2687.5 696  C 2673.22 696  2662 684.78  2662 670.5  C 2662 656.22  2673.22 645  2687.5 645  Z " stroke-width="4" stroke="#d7d7d7" fill="none" />
  </g>
</svg>