<?xml version="1.0" encoding="utf-8"?>
<svg version="1.1" xmlns:xlink="http://www.w3.org/1999/xlink" width="35px" height="33px" xmlns="http://www.w3.org/2000/svg">
  <g transform="matrix(1 0 0 1 -2470 -654 )">
    <path d="M 34.965 16.4648709677419  C 34.965 9.79035483870968  31.3425 3.83598387096774  25.585 0.86758064516129  C 24.7275 0.340645161290323  23.6775 0.674370967741936  23.1525 1.57016129032258  C 22.82 2.43082258064516  23.1525 3.4846935483871  24.01 4.01162903225806  C 28.56 6.29501612903226  31.5175 11.0198709677419  31.325 16.6405161290323  C 31.325 22.0679516129032  28.525 26.7928064516129  23.8175 29.0761935483871  C 22.96 29.4099193548387  22.5925 30.4637903225806  23.1175 31.3595806451613  C 23.6425 32.2202419354839  24.6925 32.5890967741935  25.55 32.0621612903226  C 31.3075 29.0937580645161  34.965 23.1393870967742  34.965 16.4648709677419  Z M 17.71 4.20483870967742  C 17.745 2.64159677419355  16.17 1.92145161290323  14.945 2.78211290322581  L 6.545 9.45662903225807  L 3.5875 9.45662903225807  C 1.68 9.45662903225807  0.0874999999999996 11.037435483871  0.0874999999999996 12.9695322580645  L 0.0874999999999996 19.9777741935484  C 0.0874999999999996 21.8923064516129  1.6625 23.4906774193548  3.5875 23.4906774193548  L 6.545 23.4906774193548  L 14.91 30.1651935483871  C 15.96 31.0258548387097  17.71 30.1651935483871  17.71 28.7775967741936  L 17.71 4.20483870967742  Z M 21.77 23.8244032258064  C 22.26 24.5269838709677  23.5025 24.7201935483871  24.2025 24.0000483870968  C 26.4775 22.0855161290323  27.7025 19.2751935483871  27.7025 16.2892258064516  C 27.7025 13.2856935483871  26.4775 10.5105  24.2025 8.57840322580645  C 23.5025 8.05146774193548  22.4525 8.05146774193548  21.77 8.7716129032258  C 21.07 9.4741935483871  21.07 10.6861451612903  21.77 11.2130806451613  C 23.345 12.6006774193548  24.2025 14.3571290322581  24.2025 16.4648709677419  C 24.2025 18.5726129032258  23.345 20.329064516129  21.77 21.7166612903226  C 21.07 22.2435967741935  21.07 23.4731129032258  21.77 23.8244032258064  Z " fill-rule="nonzero" fill="#bbbbbb" stroke="none" transform="matrix(1 0 0 1 2470 654 )" />
  </g>
</svg>