<?xml version="1.0" encoding="utf-8"?>
<svg version="1.1" xmlns:xlink="http://www.w3.org/1999/xlink" width="34px" height="34px" xmlns="http://www.w3.org/2000/svg">
  <g transform="matrix(1 0 0 1 -2671 -654 )">
    <path d="M 33.625 21.2490234375  C 31.9142578125 20.5921875  30.693359375 18.94453125  30.693359375 17  C 30.693359375 15.05546875  31.9142578125 13.4078125  33.625 12.7509765625  C 33.216796875 11.1478515625  32.5859375 9.6375  31.762109375 8.249609375  C 30.084765625 8.9955078125  28.05859375 8.6912109375  26.685546875 7.314453125  C 25.3125 5.94140625  25.008203125 3.9115234375  25.7541015625 2.237890625  C 24.3625 1.4140625  22.8521484375 0.783203125  21.2490234375 0.375  C 20.5884765625 2.0857421875  18.9408203125 3.306640625  17 3.306640625  C 15.05546875 3.306640625  13.4078125 2.0857421875  12.7509765625 0.375  C 11.1478515625 0.783203125  9.6375 1.4140625  8.249609375 2.237890625  C 8.9955078125 3.915234375  8.6912109375 5.94140625  7.3181640625 7.314453125  C 5.9451171875 8.6875  3.915234375 8.991796875  2.2416015625 8.249609375  C 1.4140625 9.6375  0.783203125 11.1478515625  0.375 12.7509765625  C 2.0857421875 13.4115234375  3.306640625 15.0591796875  3.306640625 17  C 3.306640625 18.94453125  2.0857421875 20.5921875  0.375 21.2490234375  C 0.783203125 22.8521484375  1.4140625 24.3625  2.237890625 25.750390625  C 3.915234375 25.0044921875  5.94140625 25.3087890625  7.314453125 26.685546875  C 8.6875 28.05859375  8.991796875 30.0884765625  8.2458984375 31.762109375  C 9.6375 32.5859375  11.1478515625 33.216796875  12.7509765625 33.625  C 13.4115234375 31.9142578125  15.0591796875 30.693359375  17 30.693359375  C 18.94453125 30.693359375  20.5921875 31.9142578125  21.2490234375 33.625  C 22.8521484375 33.216796875  24.3625 32.5859375  25.750390625 31.762109375  C 25.0044921875 30.084765625  25.3087890625 28.05859375  26.6818359375 26.685546875  C 28.0548828125 25.3125  30.084765625 25.008203125  31.7583984375 25.750390625  C 32.5859375 24.3625  33.216796875 22.8521484375  33.625 21.2490234375  Z M 21.564453125 17  C 21.564453125 19.5197265625  19.5197265625 21.564453125  17 21.564453125  C 14.4802734375 21.564453125  12.435546875 19.5197265625  12.435546875 17  C 12.435546875 14.4802734375  14.4802734375 12.435546875  17 12.435546875  C 19.5197265625 12.435546875  21.564453125 14.4802734375  21.564453125 17  Z " fill-rule="nonzero" fill="#bbbbbb" stroke="none" transform="matrix(1 0 0 1 2671 654 )" />
  </g>
</svg>