<?xml version="1.0" encoding="utf-8"?>
<svg version="1.1" xmlns:xlink="http://www.w3.org/1999/xlink" width="27px" height="30px" xmlns="http://www.w3.org/2000/svg">
  <g transform="matrix(1 0 0 1 -1746 -1330 )">
    <path d="M 15.5617711146763 15.0348063867187  L 11.4785665375279 15.0348063867187  L 11.4785665375279 17.7963840234375  L 15.5617415721261 17.7963840234375  L 15.5617415721261 15.0348063867187  Z M 15.5617711146763 10.8924549023438  L 11.4785665375279 10.8924549023438  L 11.4785665375279 13.6540325390625  L 15.5617415721261 13.6540325390625  L 15.5617415721261 10.8924549023438  Z M 21.0060241988002 19.1771579003906  L 16.9228196216518 19.1771579003906  L 16.9228196216518 21.9387355371094  L 21.00599465625 21.9387355371094  L 21.00599465625 19.1771579003906  Z M 21.0060241988002 15.0348063867187  L 16.9228196216518 15.0348063867187  L 16.9228196216518 17.7963840234375  L 21.00599465625 17.7963840234375  L 21.00599465625 15.0348063867187  Z M 16.9228491353237 6.59666745117188  C 16.9228196216518 7.44392302734375  17.5321693451451 8.130877265625  18.2838976711775 8.130877265625  C 19.0354782555804 8.130877265625  19.6449461781529 7.44392302734375  19.6449461781529 6.59669745117188  L 19.6449461492746 2.76112795898437  C 19.6449461492746 1.91345267578125  19.0354486841518 1.22694814453125  18.2838976422991 1.22694814453125  C 17.5321693162667 1.22694814453125  16.9228491353237 1.91360258789062  16.9228491353237 2.76112795898437  L 16.9228491353237 6.59666745117188  Z M 21.0060241988002 10.8924549023438  L 16.9228196216518 10.8924549023438  L 16.9228196216518 13.6540325390625  L 21.00599465625 13.6540325390625  L 21.00599465625 10.8924549023438  Z M 10.1175180305525 17.7963840234375  L 10.1175180305525 15.0348063867187  L 6.03434299595424 15.0348063867187  L 6.03434299595424 17.7963840234375  L 10.1175180305525 17.7963840234375  Z M 10.1175180305525 13.6540325390625  L 10.1175180305525 10.8924549023438  L 6.03434299595424 10.8924549023438  L 6.03434299595424 13.6540325390625  L 10.1175180305525 13.6540325390625  Z M 26 5.36929962890625  C 26.4502772829241 3.76355830078125  25.3105096100725 2.60772196289063  23.7280029847935 2.60772196289063  L 21.0060241988002 2.60772196289063  L 21.0060241988002 5.36929959960937  L 22.3670727057757 5.36929959960937  C 23.1582521476004 5.36929959960937  23.7280029847935 5.94730772460937  23.7280029847935 6.75007344726562  L 23.7280029847935 24.7003131738281  C 23.7280029847935 25.502958984375  23.1582521187221 26.0810870214844  22.3670727057757 26  L 4.67326494642857 26  C 3.88208550460379 26.0810870214844  3.31206869782366 25.502958984375  3.31206869782366 24.7003131738281  L 3.31206869782366 6.75007344726563  C 3.31206869782366 5.94727775390625  3.88208550460379 5.36929959960938  4.67326494642857 5.36929959960938  L 6.03431345340402 5.36929959960938  L 6.03431345340402 2.60772196289063  L 3.31203915527344 2.60772196289063  C 1.72968027162388 2.60772196289063  0.590060369280134 3.76370821289062  1 5.36929959960937  L 1 25.9358654589844  C 0.590060369280134 27.5415767871094  1.87300452455357 28.8426946289062  3.45536340820312 28.8426946289062  L 23.5847969309431 28.8426946289062  C 25.1671558145926 28.8426946289062  26.4502477403739 27.5415767871094  26 25.9358654589844  L 26 5.36929962890625  Z M 6.03434299595424 19.1771579003906  L 6.03434299595424 21.9387355371094  L 10.1175180305525 21.9387355371094  L 10.1175180305525 19.1771579003906  L 6.03434299595424 19.1771579003906  Z M 7.39539147405134 6.59666745117188  C 7.39539150292969 7.44392302734375  8.00488896805246 8.130877265625  8.75643998102679 8.130877265625  C 9.50816830705915 8.130877265625  10.1174884880022 7.44392302734375  10.1174884880022 6.59669745117188  L 10.1174884880022 2.76112795898437  C 10.1174884880022 1.91345267578125  9.50799102287946 1.22694814453125  8.75643998102679 1.22694814453125  C 8.00485939662388 1.22694814453125  7.39539147405134 1.91360258789062  7.39539147405134 2.76112795898437  L 7.39539147405134 6.59666745117188  Z M 15.5617711146763 19.1771579003906  L 11.4785665375279 19.1771579003906  L 11.4785665375279 21.9387355371094  L 15.5617415721261 21.9387355371094  L 15.5617415721261 19.1771579003906  Z M 15.5617711146763 2.60772196289063  L 11.4785665375279 2.60772196289063  L 11.4785665375279 5.36929959960937  L 15.5617415721261 5.36929959960937  L 15.5617415721261 2.60772196289063  Z " fill-rule="nonzero" fill="#717171" stroke="none" transform="matrix(1 0 0 1 1746 1330 )" />
  </g>
</svg>