<?xml version="1.0" encoding="utf-8"?>
<svg version="1.1" xmlns:xlink="http://www.w3.org/1999/xlink" width="43px" height="43px" xmlns="http://www.w3.org/2000/svg">
  <g transform="matrix(1 0 0 1 -505 -149 )">
    <path d="M 526.5 150  C 537.98 150  547 159.02  547 170.5  C 547 181.98  537.98 191  526.5 191  C 515.02 191  506 181.98  506 170.5  C 506 159.02  515.02 150  526.5 150  Z " fill-rule="nonzero" fill="#a6a6a6" stroke="none" />
    <path d="M 526.5 150  C 537.98 150  547 159.02  547 170.5  C 547 181.98  537.98 191  526.5 191  C 515.02 191  506 181.98  506 170.5  C 506 159.02  515.02 150  526.5 150  Z " stroke-width="2" stroke="#ffffff" fill="none" />
  </g>
</svg>