<?xml version="1.0" encoding="utf-8"?>
<svg version="1.1" xmlns:xlink="http://www.w3.org/1999/xlink" width="16px" height="16px" xmlns="http://www.w3.org/2000/svg">
  <g transform="matrix(1 0 0 1 -1334 -755 )">
    <path d="M 10.720625 8.6636328125  C 11.9619921875 7.827421875  12.77841796875 6.4129296875  12.77841796875 4.80556640625  C 12.77841796875 2.20138671875  10.6228515625 0.0794726562499988  7.97736328125 0.0794726562499988  C 5.33181640625 0.0794726562499988  3.20861328125 2.20138671875  3.20861328125 4.77326171875  C 3.20861328125 6.38064453125  4.02541015625 7.79552734375  5.2663671875 8.6312890625  C 2.45767578125 9.7246484375  0.498105468750003 12.363125  0.498105468750003 15.48185546875  L 1.8371875 15.48185546875  C 1.8371875 12.395390625  4.221328125 9.85298828125  7.25869140625 9.49935546875  C 7.29138671875 9.49935546875  8.10783203125 9.43521484375  8.79375 9.49935546875  L 8.8591796875 9.49935546875  C 11.8315234375 9.917578125  14.11748046875 12.4252734375  14.11748046875 15.47943359375  L 15.48935546875 15.47943359375  C 15.456640625 12.3930078125  13.49703125 9.72466796875  10.720625 8.66361328125  Z M 11.56974609375 4.77328125  C 11.56974609375 6.734609375  9.9696875 8.3096875  7.97736328125 8.3096875  C 5.98501953125 8.3096875  4.38498046875 6.73458984375  4.38498046875 4.77328125  C 4.38498046875 2.81197265625  5.98501953125 1.2369140625  7.97736328125 1.2369140625  C 9.9696875 1.2369140625  11.56974609375 2.81197265625  11.56974609375 4.77328125  Z " fill-rule="nonzero" fill="#6f6f6f" stroke="none" transform="matrix(1 0 0 1 1334 755 )" />
  </g>
</svg>