<?xml version="1.0" encoding="utf-8"?>
<svg version="1.1" xmlns:xlink="http://www.w3.org/1999/xlink" width="23px" height="23px" xmlns="http://www.w3.org/2000/svg">
  <g transform="matrix(1 0 0 1 -1568 -1533 )">
    <path d="M 22.5351486206055 11.5  C 22.5351486206055 5.40508270263672  17.5945281982422 0.46485137939453  11.5 0.464851379394531  C 5.40547180175781 0.464851379394531  0.464851379394531 5.40508270263672  0.464851379394531 11.5  C 0.464851379394531 17.5945281982422  5.40547180175781 22.5351486206055  11.5 22.5351486206055  C 17.5945281982422 22.5351486206055  22.5351486206055 17.5945281982422  22.5351486206055 11.5  Z M 17.8902435302734 10.046875  C 17.8902435302734 10.2311248779297  17.7408981323242 10.3804702758789  17.5566482543945 10.3804702758789  L 17.11328125 10.4558639526367  C 17.2570419311523 10.7363357543945  17.3390731811523 11.0570449829102  17.3390731811523 11.4300765991211  L 17.5070495605469 13.3492279052734  C 17.5070495605469 13.4046859741211  17.5023574829102 13.4613342285156  17.4961090087891 13.5187606811523  C 17.5027465820313 13.5531387329102  17.5070495605469 13.5898513793945  17.5070495605469 13.6261749267578  L 17.5070495605469 15.9347686767578  C 17.5070495605469 16.263671875  17.2402420043945 16.5297012329102  16.9121170043945 16.5297012329102  L 16.0043029785156 16.5297012329102  C 15.6757431030273 16.5297012329102  15.4093704223633 16.2633514404297  15.4093704223633 15.9347686767578  L 15.4093704223633 15.1933517456055  L 7.60195922851562 15.1933517456055  L 7.60195922851562 15.9347686767578  C 7.60195922851562 16.263671875  7.33556365966797 16.5297012329102  7.00702667236328 16.5297012329102  L 6.09921264648437 16.5297012329102  C 5.77065277099609 16.5297012329102  5.50428009033203 16.2633514404297  5.50428009033203 15.9347686767578  L 5.50428009033203 13.6261749267578  C 5.50428009033203 13.5894622802734  5.50897216796875 13.5527267456055  5.51522064208984 13.5187606811523  C 5.50826263427734 13.4678802490234  5.50428009033203 13.4090576171875  5.50428009033203 13.3493194580078  L 5.67225646972656 11.4301223754883  C 5.67225646972656 11.0574569702148  5.75389862060547 10.737548828125  5.89685821533203 10.4578552246094  L 5.44374084472656 10.3805160522461  C 5.25949096679687 10.3805160522461  5.11014556884765 10.2311706542969  5.11014556884765 10.0469207763672  L 5.11014556884765 9.75786590576172  C 5.11014556884765 9.57308959960937  5.25935363769531 9.42427062988281  5.44374084472656 9.42427062988281  L 6.64099884033203 9.42427062988281  C 6.7033462524414 9.42507171630859  6.76134490966797 9.44292449951172  6.81076049804687 9.47336578369141  L 7.34801483154297 7.83990478515625  C 7.49605560302734 7.06919097900391  8.05308532714844 6.46997833251953  8.97106170654297 6.46997833251953  L 14.0409774780273 6.46997833251953  C 14.8413772583008 6.46997833251953  15.4921569824219 6.91606903076172  15.6644134521484 7.84068298339844  L 16.2042541503906 9.46645355224609  C 16.2499847412109 9.44015502929688  16.3047561645508 9.42454528808594  16.3631439208984 9.42424774169922  L 17.5573806762695 9.42427062988281  C 17.7417449951172 9.42427062988281  17.8905868530273 9.57308959960938  17.8905868530273 9.75786590576172  L 17.8905868530273 10.0469207763672  Z " fill-rule="nonzero" fill="#6e6e6e" stroke="none" transform="matrix(1 0 0 1 1568 1533 )" />
  </g>
</svg>