<?xml version="1.0" encoding="utf-8"?>
<svg version="1.1" xmlns:xlink="http://www.w3.org/1999/xlink" width="12px" height="15px" xmlns="http://www.w3.org/2000/svg">
  <g transform="matrix(1 0 0 1 -1976 -1531 )">
    <path d="M 6.61333333328125 14.112  C 8.24 12.08  11.27288888875 8.29866666671875  11.2728888889062 6.0657777778125  C 11.2728888889062 2.88711111109375  8.9653333334375 0.58133333328125  5.78844444453125 0.58133333328125  C 2.76444444453125 0.58133333328125  0.304 3.0417777778125  0.304 6.0657777778125  C 0.304 8.29866666671875  3.33688888890625 12.08  4.96711111109375 14.112  L 5.088 14.2613333332813  C 5.25866666671875 14.4746666665625  5.51466666671875 14.5973333332813  5.7902222221875 14.5973333332813  C 6.064 14.5973333332813  6.32 14.4746666665625  6.49244444453125 14.2613333332813  L 6.61333333328125 14.112  Z M 7.78666666671875 5.62844444453125  C 7.78666666671875 6.74666666671875  6.8782222221875 7.65511111125  5.76 7.65511111109375  C 4.6417777778125 7.65511111109375  3.73333333328125 6.7466666665625  3.73333333328125 5.62844444453125  C 3.73333333328125 4.5102222225  4.6417777778125 3.6017777778125  5.76 3.6017777778125  C 6.8782222221875 3.6017777778125  7.78666666671875 4.51022222234375  7.78666666671875 5.62844444453125  Z " fill-rule="nonzero" fill="#4e4d4a" stroke="none" transform="matrix(1 0 0 1 1976 1531 )" />
  </g>
</svg>