<?xml version="1.0" encoding="utf-8"?>
<svg version="1.1" xmlns:xlink="http://www.w3.org/1999/xlink" width="5px" height="5px" xmlns="http://www.w3.org/2000/svg">
  <g transform="matrix(1 0 0 1 -1979 -1534 )">
    <path d="M 2.76 4.65511111109375  C 3.8782222221875 4.6551111109375  4.78666666671875 3.7466666665625  4.78666666671875 2.62844444453125  C 4.78666666671875 1.51022222234375  3.8782222221875 0.6017777778125  2.76 0.6017777778125  C 1.6417777778125 0.6017777778125  0.73333333328125 1.51022222234375  0.73333333328125 2.62844444453125  C 0.73333333328125 3.74666666671875  1.6417777778125 4.65511111125  2.76 4.65511111109375  Z M 2.76 4.17866666671875  C 1.90488888890625 4.17866666671875  1.2097777778125 3.483555555625  1.2097777778125 2.62844444453125  C 1.2097777778125 1.7733333334375  1.90488888890625 1.07822222234375  2.76 1.0782222221875  C 3.61511111109375 1.07822222203125  4.3102222221875 1.77333333328125  4.3102222221875 2.62844444453125  C 4.3102222221875 3.48355555578125  3.61511111109375 4.17866666671875  2.76 4.17866666671875  Z " fill-rule="nonzero" fill="#ffffff" stroke="none" transform="matrix(1 0 0 1 1979 1534 )" />
  </g>
</svg>