<?xml version="1.0" encoding="utf-8"?>
<svg version="1.1" xmlns:xlink="http://www.w3.org/1999/xlink" width="13px" height="16px" xmlns="http://www.w3.org/2000/svg">
  <g transform="matrix(1 0 0 1 -1975 -1531 )">
    <path d="M 12.7493333332812 6.0657777778125  C 12.7493333332812 2.611555555625  10.2426666665625 0.10311111109375  6.78844444453125 0.10311111109375  C 3.5013333334375 0.10311111109375  0.8257777778125 2.77688888890625  0.8257777778125 6.0657777778125  C 0.8257777778125 8.4657777778125  3.928 12.3324444445313  5.5937777778125 14.4106666667188  L 5.71288888890625 14.56  C 5.976 14.8871111110938  6.36711111109375 15.0755555554687  6.78666666671875 15.0755555554687  C 7.20622222234375 15.0755555554687  7.5973333334375 14.8871111109375  7.86044444453125 14.56  L 7.98133333328125 14.4106666667188  C 9.64888888890625 12.3324444445312  12.7493333332812 8.4657777778125  12.7493333332812 6.0657777778125  Z M 7.48711111109375 14.2613333332812  C 7.3182222221875 14.4746666665625  7.0622222221875 14.5973333332812  6.78844444453125 14.5973333332812  C 6.51466666671875 14.5973333332812  6.25866666671875 14.4746666665625  6.0862222221875 14.2613333332812  L 5.96533333328125 14.112  C 4.33511111109375 12.08  1.3022222221875 8.29866666671875  1.3022222221875 6.0657777778125  C 1.3022222221875 3.0417777778125  3.76266666671875 0.581333333281248  6.78666666671875 0.581333333281248  C 9.9653333334375 0.581333333281248  12.27111111125 2.88888888875  12.2711111110937 6.0657777778125  C 12.2711111110937 8.29866666671875  9.2382222221875 12.08  7.608 14.112  L 7.48711111109375 14.2613333332812  Z " fill-rule="nonzero" fill="#ffffff" stroke="none" transform="matrix(1 0 0 1 1975 1531 )" />
  </g>
</svg>