<?xml version="1.0" encoding="utf-8"?>
<svg version="1.1" xmlns:xlink="http://www.w3.org/1999/xlink" width="28px" height="28px" xmlns="http://www.w3.org/2000/svg">
  <g transform="matrix(1 0 0 1 -82 -567 )">
    <path d="M 11.164453125 3.03359375  C 11.164453125 4.62529565791078  12.4547824670892 5.915625  14.046484375 5.915625  C 15.6381862829108 5.915625  16.928515625 4.62529565791078  16.928515625 3.03359375  C 16.928515625 1.44189184208922  15.6381862829108 0.1515625  14.046484375 0.1515625  C 12.4547824670892 0.1515625  11.164453125 1.44189184208922  11.164453125 3.03359375  Z M 3.9427734375 26.9564453125  C 3.9427734375 27.2353515625  3.7169921875 27.4578125  3.44140625 27.4578125  L 0.725390625 27.4578125  C 0.4498046875 27.4578125  0.2240234375 27.23203125  0.2240234375 26.9564453125  L 0.2240234375 19.9240234375  C 0.2240234375 19.6484375  0.4498046875 19.42265625  0.725390625 19.42265625  L 3.44140625 19.42265625  C 3.7169921875 19.42265625  3.9427734375 19.6484375  3.9427734375 19.9240234375  L 3.9427734375 26.9564453125  Z M 27.8158203125 26.9564453125  C 27.8158203125 27.2353515625  27.5900390625 27.4578125  27.314453125 27.4578125  L 24.5984375 27.4578125  C 24.3228515625 27.4578125  24.0970703125 27.23203125  24.0970703125 26.9564453125  L 24.0970703125 19.9240234375  C 24.0970703125 19.6484375  24.3228515625 19.42265625  24.5984375 19.42265625  L 27.314453125 19.42265625  C 27.5900390625 19.42265625  27.8158203125 19.6484375  27.8158203125 19.9240234375  L 27.8158203125 26.9564453125  Z M 22.3140625 26.9498046875  C 22.3140625 27.1025390625  22.187890625 27.225390625  22.03515625 27  L 6.0578125 27  C 5.905078125 27.225390625  5.77890625 27.1025390625  5.77890625 26.946484375  L 5.77890625 20.2361328125  C 5.77890625 20.0833984375  5.9017578125 19.9572265625  6.0578125 20  L 22.03515625 20  C 22.187890625 19.9572265625  22.3140625 20.080078125  22.3140625 20.2361328125  L 22.3140625 26.9498046875  Z " fill-rule="nonzero" fill="#737373" stroke="none" transform="matrix(1 0 0 1 82 567 )" />
  </g>
</svg>