<?xml version="1.0" encoding="utf-8"?>
<svg version="1.1" xmlns:xlink="http://www.w3.org/1999/xlink" width="24px" height="28px" xmlns="http://www.w3.org/2000/svg">
  <g transform="matrix(1 0 0 1 -84 -569 )">
    <path d="M 23.561328125 11.83125  L 23.5115234375 11.83125  C 23.5115234375 5.4994140625  18.3783203125 0.3662109375  12.046484375 0.3662109375  C 5.7146484375 0.3662109375  0.581445312500002 5.4994140625  0.581445312500002 11.83125  L 1 11.83125  L 1 26.845703125  C 0.534960937500003 27.4068359375  0.989843750000002 27.86171875  1.5509765625 27.86171875  L 22.5453125 27.86171875  C 23.1064453125 27.86171875  23.561328125 27.4068359375  23.561328125 26.845703125  L 23.561328125 11.83125  Z M 16.416015625 11.731640625  L 16.4126953125 11.731640625  C 16.4126953125 12.1234375  16.0939453125 12.4388671875  15.70546875 12.4388671875  L 12.7802734375 12.4388671875  L 12.7802734375 14.0724609375  C 12.7802734375 14.255078125  12.630859375 14.4044921875  12.4482421875 14.4044921875  L 11.6513671875 14.4044921875  C 11.46875 14.4044921875  11.3193359375 14.255078125  11.3193359375 14.0724609375  L 11.3193359375 12.4388671875  L 8.394140625 12.4388671875  C 8.00234375 12.4388671875  7.6869140625 12.1201171875  7.6869140625 11.731640625  L 7.6869140625 8.2021484375  C 7.6869140625 7.8103515625  8.0056640625 7.494921875  8.394140625 7.494921875  L 15.7087890625 7.494921875  C 16.1005859375 7.494921875  16.416015625 7.813671875  16.416015625 8.2021484375  L 16.416015625 11.731640625  Z " fill-rule="nonzero" fill="#737373" stroke="none" transform="matrix(1 0 0 1 84 569 )" />
  </g>
</svg>