<?xml version="1.0" encoding="utf-8"?>
<svg version="1.1" xmlns:xlink="http://www.w3.org/1999/xlink" width="12px" height="12px" xmlns="http://www.w3.org/2000/svg">
  <g transform="matrix(1 0 0 1 -1608 -467 )">
    <path d="M 1614 468  C 1616.8 468  1619 470.2  1619 473  C 1619 475.8  1616.8 478  1614 478  C 1611.2 478  1609 475.8  1609 473  C 1609 470.2  1611.2 468  1614 468  Z " fill-rule="nonzero" fill="#f4f7fd" stroke="none" />
    <path d="M 1614 468  C 1616.8 468  1619 470.2  1619 473  C 1619 475.8  1616.8 478  1614 478  C 1611.2 478  1609 475.8  1609 473  C 1609 470.2  1611.2 468  1614 468  Z " stroke-width="2" stroke="#ffffff" fill="none" />
  </g>
</svg>