<?xml version="1.0" encoding="utf-8"?>
<svg version="1.1" xmlns:xlink="http://www.w3.org/1999/xlink" width="31px" height="15px" xmlns="http://www.w3.org/2000/svg">
  <g transform="matrix(1 0 0 1 -1599 -451 )">
    <path d="M 29.7507088607595 6.75375021097046  C 26.6398396624473 6.75375021097046  23.9610160337553 4.16134852320675  23.9610160337553 0.964057383966245  C 23.9610160337553 4.16134852320675  21.3686143459916 6.75375021097046  18.1713232067511 6.75375021097046  C 21.4550362869198 6.75375021097046  23.9610160337553 9.34615189873418  23.9610160337553 12.5434751054852  C 23.9610160337553 9.34615189873418  26.553417721519 6.75375021097046  29.7507088607595 6.75375021097046  Z M 6.07343797468355 2.34668016877637  C 6.07343797468355 5.54397130801688  3.48100421940928 8.13637299578059  0.283713080168779 8.13637299578059  C 3.56742616033756 8.13637299578059  6.073405907173 10.7287746835443  6.073405907173 13.9260658227848  C 6.073405907173 10.7287746835443  8.66580759493671 8.13637299578059  11.8631308016878 8.13637299578059  C 8.66580759493671 8.04995105485232  6.073405907173 5.45754936708861  6.073405907173 2.34668016877637  Z " fill-rule="nonzero" fill="#ffffff" stroke="none" transform="matrix(1 0 0 1 1599 451 )" />
  </g>
</svg>