<?xml version="1.0" encoding="utf-8"?>
<svg version="1.1" xmlns:xlink="http://www.w3.org/1999/xlink" width="23px" height="17px" xmlns="http://www.w3.org/2000/svg">
  <g transform="matrix(1 0 0 1 -1751 -573 )">
    <path d="M 7.640380859375 9.787109375  L 7.640380859375 7.213134765625  L 0.5625 7.213134765625  L 0.5625 9.787109375  L 7.640380859375 9.787109375  Z M 1.20654296875 15  C 1.20654296875 15.64501953125  1.7822265625 16.220703125  2.492431640625 16  L 20.5078125 16  C 21.218017578125 16.220703125  21.79345703125 15.645263671875  21.79345703125 15  L 1.20654296875 15  Z M 14.843017578125 10.43115234375  C 14.1767578125 11.58447265625  12.927734375 12.36083984375  11.5 12.36083984375  C 10.072265625 12.36083984375  8.8232421875 11.58447265625  8.156982421875 10.430908203125  L 1.20654296875 10.430908203125  L 1.20654296875 14  L 21.79345703125 14  L 21.79345703125 10.43115234375  L 14.843017578125 10.43115234375  Z M 22.4375 7.213134765625  L 15.359619140625 7.213134765625  L 15.359619140625 9.787109375  L 22.4375 9.787109375  L 22.4375 7.213134765625  Z M 8.1572265625 6.569091796875  C 8.8232421875 5.41552734375  10.072265625 4.63916015625  11.5 4.63916015625  C 12.927734375 4.63916015625  14.1767578125 5.41552734375  14.843017578125 6.569091796875  L 21.79345703125 6.569091796875  L 21.79345703125 5.925048828125  C 21.79345703125 4.386962890625  21.119873046875 3.00830078125  20.0498046875 2  L 2.950439453125 2  C 1.882568359375 3.00830078125  1.206787109375 4.38720703125  1.206787109375 5.925048828125  L 1.206787109375 6.569091796875  L 8.1572265625 6.569091796875  Z M 12.78564453125 7.857177734375  C 12.78564453125 8.332275390625  12.528564453125 8.74853515625  12.14404296875 8.971435546875  L 12.14404296875 10.43115234375  L 10.8583984375 10.43115234375  L 10.8583984375 8.971435546875  C 10.473876953125 8.74853515625  10.21435546875 8.334716796875  10.21435546875 7.857177734375  C 10.21435546875 7.14697265625  10.789794921875 6.571533203125  11.5 6.571533203125  C 12.210205078125 6.571533203125  12.78564453125 7.14697265625  12.78564453125 7.857177734375  Z M 14.718017578125 8.501220703125  C 14.718017578125 6.72314453125  13.278076171875 5.283203125  11.5 5.283203125  C 9.724365234375 5.283203125  8.281982421875 6.72314453125  8.281982421875 8.501220703125  C 8.281982421875 10.27685546875  9.721923828125 11.71923828125  11.5 11.71923828125  C 13.278076171875 11.71923828125  14.718017578125 10.279296875  14.718017578125 8.501220703125  Z M 19.14111328125 1.42333984375  C 18.4013671875 1.011962890625  17.551513671875 0.779296875000001  16.64794921875 1  L 6.35205078125 1  C 5.4482421875 0.779296875000001  4.5986328125 1.011962890625  3.85888671875 1.42333984375  L 19.14111328125 1.42333984375  Z " fill-rule="nonzero" fill="#645d5d" stroke="none" transform="matrix(1 0 0 1 1751 573 )" />
  </g>
</svg>