<?xml version="1.0" encoding="utf-8"?>
<svg version="1.1" xmlns:xlink="http://www.w3.org/1999/xlink" width="40px" height="40px" xmlns="http://www.w3.org/2000/svg">
  <g transform="matrix(1 0 0 1 -2906 -1746 )">
    <path d="M 27.6916666796875 19.9383333203125  L 27.6916666796875 19.9416666796875  C 27.1825294152022 19.9561563634234  26.778288478033 20.37483447692  26.7816666796875 20.8841666796875  C 26.82 21.3591666796875  27.215 21.725833359375  27.6916666796875 21.73  C 28.233333359375 21.7883333203125  28.73 21.42  28.83 20.8841666796875  C 28.778882995999 20.3102667925293  28.2722388756091 19.8864466731942  27.6983333203125 19.9375  L 27.6916666796875 19.9383333203125  Z M 13.1608333203125 13.2733333203125  L 13.16 13.275  C 12.4766666796875 13.275  11.7616666796875 13.6983333203125  11.7616666796875 14.4133333203125  C 11.7616666796875 15.096666640625  12.4775 15.5508333203125  13.16 15.5508333203125  C 13.1775604267834 15.5516620352537  13.195137953163 15.552076565536  13.2127179235062 15.552076565536  C 13.8303563615424 15.552076565536  14.3310512438187 15.0513816832597  14.3310512438187 14.4337432452235  C 14.3310512438187 14.4263838522586  14.330978599111 14.4190246385676  14.3308333203125 14.4116666796875  C 14.331333221052 14.3981354598321  14.3315832353387 14.384596163077  14.3315832353387 14.371055712142  C 14.3315832353387 13.7635424873281  13.8390964601525 13.271055712142  13.2315832353387 13.271055712142  C 13.2079816030877 13.271055712142  13.1843860841357 13.2718153080614  13.1608333203125 13.2733333203125  Z M 29.74 28.1958333203125  L 30.39 30.5375  L 27.92 29.1391666796875  C 27.0072378547372 29.3958616396001  26.0707670043635 29.5591995786187  25.125 29.6266666796875  C 20.7683333203125 29.6266666796875  17.325 26.635  17.325 22.9291666796875  C 17.325 19.223333359375  20.7708333203125 16.2325  25.125 16.2325  C 29.2516666796875 16.2325  32.96 19.2258333203125  32.96 22.9291666796875  C 32.96 25.01  31.5616666796875 26.8625  29.7391666796875 28.1958333203125  Z M 16.1833333203125 25.01  C 15.0900806890304 25.0013458352123  14.0045429340754 24.8259962197395  12.9641666796875 24.49  L 9.68083332031251 26.1483333203125  L 10.6233333203125 23.3516666796875  C 8.315 21.7266666796875  6.95 19.678333359375  6.95 17.175  C 6.95 12.7533333203125  11.1116666796875 9.375  16.1833333203125 9.375  C 20.669166640625 9.375  24.6683333203125 12.04  25.4483333203125 15.8116666796875  C 25.159732982943 15.7505029053912  24.865820819421 15.7178459983332  24.5708333203125 15.7141666796875  C 20.149166640625 15.7141666796875  16.7358333203125 19.03  16.7358333203125 23.0291666796875  C 16.74 23.6875  16.8275 24.3425  16.9958333203125 24.9791666796875  C 16.7258333203125 25.0066666796875  16.454166640625 25.0175  16.1825 25.0125  L 16.1825 25.01  Z M 39.9091666796875 19.9541666796875  C 39.9091666796875 8.933333359375  30.9758333203125 0  19.955 0  C 8.9333333203125 0  0 8.9333333203125  0 19.955  C 0 30.975  8.9333333203125 39.9083333203125  19.955 39.9083333203125  C 30.975 39.9083333203125  39.9091666796875 30.975  39.9091666796875 19.9541666796875  Z M 19.5975 15.5491666796875  L 19.5966666796875 15.55  C 19.6263003476579 15.5524452595807  19.6560221258544 15.5536694443213  19.685756509517 15.5536694443213  C 20.2840649813092 15.5536694443213  20.7690898298295 15.068644595801  20.7690898298295 14.4703361240088  C 20.7690898298295 14.4507688735486  20.768559692054 14.4312052145181  20.7675 14.4116666796875  C 20.7692654841727 14.3866431547657  20.7701490478434 14.3615652096536  20.7701490478434 14.3364794819608  C 20.7701490478434 13.7464552814161  20.2918399280756 13.2681461616483  19.7018157275309 13.2681461616483  C 19.6667020982802 13.2681461616483  19.6316098191082 13.2698773158878  19.5966666796875 13.2733333203125  C 19.5589111229311 13.2698080362257  19.5210119044575 13.2680425269065  19.4830921247392 13.2680425269065  C 18.8521809181887 13.2680425269065  18.3250457762348 13.7484622291801  18.2666666796875 14.3766666796875  L 18.2641666796875 14.4116666796875  C 18.3203835537307 15.0928749101314  18.915941167881 15.6009600046651  19.5975 15.5491666796875  Z M 22.6075 19.9366666796875  L 22.5883333203125 19.9383333203125  C 22.0847656964167 19.9645168063222  21.6872827889599 20.3758315422534  21.6783333203125 20.88  C 21.7283333203125 21.35  22.116666640625 21.7108333203125  22.5883333203125 21.7266666796875  C 23.271666640625 21.7266666796875  23.759166640625 21.303333359375  23.7591666796875 20.8808333203125  C 23.7017126506019 20.3021676137617  23.1861976028623 19.8795348160949  22.6075 19.9366666796875  Z " fill-rule="nonzero" fill="#5d5d5d" stroke="none" transform="matrix(1 0 0 1 2906 1746 )" />
  </g>
</svg>