<?xml version="1.0" encoding="utf-8"?>
<svg version="1.1" xmlns:xlink="http://www.w3.org/1999/xlink" width="40px" height="40px" xmlns="http://www.w3.org/2000/svg">
  <g transform="matrix(1 0 0 1 -2973 -1746 )">
    <path d="M 40 20  C 40 8.956  31.044 0  20 0  C 8.956 0  0 8.956  0 20  C 0 31.044  8.956 40  20 40  C 31.044 40  40 31.044  40 20  Z M 25.024 19.384  L 25.096 19.384  L 25.096 10.476  C 27.276 11.644  29.008 13.54  29.968 15.84  L 25.04 20.912  C 25.072 20.68  25.096 20.444  25.096 20.2  C 25.096 19.92  25.068 19.652  25.024 19.384  Z M 16.804 9.68  C 17.812 9.368  18.888 9.2  20 9.2  C 21.52 9.2  22.968 9.516  24.28 10.084  L 24.28 17.5  C 24.028 17.124  23.728 16.784  23.384 16.492  L 23.404 16.472  L 16.804 9.68  Z M 10.284 16  C 11.448 12.904  13.472 10.992  15.968 9.984  L 21.144 16  L 10.284 16  Z M 9.912 23.828  C 9.46 22.636  9.2 21.348  9.2 20  C 9.2 18.632  9.464 17.332  9.928 16.128  L 17.5 16.128  C 17.04 16.436  16.636 16.82  16.304 17.26  L 16.3 17.256  L 9.912 23.828  Z M 15.388 19.364  C 15.34 19.636  15.312 19.916  15.312 20.204  L 15.312 29.72  C 13.1 28.652  11.316 26.856  10.26 24.64  L 15.388 19.364  Z M 23.124 30.34  C 22.132 30.64  21.084 30.804  19.996 30.804  C 18.628 30.804  17.328 30.54  16.124 30.076  L 16.124 22.908  L 16.128 22.908  C 16.44 23.38  16.836 23.788  17.288 24.128  L 17.184 24.228  L 23.124 30.34  Z M 29.52 25  C 28.32 27.336  26.352 29.096  23.968 30.036  L 19.168 25  L 29.52 25  Z M 30.8 20  C 30.8 21.52  30.484 22.968  29.916 24.28  L 22.908 24.28  C 23.488 23.892  23.98 23.384  24.348 22.792  L 30.28 16.692  C 30.616 17.736  30.8 18.844  30.8 20  Z " fill-rule="nonzero" fill="#5d5d5d" stroke="none" transform="matrix(1 0 0 1 2973 1746 )" />
  </g>
</svg>