<?xml version="1.0" encoding="utf-8"?>
<svg version="1.1" xmlns:xlink="http://www.w3.org/1999/xlink" width="23px" height="20px" xmlns="http://www.w3.org/2000/svg">
  <g transform="matrix(1 0 0 1 -2848 -1756 )">
    <path d="M 22.4625710227273 2.89375  C 22.4625710227273 1.7828125  21.5167613636364 0.878125  20.3553267045455 1  L 2.61281960227273 1  C 1.45138494318182 0.878125  0.505575284090909 1.7828125  0.505575284090909 2.89375  L 0.505575284090909 17.0921875  C 0.505575284090909 18.203125  1.45138494318182 19.1078125  2.61281960227273 19  L 20.3553267045455 19  C 21.5167613636364 19.1078125  22.4625710227273 18.203125  22.4625710227273 17.0921875  L 22.4625710227273 2.89375  Z M 3.63703835227273 6.70703125  C 3.63703835227273 6.1234375  4.14914772727273 5.6453125  4.77887073863636 5.6453125  C 5.40859375 5.6453125  5.920703125 6.11875  5.920703125 6.7  C 5.920703125 7.28359375  5.40859375 7.759375  4.77887073863636 7.759375  C 4.14914772727273 7.759375  3.63703835227273 7.2859375  3.63703835227273 6.70703125  Z M 20.0416903409091 12.20078125  L 20.0416903409091 15.43515625  C 20.0416903409091 15.8640625  19.8677201704545 16.26484375  19.5516335227273 16.5671875  C 19.235546875 16.86953125  18.8140980113636 17.0359375  18.3681463068182 17  L 4.51178977272727 17  C 3.58803267045454 17.03125  2.83824573863636 16.31171875  2.83824573863636 15.43046875  L 2.83824573863636 15.0578125  C 2.83824573863636 14.63125  3.01221590909091 14.228125  3.32830255681818 13.92578125  L 5.76143465909091 11.5984375  C 6.41321022727273 10.975  7.47418323863636 10.975  8.12840909090909 11.5984375  C 8.50575284090909 11.959375  9.12077414772727 11.959375  9.50056818181818 11.5984375  L 13.6268465909091 7.665625  C 14.2786221590909 7.04453125  15.3395951704545 7.04453125  15.9913707386364 7.66796875  L 19.5516335227273 11.06875  C 19.8677201704545 11.37109375  20.0416903409091 11.77421875  20.0416903409091 12.20078125  Z " fill-rule="nonzero" fill="#ffffff" stroke="none" transform="matrix(1 0 0 1 2848 1756 )" />
  </g>
</svg>