<?xml version="1.0" encoding="utf-8"?>
<svg version="1.1" xmlns:xlink="http://www.w3.org/1999/xlink" width="12px" height="13px" xmlns="http://www.w3.org/2000/svg">
  <g transform="matrix(1 0 0 1 -1122 -396 )">
    <path d="M 11.1218258823529 10.0386547368421  C 11.9690647058824 9.66507578947368  11.7965929411765 7.00792368421053  10.7545729411765 4.38712368421053  C 9.71188588235294 1.76424026315789  8.03460352941176 -0.231102368421053  7.18610470588235 0.141039736842105  C 5.74518352941176 0.775046315789473  8.04453529411765 3.81569157894737  0.967411764705881 6.92465868421053  C 0.355867058823528 7.19435394736842  0.201183529411764 8.26817789473684  0.457259999999999 8.91145210526316  C 0.712669411764705 9.55328947368421  1.54864235294118 10.1930434210526  2.16018705882353 9.924785  C 2.26617529411765 9.8778002631579  2.65455176470588 9.7426652631579  2.65455176470588 9.7426652631579  C 3.09095647058823 10.3766718421053  3.54789176470588 10.0009376315789  3.71043176470588 10.4030378947368  C 3.90521294117647 10.8868944736842  4.32849882352941 11.9385910526316  4.47265764705882 12.2958618421053  C 4.61681647058823 12.6530607894737  4.94337882352941 12.9839655263158  5.18033294117647 12.8864757894737  C 5.41669411764706 12.7889860526316  6.22168588235294 12.4580813157895  6.52979294117647 12.3321421052632  C 6.83782588235294 12.2054844736842  6.91090588235294 11.9080581578947  6.81677647058824 11.6746431578947  C 6.71538352941177 11.4220463157895  6.29943529411765 11.3480489473684  6.18025411764706 11.0534244736842  C 6.06181411764706 10.7602368421053  5.6740305882353 9.81673447368421  5.56278 9.51923631578947  C 5.41135764705882 9.11498078947368  5.73332470588235 8.7855847368421  6.20130352941177 8.73357105263158  C 9.42282705882353 8.36933157894737  10.0251811764706 10.5211463157895  11.1218258823529 10.0386547368421  Z M 9.84033176470588 4.87952947368421  C 10.6505858823529 6.9168997368421  10.5801741176471 8.55633657894737  10.3919152941176 8.63967342105263  C 10.2029894117647 8.72150157894737  8.93513294117647 7.64200210526316  8.12547176470588 5.60326684210526  C 7.31514352941177 3.56596842105263  7.41720352941176 1.70374921052631  7.60546235294118 1.62048421052631  C 7.79372117647059 1.53865605263158  9.03059647058824 2.84230289473684  9.84033176470588 4.87952947368421  Z " fill-rule="nonzero" fill="#000000" stroke="none" transform="matrix(1 0 0 1 1122 396 )" />
  </g>
</svg>