<?xml version="1.0" encoding="utf-8"?>
<svg version="1.1" xmlns:xlink="http://www.w3.org/1999/xlink" width="12px" height="11px" xmlns="http://www.w3.org/2000/svg">
  <g transform="matrix(1 0 0 1 -1121 -468 )">
    <path d="M 7.49471360608944 5.87597409060968  L 10.9210161750714 2.58281094927907  C 11.1272119726599 2.38713582822664  11.2437465017484 2.11697228186156  11.2437465017484 1.83462094708336  C 11.2437465017484 1.55226961230517  11.1272119726599 1.28210606594009  10.9210161750714 1.08643094488765  C 10.4865897217144 0.672886748539633  9.79854824212953 0.672886748539633  9.3641217887726 1.08643094488765  L 5.93749952426261 4.37896289248335  L 2.51182492863939 1.08644221620435  C 2.07735752347748 0.67269509416728  1.38907825197447 0.67269509416728  0.954610846812559 1.08644221620435  C 0.748415049224043 1.28211733725678  0.631880520135494 1.55228088362187  0.631880520135494 1.83463221840006  C 0.631880520135494 2.11698355317825  0.748415049224043 2.38714709954333  0.954610846812559 2.58282222059577  L 4.38092483349191 5.87596281929298  L 0.954291151284491 9.16913723194028  C 0.748095353695973 9.36481235299271  0.631560824607425 9.6349758993578  0.631560824607425 9.91732723413599  C 0.631560824607425 10.1996785689142  0.748095353695974 10.4698421152793  0.954291151284491 10.6655172363317  C 1.16063177925785 10.8639149527922  1.44091341579448 10.975906755471  1.73288677450048 10.9749712361853  C 2.0248715509039 10.9749712361853  2.30483349191246 10.8639149527922  2.51149381541389 10.6655172363317  L 5.93748810656518 7.3723540950011  L 9.3637906755471 10.6655172363317  C 9.56982302568982 10.8639149527922  9.85010466222645 10.975906755471  10.1420780209324 10.9749712361853  C 10.4340627973359 10.9749712361853  10.7143444338725 10.8639149527922  10.9206850618459 10.6655172363317  C 11.1268808594344 10.4698421152793  11.2434153885229 10.1996785689142  11.2434153885229 9.91732723413599  C 11.2434153885229 9.6349758993578  11.1268808594344 9.36481235299271  10.9206850618459 9.16913723194028  L 7.49469077069458 5.87597409060968  Z " fill-rule="nonzero" fill="#000000" stroke="none" transform="matrix(1 0 0 1 1121 468 )" />
  </g>
</svg>