<?xml version="1.0" encoding="utf-8"?>
<svg version="1.1" xmlns:xlink="http://www.w3.org/1999/xlink" width="13px" height="12px" xmlns="http://www.w3.org/2000/svg">
  <g transform="matrix(1 0 0 1 -1085 -433 )">
    <path d="M 11.4845506385847 0.892257152839977  L 11.4845506385847 0.886739355119053  C 9.28607179275484 -0.666519111071697  7.20387164953665 1.24815473152131  7.20387164953665 1.24815473152131  L 7.13356358635215 1.32540382139848  L 9.63220375821398 4.08429985491952  C 10.052894309152 4.55238502067192  10.1180291762278 5.24845611207181  9.791748957877 5.78929759641733  L 11.2736264599831 7.40049286604886  C 11.5142963470935 7.12460325934465  11.7116997371525 6.87630261889771  11.8577241701769 6.67766211324436  C 11.9658904128054 6.53144062448455  12.0713524911542 6.38521913572474  12.1768145804549 6.23623875369131  C 13.0286237329402 5.03887787735556  13.6830294844145 2.44551561903073  11.4845506385847 0.892257152839977  Z M 8.45048757118787 6.5700651638363  L 8.45319173546756 6.56454737728905  L 8.40722107413648 6.56454737728905  C 7.98257522973838 6.55344844037116  7.5813190420065 6.36373632080455  7.29851710362258 6.0403571301379  L 5.60301128053917 4.10912991672948  C 5.48332627329906 3.97930038049581  5.44101404916112 3.79399063315603  5.49214088458298 3.62356420893008  C 5.54652048490429 3.46106179485142  5.68140509765695 3.34025467228252  5.84638532097725 3.3062911696005  C 6.01550586813371 3.26838351303969  6.19131787060761 3.32888140666991  6.30338769334457 3.46354824262847  L 7.78526519545072 5.14647481558994  L 8.07731403959562 5.51340798971312  C 8.26023107730766 5.72565264439095  8.5707653926422 5.76257532816155  8.79661954759899 5.59893377058484  C 9.02377996507191 5.43851350147348  9.10481906597218 5.13457873773001  8.98861462005055 4.87886189988028  C 8.97764795998078 4.86013078715567  8.96771720146996 4.8407882821805  8.9588689115417 4.82092508526582  L 8.94534812299916 4.78505943918769  L 8.92371487447346 4.75747048410411  L 8.89667331929233 4.72436373129961  L 8.87774422409435 4.70505145603689  L 8.33691302190396 4.09809433246131  L 5.74362739595619 1.22332466971135  C 5.4948450379107 1.00813078206891  3.54514855012637 -0.556163268390014  1.48998997304128 0.886739355119054  C -0.708488872788544 2.44275671458343  -0.0513789570345421 5.02508338864009  0.792317713563605 6.23072095597038  L 1.1087039705139 6.67490321997074  C 1.8334177851727 7.66810579293221  3.99133428727885 9.8697048153239  5.34611646251053 11.2243227646876  C 5.96880688896753 11.8489232531172  6.96434485311044 11.8586777844071  7.59867842965459 11.246393933224  L 5.01620942796967 8.44059666935663  C 4.83512090706422 8.24301880985779  4.84233447156132 7.93391601156564  5.03243435888795 7.7453548716357  C 5.12020163076359 7.65863669396564  5.23758964444111 7.61014962335999  5.35976853964197 7.61014962335999  C 5.48984179762721 7.61014962335999  5.61411214713601 7.66508492661044  5.70306505223252 7.7619082536248  L 8.28282990058972 10.5621877197712  C 8.55324550716091 10.286298113067  8.84799850463353 9.98833734900014  9.14004735973041 9.68761768048597  L 6.63329472788543 6.96734619749036  C 6.4734632383548 6.76771805146666  6.48990752626908 6.47651430716771  6.6711529073294 6.29693446157939  C 6.85231530644883 6.11895038785433  7.13898795302884 6.11895038785433  7.32015035214827 6.29693446157939  L 9.81067805307498 8.99789366931229  C 10.0810936596462 8.69717400079812  10.3704383504633 8.4047310232785  10.6219248618366 8.12332363002705  L 9.06973930749789 6.43763816379196  C 8.87468944147391 6.52553689923722  8.66371691342166 6.5706533798921  8.45048757118787 6.5700651638363  Z " fill-rule="nonzero" fill="#000000" stroke="none" transform="matrix(1 0 0 1 1085 433 )" />
  </g>
</svg>