<?xml version="1.0" encoding="utf-8"?>
<svg version="1.1" xmlns:xlink="http://www.w3.org/1999/xlink" width="14px" height="14px" xmlns="http://www.w3.org/2000/svg">
  <g transform="matrix(1 0 0 1 -1155 -432 )">
    <path d="M 10.6283319707031 6.9048093515625  C 10.7291225075613 6.88855183516078  10.8221476687619 6.84071032505396  10.8939983769531 6.76818091796875  C 10.9662482778834 6.69536460542747  11.0140058077509 6.60183945013782  11.0306268242187 6.50061689648437  C 11.0641210544823 6.29379453988306  10.9612411329914 6.08879960809255  10.7753973085938 5.99205549414062  L 7.70125747070312 4.40469871679687  L 8.23164146875 0.95103544921875  C 8.27139410216525 0.751598515722279  8.17266108388172 0.550245350819326  7.99064408789062 0.45955259765625  C 7.80088237304687 0.364671740234375  7.61112065820313 0.4367811875  7.46785056445312 0.585744140625  L 5.10626597851562 2.9786393984375  L 1.93250123828125 1.43967187109375  C 1.7427395234375 1.34479101367188  1.48845882226562 1.34479101367188  1.34044466992187 1.49754919726562  L 1.34898395898437 1.5070372734375  C 1.20454142481275 1.6693762261187  1.17652203172577 1.90451191185591  1.27877211328125 2.09624741210938  L 2.80445633398437 5.34496802929687  L 0.439076517578125 7.70085976953125  C 0.2920111796875 7.84982270898437  0.219901732421875 8.04243085351562  0.313833775390625 8.23124376757812  C 0.397631095063669 8.40655635645894  0.592790752685361 8.49918791894491  0.781596416015625 8.45326498242188  L 4.20584662695313 7.92098335546875  L 5.78371531445312 11.046358859375  C 5.87806710050993 11.2334431004441  6.08247680986958 11.338140758075  6.28943028710937 11.3053836054687  C 6.39038869381223 11.2896392321214  6.48356575192243 11.241719598811  6.55509669335938 11.1687551582031  C 6.62714253332959 11.0956578261779  6.67429050048054 11.0016939218689  6.68982751171875 10.9002423359375  L 7.23159721484375 7.45701595898437  L 10.6283319707031 6.9048093515625  Z M 13.4757065625 11.9524710566406  L 8.65575891796875 7.78909896679687  L 8.15099274609375 7.89441671484375  C 7.87939028817956 7.92933897587766  7.66029179438399 8.13355098821679  7.60637661328125 8.40202931640625  L 7.53806239648437 8.83183959765625  L 11.802008203125 13.7267431191406  C 12.0341635812147 13.9965001546359  12.419627697587 14.0746083889235  12.7384822851563 13.9165048476562  C 12.9176252149776 13.8319684332668  13.0822313466569 13.7195622963156  13.2261698925781 13.5834730253906  C 13.4021099359647 13.3942607455076  13.5500445794033 13.1808258881074  13.6654682773438 12.9496688945313  C 13.8403719396679 12.6133741343841  13.7619031744329 12.2010207621625  13.4757065625 11.9524710566406  Z M 11.7849296523438 2.80975147851562  C 11.8005497410609 2.79687411335467  11.8120876878143 2.77973201967815  11.818137953125 2.76041342773438  C 11.8211669966637 2.74060309865152  11.8178455650204 2.72034237328499  11.8086498632813 2.7025361015625  C 11.790463439781 2.66776744488705  11.7527514658051 2.64778009982101  11.7137690058594 2.65224925  L 11.0496029902344 2.76515747265625  L 10.7440866230469 2.15791996875  C 10.7282299363319 2.12099113578986  10.6885437878135 2.10035434222017  10.649205765625 2.10858193164062  C 10.6107495785679 2.11744437437877  10.5828539814853 2.15076411549366  10.5808915488281 2.19017946875  L 10.4784202167969 2.84675500976562  L 9.80381731054688 2.97958821289063  C 9.76166077064803 2.98575493003973  9.72748471858412 3.01692649169082  9.71747572851562 3.0583393203125  C 9.71259481477411 3.09989446917274  9.73419942388992 3.14007146970805  9.77155781054688 3.15891303710937  L 10.3797441289062 3.49099604492187  L 10.2725287519531 4.14187874023437  C 10.2634539169384 4.17883148890091  10.2796395567079 4.21736872565414  10.3123787128906 4.23675959765625  C 10.3446663792671 4.25255260416217  10.3835298083404 4.24477991498749  10.4072595703125 4.21778341796875  L 10.8864079160156 3.72914699609375  L 11.4879525605469 4.03466336328125  C 11.5243764873432 4.05196566367679  11.5677577258801 4.04435492228641  11.5961167382813 4.01568719726562  C 11.6107837506983 4.00153229208796  11.6201596622143 3.98278046905586  11.6226833789062 3.96255391601562  C 11.6255217590154 3.94284157055242  11.6225543754023 3.92272929856284  11.6141441035156 3.90467658984375  L 11.3105253515625 3.29838790039063  L 11.7849296523438 2.80975147851562  Z M 5.88049378710937 0.599027460937499  C 5.89138320711832 0.586450051131022  5.89831487665157 0.570936313877144  5.90041876757812 0.554433455078125  C 5.9027452808232 0.537599191406577  5.9001072348737 0.520451904613907  5.89282829296875 0.505095404296875  C 5.87753834536878 0.474414136808076  5.8441574817153 0.457148169227091  5.81028195507813 0.462399013671875  L 5.24763845703125 0.557279884765625  L 4.9886137109375 0.043025623046875  C 4.97540890531384 0.0123571647878915  4.94265644986385 -0.00500558014480192  4.90986258984375 0.001278046875  C 4.87709423196774 0.00856724532256667  4.85333621707605 0.0369989754220077  4.85198527734375 0.070541078125  L 4.76469488085938 0.62654290234375  L 4.19540972265625 0.73850232421875  C 4.1603045017841 0.74538870775967  4.13205694839718 0.771435150069811  4.1223514609375 0.8058677265625  C 4.11854923238022 0.841237210408856  4.13707203782971 0.875258692918463  4.16884308203125 0.8912605078125  L 4.68404614453125 1.17590308007812  L 4.58916528710938 1.72716087304687  C 4.58031894736805 1.76049230761826  4.59566645753099 1.79551610442882  4.62616883203125 1.81160483984375  C 4.6545226745592 1.82647727258852  4.68942728892101 1.81933769367712  4.709663984375 1.7945262890625  L 5.11670286914063 1.38084573046875  L 5.62526427148438 1.6398704765625  C 5.65693410961214 1.65635177663876  5.69570063191509 1.64976147170165  5.72014512890625 1.62374074023437  C 5.73124836327069 1.61107641777418  5.73878042487944 1.5956848115655  5.74196772460937 1.579146734375  C 5.74522780479053 1.56231795680731  5.74254494456648 1.5448793460216  5.73437726367187 1.52980868359375  L 5.4800965625 1.01270800585937  L 5.88049378710937 0.599027460937499  Z M 1.059597328125 4.00619910742188  L 1.06149494335938 4.00619910742188  C 1.05345703081801 3.99597667868843  1.04255687723843 3.9883795997877  1.03018427148438 3.98437651171875  C 1.00509793897515 3.97750281338024  0.978475436330586 3.9879203107892  0.964716470703125 4.00999433789063  L 0.72656551953125 4.379080890625  L 0.313833775390625 4.26142862304687  C 0.289702327906748 4.25340632901585  0.263241553385927 4.26327975132526  0.250263603515625 4.28514883398437  C 0.237784916241424 4.30732182669463  0.2412501847115 4.33504398000333  0.25880287890625 4.35346305078125  L 0.515930009765625 4.6893412890625  L 0.28252308984375 5.06886473242187  C 0.267425063058339 5.0919139610067  0.26742506305834 5.1217201952433  0.28252308984375 5.14476942382812  C 0.299624808396131 5.16528292547866  0.328121829991504 5.17221463088474  0.352734935546875 5.16184797460937  L 0.771159525390625 5.01478263671875  L 1.02069618164063 5.3535073046875  C 1.03380403312056 5.37466551184397  1.05948147850295 5.38439182031067  1.08331755273438 5.37722752929687  C 1.1051106760415 5.36809732554966  1.11825618269461 5.34567262888129  1.1155770390625 5.32219661914062  L 1.10039610351562 4.878154203125  L 1.5036397578125 4.7216007890625  C 1.52832315954684 4.71183991369069  1.54399241470166 4.68738058252671  1.54254090429687 4.66087703320312  C 1.54160202163023 4.64784656605569  1.53699703185639 4.63534731148361  1.52925758398437 4.62482231640625  C 1.52145922486893 4.61497707485111  1.51088060139675 4.60770426823678  1.49889571289063 4.60394852148437  L 1.08711278320312 4.485347453125  L 1.06908541796875 4.044151453125  C 1.0698647286939 4.03082932432895  1.06655419424647 4.01758719130955  1.059597328125 4.00619910742188  Z " fill-rule="nonzero" fill="#000000" stroke="none" transform="matrix(1 0 0 1 1155 432 )" />
  </g>
</svg>