<?xml version="1.0" encoding="utf-8"?>
<svg version="1.1" xmlns:xlink="http://www.w3.org/1999/xlink" width="24px" height="21px" xmlns="http://www.w3.org/2000/svg">
  <g transform="matrix(1 0 0 1 -2604 -2249 )">
    <path d="M 21.2022473327717 1.56145001746996  L 21.2022473327717 1.55179387145834  C 17.1435171558551 -1.16640844437547  13.2994553529907 2.18427078016228  13.2994553529907 2.18427078016228  L 13.169655851727 2.31945668744735  L 17.7825300151643 7.14752474610916  C 18.559189493819 7.96667378617586  18.6794384791898 9.18479819612567  18.0770749991575 10.1312707937303  L 20.8128488491997 12.9508625155855  C 21.2571624869419 12.4680557038531  21.621599514743 12.033529583071  21.8911830834035 11.6859086981776  C 22.0908746082561 11.430021092848  22.2855738298231 11.1741334875183  22.4802730716091 10.9134178189598  C 24.0528438146588 8.81803628537224  25.2609775096883 4.27965233330377  21.2022473327717 1.56145001746996  Z M 15.6009001314238 11.4976140367135  L 15.6058924347094 11.4879579102558  L 15.5210235214827 11.4879579102558  C 14.7370619625939 11.4685347706495  13.9962813083197 11.136538561408  13.4741854220724 10.5706249777413  L 10.3440208256108 7.19097735427659  C 10.1230638891675 6.96377566586766  10.0449490138359 6.63948360802305  10.1393370176917 6.34123736562763  C 10.2397301259772 6.05685814098998  10.4887478725975 5.84544567649441  10.7933267464195 5.78600954680087  C 11.1055492950161 5.71967114781946  11.4301252995833 5.82554246167234  11.6370234338669 6.06120942459983  L 14.372797283909 9.0063309272824  L 14.9119643807919 9.64846398199796  C 15.2496573734911 10.0198921276842  15.8229514941087 10.0845068242827  16.239913010952 9.79813409852348  C 16.6592860893635 9.51739862757859  16.8088967371794 8.98551279102752  16.594365452401 8.53800832479049  C 16.5741193107337 8.50522887752242  16.5557856027138 8.47137949381587  16.5394502982308 8.43661889921518  L 16.51448884246 8.37385401857846  L 16.4745505374895 8.32557334718219  L 16.4246276663858 8.26763652977431  L 16.3896816444819 8.23384004806456  L 15.3912240404381 7.1716650818073  L 10.6036198079191 2.14081817199486  C 10.1443293007582 1.76422886862058  6.54488963100253 -0.973285719682524  2.75075071946082 1.55179387145834  C -1.30797945745577 4.274824250521  -0.0948534591406931 8.79389593012016  1.46274039427127 10.9037616729482  L 2.04683809941028 11.6810806349488  C 3.38477129570345 13.4191851376314  7.36861714574557 17.2719834268168  9.86975346925021 19.6425648382033  C 11.019335795017 20.7356156929551  12.8572520365116 20.7526861227124  14.0283294085931 19.6811893831419  L 9.26069432855939 14.7710441713741  C 8.92637705919548 14.4252829172511  8.93969440903627 13.8843530202399  9.29064804717776 13.5543710253625  C 9.45267993371739 13.4026142144399  9.66939626666051 13.31776184088  9.89495730395441 13.31776184088  C 10.1350925494656 13.31776184088  10.3645147331742 13.4138986215683  10.5287354810446 13.5833394438434  L 15.2913782780118 18.4838285095996  C 15.7906070901432 18.0010216978673  16.3347664700927 17.4795903607502  16.8739335871946 16.9533309408504  L 12.2460825745577 12.1928558456081  C 11.9510090554243 11.8435065900666  11.9813677408044 11.3339000375435  12.3159745981466 11.0196353077639  C 12.6504282580594 10.7081631787451  13.1796700671302 10.7081631787451  13.514123727043 11.0196353077639  L 18.1120210210615 15.7463139212965  C 18.6112498331929 15.2200545013967  19.1454246470093 14.7082792907374  19.6097074372367 14.2158163525473  L 16.74413410615 11.2658667866359  C 16.384042045798 11.4196895736651  15.9945543017015 11.4986434148112  15.6009001314238 11.4976140367135  Z " fill-rule="nonzero" fill="#5e5e5e" stroke="none" transform="matrix(1 0 0 1 2604 2249 )" />
  </g>
</svg>