<?xml version="1.0" encoding="utf-8"?>
<svg version="1.1" xmlns:xlink="http://www.w3.org/1999/xlink" width="41px" height="38px" xmlns="http://www.w3.org/2000/svg">
  <g transform="matrix(1 0 0 1 -2788 -2184 )">
    <path d="M 40.6925 30.2055  C 40.6925 33.219  39.278 38.3645  38.13 37.196  L 0.82 14.8715  C -2.6035 13.826  5.7195 1.8335  7.4415 0.87  C 7.4415 0.87  7.708 0.624  8.0565 0.5215  C 8.323 0.4395  8.6715 0.46  8.6715 0.46  C 9.512 0.6035  10.8855 1.198  11.5415 2.3665  C 12.997 4.929  10.414 7.0405  14.8215 10.013  C 15.949 10.3205  17.138 10.4025  18.3065 10.218  C 20.7255 9.808  23.2265 8.4345  24.026 8.947  C 25.174 9.644  26.486 10.8125  27.675 11.9605  L 24.682 14.0515  C 24.0875 14.4615  23.944 15.2815  24.354 15.8965  C 24.764 16.491  25.584 16.6345  26.1785 16.2245  L 29.52 13.8875  C 30.504 14.9535  31.1805 15.753  31.1805 15.753  C 31.4265 16.081  31.98 16.655  32.6975 17.393  L 29.93 19.3405  C 29.3355 19.7505  29.192 20.5705  29.602 21.1855  C 30.012 21.78  30.832 21.9235  31.4265 21.5135  L 34.522 19.3405  C 37.0025 21.985  39.934 25.347  40.2825 27.438  C 40.2825 27.438  40.4465 27.971  40.5695 28.6885  C 40.672 29.3445  40.6925 30.2055  40.6925 30.2055  Z M 0 27.397  C 0 26.3515  0.861 25.4905  1.9065 25  L 13.858 25  C 14.9035 25.4905  15.7645 26.3515  15.7645 27.397  L 15.7645 27.5405  C 15.7645 28.586  14.9035 29.447  13.858 29  L 1.9065 29  C 0.861 29.447  0 28.586  0 27.5405  L 0 27.397  Z M 0 35.31  C 0 34.2645  0.861 33.4035  1.9065 33  L 24.354 33  C 25.3995 33.4035  26.2605 34.2645  26.2605 35.31  L 26.2605 35.4535  C 26.2605 36.499  25.3995 37.36  24.354 37  L 1.9065 37  C 0.861 37.36  0 36.499  0 35.4535  L 0 35.31  Z " fill-rule="nonzero" fill="#040000" stroke="none" transform="matrix(1 0 0 1 2788 2184 )" />
  </g>
</svg>