<?xml version="1.0" encoding="utf-8"?>
<svg version="1.1" xmlns:xlink="http://www.w3.org/1999/xlink" width="16px" height="16px" xmlns="http://www.w3.org/2000/svg">
  <g transform="matrix(1 0 0 1 -2840 -2148 )">
    <path d="M 1.363328125 8  C 1.363328125 11.6653125  4.3346875 14.636671875  8 14.636671875  C 11.665328125 14.636671875  14.636671875 11.665328125  14.636671875 8  C 14.636671875 4.334671875  11.6653125 1.363328125  8 1.363328125  C 4.3346875 1.363328125  1.363328125 4.3346875  1.363328125 8  Z M 15.636671875 8  C 15.636671875 12.21734375  12.217328125 15.636671875  8 15.636671875  C 3.78265625 15.636671875  0.363328125 12.217328125  0.363328125 8  C 0.363328125 3.78265625  3.782671875 0.363328125  8 0.363328125  C 12.21734375 0.363328125  15.636671875 3.782671875  15.636671875 8  Z M 6.609328125 6.785328125  C 6.6093800215089 6.79583438183848  6.60849105522517 6.80632418398644  6.606671875 6.816671875  L 6.606671875 6.827328125  C 6.60122696121335 7.09957381433253  6.37897200802657 7.317428115002  6.106671875 7.317428115002  C 5.83047427713136 7.317428115002  5.606571884998 7.09352572286864  5.606571884998 6.817328125  C 5.606571884998 6.81399454172083  5.60660521666475 6.81066104176246  5.606671875 6.807328125  C 5.6059908871666 6.80001588344751  5.60576649348538 6.79266829500204  5.606 6.785328125  C 5.606 6.046671875  5.81334375 5.438671875  6.224 4.959328125  C 6.674 4.442  7.294 4.188671875  8.079328125 4.188671875  C 8.778 4.188671875  9.344 4.391328125  9.775328125 4.8  C 10.188671875 5.189328125  10.394 5.716  10.394 6.368  C 10.394 6.841328125  10.247328125 7.276  9.960671875 7.65534375  C 9.840671875 7.806671875  9.582 8.058671875  9.113328125 8.482671875  C 8.886671875 8.680671875  8.726671875 8.865328125  8.626671875 9.034  C 8.495328125 9.260671875  8.432 9.49134375  8.431328125 9.739328125  L 8.449328125 10.042  C 8.44954499049197 10.045548036623  8.4496534990355 10.0491018664983  8.4496534990355 10.0526565246422  C 8.4496534990355 10.1491251374291  8.37145023682235 10.2273283996422  8.2749816240355 10.2273283996422  L 7.62 10.227328125  C 7.52288075708114 10.2273293577868  7.44467982313677 10.1491348669985  7.444671875 10.052671875  L 7.444671875 9.75  C 7.444671875 9.419328125  7.514 9.110671875  7.649328125 8.840671875  C 7.813328125 8.489328125  8.152671875 8.082671875  8.644671875 7.653328125  C 8.950671875 7.346671875  9.046671875 7.248  9.11 7.168671875  C 9.31 6.911328125  9.40734375 6.656  9.40734375 6.388671875  C 9.40734375 5.990671875  9.292 5.676671875  9.07265625 5.448  C 8.842 5.217328125  8.504671875 5.102  8.048 5.102  C 7.538 5.102  7.172671875 5.266  6.921328125 5.6  C 6.71 5.864671875  6.609328125 6.251328125  6.609328125 6.785328125  Z M 8 11.932  C 7.7238576250846 11.932  7.5 11.7081423749154  7.5 11.432  C 7.5 11.1558576250846  7.7238576250846 10.932  8 10.932  C 8.2761423749154 10.932  8.5 11.1558576250846  8.5 11.432  C 8.5 11.7081423749154  8.2761423749154 11.932  8 11.932  Z " fill-rule="nonzero" fill="#000000" stroke="none" transform="matrix(1 0 0 1 2840 2148 )" />
  </g>
</svg>