<?xml version="1.0" encoding="utf-8"?>
<svg version="1.1" xmlns:xlink="http://www.w3.org/1999/xlink" width="22px" height="20px" xmlns="http://www.w3.org/2000/svg">
  <g transform="matrix(1 0 0 1 -1319 -935 )">
    <path d="M 21.835 15.8976315789474  C 21.835 17.4836842105263  21.076 20.1918421052632  20.46 19.5768421052632  L 0.44 7.82710526315789  C -1.397 7.27684210526316  3.069 0.965  3.993 0.457894736842105  C 3.993 0.457894736842105  4.136 0.328421052631579  4.323 0.274473684210526  C 4.466 0.231315789473684  4.653 0.242105263157895  4.653 0.242105263157895  C 5.104 0.317631578947368  5.841 0.630526315789474  6.193 1.24552631578947  C 6.974 2.59421052631579  5.588 3.70552631578947  7.953 5.27  C 8.558 5.43184210526316  9.196 5.475  9.823 5.37789473684211  C 11.121 5.1621052631579  12.463 4.43921052631579  12.892 4.70894736842105  C 13.508 5.07578947368421  14.212 5.69078947368421  14.85 6.295  L 13.244 7.39552631578947  C 12.925 7.61131578947368  12.848 8.04289473684211  13.068 8.36657894736842  C 13.288 8.67947368421053  13.728 8.755  14.047 8.53921052631579  L 15.84 7.30921052631579  C 16.368 7.87026315789474  16.731 8.29105263157895  16.731 8.29105263157895  C 16.863 8.46368421052632  17.16 8.76578947368421  17.545 9.15421052631579  L 16.06 10.1792105263158  C 15.741 10.395  15.664 10.8265789473684  15.884 11.1502631578947  C 16.104 11.4631578947368  16.544 11.5386842105263  16.863 11.3228947368421  L 18.524 10.1792105263158  C 19.855 11.5710526315789  21.428 13.3405263157895  21.615 14.4410526315789  C 21.615 14.4410526315789  21.703 14.7215789473684  21.769 15.0992105263158  C 21.824 15.4444736842105  21.835 15.8976315789474  21.835 15.8976315789474  Z M 0 14.4194736842105  C 0 13.8692105263158  0.462 13.4160526315789  1.023 13.4160526315789  L 7.436 13.4160526315789  C 7.997 13.4160526315789  8.459 13.8692105263158  8.459 14.4194736842105  L 8.459 14.495  C 8.459 15.0452631578947  7.997 15.4984210526316  7.436 15.4984210526316  L 1.023 15.4984210526316  C 0.462 15.4984210526316  0 15.0452631578947  0 14.495  L 0 14.4194736842105  Z M 0 18.5842105263158  C 0 18.0339473684211  0.462 17.5807894736842  1.023 17.5807894736842  L 13.068 17.5807894736842  C 13.629 17.5807894736842  14.091 18.0339473684211  14.091 18.5842105263158  L 14.091 18.6597368421053  C 14.091 19.21  13.629 19.6631578947368  13.068 19.6631578947368  L 1.023 19.6631578947368  C 0.462 19.6631578947368  0 19.21  0 18.6597368421053  L 0 18.5842105263158  Z " fill-rule="nonzero" fill="#ffffff" stroke="none" transform="matrix(1 0 0 1 1319 935 )" />
  </g>
</svg>