<?xml version="1.0" encoding="utf-8"?>
<svg version="1.1" xmlns:xlink="http://www.w3.org/1999/xlink" width="43px" height="44px" xmlns="http://www.w3.org/2000/svg">
  <g transform="matrix(1 0 0 1 -2787 -2364 )">
    <path d="M 10.415625 3.91875  C 10.38125 3.91875  12.890625 11.034375  16.15625 11  L 26.778125 11  C 30.078125 11.034375  32.553125 3.91875  32.553125 3.91875  C 32.553125 1.7875  32.346875 0.171875  28.703125 0.06875  C 25.059375 -0.06875  24.2 2.6125  21.5875 2.6125  C 18.90625 2.6125  17.565625 0.515625  14.265625 0.06875  C 10.965625 -0.378125  10.415625 1.7875  10.415625 3.91875  Z M 42.7625 37.571875  C 42.796875 37.60625  39.7375 13.234375  27.3625 14  L 16.15625 14  C 3.746875 13.234375  0.721875 37.571875  0.721875 37.571875  C 0.721875 40.76875  3.3 43.965625  6.496875 44  L 36.9875 44  C 40.184375 43.965625  42.7625 40.76875  42.7625 37.571875  Z M 23.134375 31.934375  C 23.134375 31.96875  28.634375 31.96875  28.634375 31.96875  C 29.390625 31.96875  29.975 32.5875  29.975 33.309375  C 29.975 34.065625  29.35625 34.65  28.634375 34.65  L 23.134375 34.65  L 23.134375 38.190625  C 23.134375 38.946875  22.515625 39.53125  21.79375 39.53125  C 21.0375 39.53125  20.453125 38.9125  20.453125 38.190625  L 20.453125 34.65  L 14.91875 34.65  C 14.1625 34.65  13.578125 34.03125  13.578125 33.309375  C 13.578125 32.553125  14.196875 31.96875  14.91875 31.96875  L 20.453125 31.96875  L 20.453125 30.25  L 14.91875 30.25  C 14.1625 30.25  13.578125 29.63125  13.578125 28.909375  C 13.578125 28.153125  14.196875 27.56875  14.91875 27.56875  L 18.665625 27.56875  L 14.815625 20.728125  C 14.4375 20.075  14.678125 19.25  15.296875 18.871875  C 15.95 18.49375  16.775 18.734375  17.153125 19.353125  L 21.759375 27.5  L 22 27.5  L 26.60625 19.353125  C 26.984375 18.7  27.809375 18.49375  28.4625 18.871875  C 29.115625 19.25  29.321875 20.075  28.94375 20.728125  L 25.128125 27.534375  L 28.634375 27.534375  C 29.390625 27.534375  29.975 28.153125  29.975 28.875  C 29.975 29.63125  29.35625 30.215625  28.634375 30.215625  L 23.134375 30.215625  L 23.134375 31.934375  Z " fill-rule="nonzero" fill="#000000" stroke="none" transform="matrix(1 0 0 1 2787 2364 )" />
  </g>
</svg>