<?xml version="1.0" encoding="utf-8"?>
<svg version="1.1" xmlns:xlink="http://www.w3.org/1999/xlink" width="50px" height="37px" xmlns="http://www.w3.org/2000/svg">
  <g transform="matrix(1 0 0 1 -3022 -2185 )">
    <path d="M 49.3521342685547 9.862478234375  L 49.3199240830078 9.81574291015625  L 49.5732733066406 9.52386378417969  L 40.9852390224609 0.180521591796875  L 40.9367708935547 0.236430690429687  L 8.98678794433594 0.236430690429687  L 0.989850881835937 9.71055023046875  L 1.09198565332031 9.80106487109375  L 1.07883656835938 9.81701706347656  L 25.4442948017578 36.9856767001953  L 25.7852026582031 36.4876933261719  L 49.3521342685547 9.862478234375  Z M 40.2392068388672 3.10889417773437  L 46.396240359375 9.67956324804688  L 25.3542898125 33.3367036982422  L 4.15857650683594 9.4552643515625  L 9.59067754980469 3.10889417773437  L 40.2392068388672 3.10889417773437  Z M 40.7604303251953 16.0156383945312  C 39.9244952021484 14.5307091962891  37.9569232207031 12.5990168603516  35.1585634804688 12.0704032548828  C 31.8031514589844 11.4365969697266  24.7530504140625 11.7979929306641  21.4761251513672 11.4925060683594  C 17.3919581923828 10.6058092607422  15.7314020771484 9.56575739550781  15.5110274912109 8.2117074453125  C 15.4196464482422 7.6498643515625  16.1542114013672 5.98558777636719  18.0461506816406 5.00547127050781  C 20.1886870283203 3.89554581933594  23.0792432636719 3.83112549804687  23.0792432636719 3.83112549804687  C 27.1008756064453 3.45071943652344  30.1469273554688 4.77429205566406  31.6985703808594 6.46573325292969  C 33.3402183457031 8.25533391113281  33.8164394619141 10.0944729511719  33.8164394619141 10.0944729511719  L 41.925296671875 10.0944729511719  L 41.925296671875 5.06148231933594  L 41.97351 4.95965334863281  L 40.2392578388672 3.10889417773437  L 37.3570599755859 3.10889417773437  C 37.2897346464844 3.17453765234375  37.24636303125 3.2159725625  37.24636303125 3.2159725625  L 35.2703817275391 5.63927755566406  L 32.4200372490234 3.10889417773437  L 14.4676629169922 3.10889417773438  C 14.1982086005859 3.18870608984375  13.9365520048828 3.27397126660156  13.6841711337891 3.36509745898438  C 9.65774802832031 4.81909067480469  7.90555601953125 9.069150125  7.90555601953125 9.069150125  C 7.3475353359375 10.6984644570312  7.35074619433594 12.2072455185547  7.44319749023437 13.1560691914062  L 12.1210608779297 18.4266607548828  C 12.2430721523437 18.4157541259766  12.3666633808594 18.4034714931641  12.4912229121094 18.38955790625  C 13.2532582382812 18.3043946298828  18.3307926884766 18.7571716835938  23.3028796083984 19.2096938369141  C 27.5745993662109 19.5985601708984  32.0658783076172 19.5948906611328  32.9962524814453 20.1418518154297  C 33.95058046875 20.3506062705078  34.9289641201172 21.1595807714844  34.8602626875 21.7076122285156  C 34.7571596132812 22.5297358144531  33.1826840771484 23.6838483330078  32.4556619941406 23.9446385263672  C 30.6442481279297 24.5944479541016  26.6768939794922 24.6156495605469  24.8874462216797 23.7954116796875  C 23.0781729111328 22.7600486767578  20.3949441269531 21.7075612285156  18.7172126162109 21.7075612285156  C 17.5278830039063 21.7075612285156  16.1514591943359 22.0049955693359  15.45073528125 22.1782271298828  L 19.9568451621094 27.2553028789062  C 21.3737355292969 27.6089011191406  23.8312383134766 28.1992848388672  25.0364691679688 28.3531495478516  C 26.2263084814453 28.5050775517578  28.6747903916016 28.0898110976563  30.3343782041016 27.7374869609375  L 40.7604303251953 16.0156383945312  Z " fill-rule="nonzero" fill="#000000" stroke="none" transform="matrix(1 0 0 1 3022 2185 )" />
  </g>
</svg>