<?xml version="1.0" encoding="utf-8"?>
<svg version="1.1" xmlns:xlink="http://www.w3.org/1999/xlink" width="65px" height="34px" xmlns="http://www.w3.org/2000/svg">
  <g transform="matrix(1 0 0 1 -2892 -2186 )">
    <path d="M 34.739036759781 3.64874937318069  L 34.703459861782 3.65586475225485  C 33.7286529566551 3.4637495360876  30.8042322425884 2.94432685929318  29.3526949710304 2.68105784800398  C 27.9011576994724 2.41778883671478  27.5026964752613 2.87317306417123  27.0188506969039 3.39259574052763  C 26.5350049185465 3.91201841688402  25.5601980449577 5.40624796595321  24.48577582666 6.86490061789945  C 23.4113536083624 8.32355326984569  24.6778910428273 8.80739904776506  26.044043791777 8.99951426437033  C 27.4101965407267 9.19162948097561  32.3696155876556 10.0668211031558  33.728652956655 10.3585516338079  C 33.897272579968 10.4121266351666  34.0731419049955 10.4393942228362  34.2500680425127 10.4393942228362  C 35.1688657303546 10.4393942228362  35.9258102210605 9.71801821238459  35.969997297123 8.80028366825286  C 35.969997297123 8.80028366825286  36.4538430443803 6.07509358140369  36.6815351900846 5.00778674305624  C 36.909227335789 3.94047990470881  35.7067282849577 3.84086462176207  34.739036759781 3.64874937318069  Z M 49.5888324144948 2.79490392063713  C 48.2297950450573 2.97278837777999  48.2297950450573 1.41452041266302  49.1049866681135 1.22240519605774  C 50.3117912996259 1.06758968998767  51.5247846755776 1.45887787053099  52.4136378149527 2.28971200330513  C 53.3623549944095 3.1048787880053  53.7768604107687 4.38133585504026  53.4880600341264 5.59836318255849  C 53.3884447200797 6.67278540129418  51.6380615383574 6.45220863510204  51.8301767545247 5.0291328811548  C 51.8923775498195 4.41930671535777  51.6783124963324 3.81365923940974  51.2467156936585 3.3783649810652  C 50.7761136443057 3.00173278350328  50.1915901220534 2.79602064536623  49.5888324144948 2.79490392063713  Z M 8.65928735040985 6.96263001509875  C 8.67890544075689 6.96263001509875  8.69851848880328 6.96325896630405  8.71809627181683 6.9645158995321  L 14.5527069418019 6.9645158995321  C 14.5722847246694 6.96325896632287  14.5918977725689 6.96263001512699  14.611515862769 6.96263001512699  C 15.1184491252658 6.96263001512699  15.5293997309223 7.37358062078353  15.5293997309223 7.8805138832803  C 15.5293997309223 7.9001319736179  15.5287707797176 7.91974502165489  15.5275138464908 7.93932280465903  C 15.5287707797188 7.95890058767256  15.5293997309241 7.97851363571897  15.5293997309241 7.99813172606601  C 15.5293997309241 8.50506498856278  15.1184491252676 8.91601559421932  14.6115158627708 8.91601559421932  C 14.5918977724238 8.91601559421932  14.5722847243774 8.91538664301402  14.5527069413639 8.91412970978597  L 8.71809627181682 8.91412970978597  C 8.69851848880329 8.91538664301401  8.67890544075688 8.91601559421932  8.65928735040985 8.91601559421932  C 8.15235408791307 8.91601559421932  7.74140348225654 8.50506498856278  7.74140348225654 7.99813172606601  C 7.74140348225654 7.97851363571894  7.74203243346184 7.95890058767258  7.74328936668989 7.93932280465903  C 7.74203243346184 7.91974502164551  7.74140348225654 7.90013197359909  7.74140348225654 7.88051388325206  C 7.74140348225654 7.37358062075529  8.15235408791307 6.96263001509875  8.65928735040985 6.96263001509875  Z M 9.70001855601792 18.6408526190144  L 9.6929031760677 18.6408526194525  L 1.91579410863116 18.6408526194525  C 1.88812167043297 18.6432233296248  1.86036055587102 18.6444103092273  1.83258675342062 18.6444103092273  C 1.29421576568926 18.6444103092273  0.857779848293687 18.2079743918317  0.857779848293687 17.6696034041004  C 0.857779848293687 17.131232416369  1.29421576568926 16.6947964989735  1.83258675342062 16.6947964989735  C 1.86036055572441 16.6947964989735  1.88812167013994 16.6959834785635  1.91579410819313 16.6983541887108  L 9.70001855601792 16.6983541887108  C 10.2042888477882 16.7415552516446  10.5916181035969 17.1634859678848  10.5916181035969 17.6696034038626  C 10.5916181035969 18.1757208398404  10.2042888477882 18.5976515560806  9.70001855601792 18.6408526190144  Z M 27.8487783412957 20.5812674092118  C 27.8487783412957 20.8110308044194  27.8282073174282 21.040332840941  27.7873116259632 21.2664274233549  C 27.458257541371 23.1050389494778  25.8589178714221 24.4435581407994  23.991093218362 24.4435581407994  C 21.8611875619673 24.4435581407994  20.1345578766796 22.7169284555116  20.1345578766796 20.5870227991169  C 20.1345578766796 18.4571171427222  21.8611875619673 16.7304874574345  23.991093218362 16.7304874574345  C 24.2189926575426 16.7304874574345  24.4464435528544 16.7506887327324  24.6707756633151 16.7908541232454  C 26.5091172013625 17.1164899287824  27.8487783412957 18.7143077716303  27.8487783412957 20.5812674092118  Z M 60.1786933506969 32.2703608056545  C 60.1786933506969 32.7764782406474  59.7913640963497 33.1984089564103  59.2870938056745 33  L 32.0778850570035 33  C 31.5736147663283 33.1984089564103  31.186285511981 32.7764782406474  31.186285511981 32.2703608056545  C 31.186285511981 31.7642433706617  31.5736147663283 31.3423126548988  32.0778850570035 31  L 59.2870938056745 31  C 59.7913640963497 31.3423126548988  60.1786933506969 31.7642433706617  60.1786933506969 32.2703608056545  Z M 51.6690947252221 26.1425455553812  C 51.6690947252221 25.9127821603177  51.6896657490638 25.6834801239392  51.7305614404778 25.4573855412245  C 52.05961552507 23.6187740151016  53.658955195019 22.28025482378  55.526779848079 22.28025482378  C 57.6566855044737 22.28025482378  59.3833151897614 24.0068845090678  59.3833151897614 26.1367901654625  C 59.3833151897614 28.2666958218572  57.6566855044737 29.9933255071449  55.526779848079 29.9933255071449  C 55.2988804088984 29.9933255071449  55.0714295135867 29.973124231847  54.8470974031259 29.932958841334  C 53.0087558651141 29.6073230357649  51.6690947252221 28.0095051929332  51.6690947252221 26.1425455553812  Z M 63.4211289189846 26.8093075311498  L 63.4068981599602 26.8164229111  C 63.3143982254256 27.3998839719662  63.2147829437929 28.4671908107516  61.7561302603086 28.1754602800995  C 61.5646308443256 28.1280748174321  61.3694346821024 28.097129081137  61.1726691990045 28.082960346003  C 61.2651691335391 27.791229815789  61.3647844151717 27.4994992851369  61.4643997296565 27.1081534408761  C 61.5242748593627 26.7699005347141  61.5543852733354 26.4270502625531  61.5543852733354 26.0835388949328  C 61.5543852733354 22.8370179088228  58.9225600130487 20.2051926485361  55.6760390269388 20.2051926485361  C 52.824790871767 20.2051926485361  50.3846599941377 22.2513230129489  49.887678324221 25.0589243489895  C 49.8097890736085 25.3776639531289  49.7786302076359 25.7060304324036  49.7951783901244 26.0337312536785  C 43.4624912142957 24.9521936554306  35.8063435674664 23.6002716655052  29.452310252663 22.4333495446491  C 29.5448101871976 22.1416190144351  29.6444254688303 21.849888483783  29.7440407833151 21.4585426399602  C 29.8035047709348 21.1214419184749  29.8334072572698 20.7797909859741  29.8334072572698 20.437485768004  C 29.8334072572698 17.1913066934917  27.2018591710976 14.5597586073196  23.9556800965854 14.5597586073196  C 21.1034098806349 14.5597586073196  18.662805169071 16.6075253293135  18.1673194098557 19.4164288960478  C 18.089430159096 19.7351685001656  18.0582712929757 20.0635349794406  18.0748194753211 20.3912358007367  C 17.8842706706002 20.3392963442252  17.688628448404 20.3082799016263  17.491358414893 20.2987358981782  C 16.1323210454555 20.106620682011  15.2571294543753 19.5231595896068  15.933090450214 15.3179706802987  C 16.0255903847486 14.7345096194326  16.1252056663813 14.2506638415132  16.224820979552 13.6672027806471  L 11.6140554678347 13.6672027806471  C 11.1097852571006 13.6240016257135  10.7224561094348 13.2020709447926  10.7224561094348 12.6959535817023  C 10.7224561094348 12.189836218612  11.1097852571006 11.7679055376911  11.6140554678347 11.7247043827576  L 16.8652050769537 11.7247043827576  C 17.5767429699154 9.87470588698855  18.4234730425087 8.60816845164759  19.8821256940169 8.22393798689896  C 20.5936635869786 4.31759498819313  26.044043792215 0.155098357272273  30.3275018752812 0.831059351796913  C 34.6109599583474 1.50702034632155  43.6332603239024 3.17201897389746  45.5046049582081 3.55624943908412  C 47.3759495925137 3.94047990427078  49.2046019493081 4.53105634421105  50.1722934753609 6.0822089293778  C 51.1399850014136 7.63336151454455  53.5947907268094 12.7991265695172  53.5947907268094 12.7991265695172  C 58.7534404013937 14.6491250652862  64.9793968841015 17.7798917549826  64.5880510398407 20.291620518666  C 64.1967051955799 22.8033492823494  63.4211289185465 26.8093075626879  63.4211289189846 26.8093075311498  Z M 49.1832558112096 11.1412432899154  C 48.6922946529019 9.49047538938775  48.2297950450572 7.74009220897959  48.0305644489398 7.16374652762568  C 47.7388339187257 6.45220863466401  47.5467187016824 5.98970902681931  46.0880660190742 5.74067074214037  C 44.6294133364659 5.49163245746142  41.4986466458935 4.92240218759582  40.5451858797412 4.72317159191638  C 39.5917251135889 4.52394099623693  38.6951873839721 4.23932584465904  38.5030721673668 5.30663265234445  C 38.3109569507616 6.37393946002986  37.7915342744052 9.09912957797909  37.7915342748432 9.09912957797909  C 37.7380886054943 9.26756202065308  37.7108880268189 9.44321771074121  37.7108880268189 9.61992630509155  C 37.7108880268189 10.5441610770818  38.4405357609937 11.3035582794505  39.3640329994226 11.340473918009  C 40.7301857479343 11.5325891341762  45.682489415789 12.5073960393031  47.0486421647387 12.6995112559084  C 48.4147949136884 12.8916264725137  49.6742169695172 12.792011190443  49.1832558112096 11.1412432899154  Z " fill-rule="nonzero" fill="#000000" stroke="none" transform="matrix(1 0 0 1 2892 2186 )" />
  </g>
</svg>