<?xml version="1.0" encoding="utf-8"?>
<svg version="1.1" xmlns:xlink="http://www.w3.org/1999/xlink" width="53px" height="53px" xmlns="http://www.w3.org/2000/svg">
  <defs>
    <filter x="2871px" y="200px" width="53px" height="53px" filterUnits="userSpaceOnUse" id="filter260">
      <feOffset dx="0" dy="0" in="SourceAlpha" result="shadowOffsetInner" />
      <feGaussianBlur stdDeviation="2.5" in="shadowOffsetInner" result="shadowGaussian" />
      <feComposite in2="shadowGaussian" operator="atop" in="SourceAlpha" result="shadowComposite" />
      <feColorMatrix type="matrix" values="0 0 0 0 0  0 0 0 0 0  0 0 0 0 0  0 0 0 0.349019607843137 0  " in="shadowComposite" />
    </filter>
    <g id="widget261">
      <path d="M 2897.5 206  C 2908.98 206  2918 215.02  2918 226.5  C 2918 237.98  2908.98 247  2897.5 247  C 2886.02 247  2877 237.98  2877 226.5  C 2877 215.02  2886.02 206  2897.5 206  Z " fill-rule="nonzero" fill="#44474d" stroke="none" />
      <path d="M 2897.5 206  C 2908.98 206  2918 215.02  2918 226.5  C 2918 237.98  2908.98 247  2897.5 247  C 2886.02 247  2877 237.98  2877 226.5  C 2877 215.02  2886.02 206  2897.5 206  Z " stroke-width="2" stroke="#ffffff" fill="none" />
    </g>
  </defs>
  <g transform="matrix(1 0 0 1 -2871 -200 )">
    <use xlink:href="#widget261" filter="url(#filter260)" />
    <use xlink:href="#widget261" />
  </g>
</svg>