<?xml version="1.0" encoding="utf-8"?>
<svg version="1.1" xmlns:xlink="http://www.w3.org/1999/xlink" width="13px" height="15px" xmlns="http://www.w3.org/2000/svg">
  <g transform="matrix(1 0 0 1 -3209 -231 )">
    <path d="M 6.49972406919643 15  L 4.90640163058036 11.7816428613281  C 2.3356339041207 11.0592779866988  0.556973059151785 8.69547280428478  0.556973059151785 6.00133807373258  C 0.556973059151785 2.68762957474782  3.21768083158593 0.00133807373257788  6.49983020200893 0.00133807373257788  C 9.78197957243193 0.00133807373257788  12.4426873448661 2.68762957474782  12.4426873448661 6.00133807373258  C 12.4426873448661 8.69547280428478  10.6640264998972 11.0592779866988  8.0932587734375 11.7816428613281  L 6.49972406919643 15  Z M 2.46707100279018 6.00002991473953  C 2.46707100279018 8.24849948149999  4.27245625444827 10.0712442067317  6.49951182533482 10.0712442067317  C 8.72656739622137 10.0712442067317  10.5319526478795 8.24849948149999  10.5319526478795 6.00002991473953  C 10.5319526478795 3.75107193451564  8.72656739622137 1.9283272092839  6.49951182533482 1.9283272092839  C 4.27245625444827 1.9283272092839  2.46707100279018 3.75107193451564  2.46707100279018 5.99954150127609  Z " fill-rule="nonzero" fill="#393939" stroke="none" transform="matrix(1 0 0 1 3209 231 )" />
  </g>
</svg>