<?xml version="1.0" encoding="utf-8"?>
<svg version="1.1" xmlns:xlink="http://www.w3.org/1999/xlink" width="22px" height="26px" xmlns="http://www.w3.org/2000/svg">
  <g transform="matrix(1 0 0 1 -2887 -343 )">
    <path d="M 18.5388636308594 10.9143181845703  L 18.5388636308594 20  L 2.46113636914062 20  L 2.46113636914062 10.9143181845703  C 2.46113636914062 6.68704544628906  5.88522729199219 3.26295455371094  10.1125 3.26295455371094  L 10.8875 3.26295455371094  C 15.1147727382812 3.26295455371094  18.5388636308594 6.6870454765625  18.5388636308594 10.9143181845703  Z M 20.6525 19.6859090771484  C 20.6525 20.5243181542969  19.9761363691406 21.2006818154297  19.1377272617187 21  L 1.86227273828125 21  C 1.02386366113281 21.2006818154297  0.3475 20.5243181845703  0.3475 19.6859090771484  C 0.3475 18.8474999697266  1.02386363085937 18.1711363388672  1.86227273828125 18  L 19.1377272617188 18  C 19.9761363388672 18.1711363691406  20.6525 18.8475  20.6525 19.6859090771484  Z M 8.18909092285156 22.0038636308594  L 12.8109090771484 22.0038636308594  C 12.8109090771484 23.2790908925781  11.7752272617188 24.3147727080078  10.5 24.3147727382813  C 9.22477273828125 24.3147727685547  8.18909092285156 23.2790909228516  8.18909092285156 22.0038636308594  Z M 12.0147727382813 4.47477273828125  C 12.0147727382813 5.31318181542969  11.3384091074219 5.9895454765625  10.5 5.98954544628906  C 9.66159092285156 5.98954544628906  8.98522726171875 5.31318181542969  8.98522726171875 4.47477273828125  L 8.98522726171875 2.41045455371094  C 8.98522726171875 1.5720454765625  9.66159089257813 0.895681815429688  10.5 0.895681815429688  C 11.3384091074219 0.895681815429688  12.0147727382813 1.57204544628906  12.0147727382813 2.41045455371094  L 12.0147727382813 4.47477273828125  Z " fill-rule="nonzero" fill="#bbbbbb" stroke="none" transform="matrix(1 0 0 1 2887 343 )" />
  </g>
</svg>