<?xml version="1.0" encoding="utf-8"?>
<svg version="1.1" xmlns:xlink="http://www.w3.org/1999/xlink" width="16px" height="13px" xmlns="http://www.w3.org/2000/svg">
  <g transform="matrix(1 0 0 1 -3207 -361 )">
    <path d="M 4.80590354769287 6.90483391062271  C 4.80590354769287 8.67694612167841  6.22999774875552 10.1200846814179  8.00195360586081 10.1436246271062  C 8.01629496259781 10.1438151480819  8.03063742660125 10.1439104117216  8.04498004879178 10.1439104117216  C 9.83387260388398 10.1439104117216  11.2840565498907 8.69372646571492  11.2840565498907 6.90483391062271  C 11.2840565498907 5.1159413555305  9.83387260388398 3.66575740952381  8.04498004879178 3.66575740952381  C 8.03063742660132 3.66575740952381  8.01629496259774 3.66585267316356  8.00195360586081 3.66604319413919  C 6.22999774875552 3.68958313982754  4.80590354769287 5.13272169956701  4.80590354769287 6.90483391062271  Z M 10.0632832890533 6.90483391062271  C 10.0632832890533 8.04889586925749  9.14585956992351 8.98159632729897  8.00195360586081 9.0004884043956  C 7.99041772401056 9.00067892422515  7.97888046566461 9.00077418901099  7.96734301066499 9.00077418901099  C 6.80978715835503 9.00077418901099  5.87140273227671 8.06238976293266  5.87140273227671 6.90483391062271  C 5.87140273227671 5.74727805831276  6.80978715835503 4.80889363223443  7.96734301066499 4.80889363223443  C 7.97888046566461 4.80889363223443  7.99041772401056 4.80898889702027  8.00195360586081 4.80917941684982  C 9.14585956992351 4.82807149394645  10.0632832890533 5.76077195198793  10.0632832890533 6.90483391062271  Z M 9.5262439153445 5.95231564542124  C 9.5262439153445 6.26795203545043  9.27039403660953 6.52383855591477  8.95475764981685 6.52388375677656  C 8.63900744350042 6.52388376263736  8.38310768091226 6.26798400004921  8.38310768091226 5.95231564542124  C 8.38310768091226 5.63664729079328  8.63900744350042 5.38074752820513  8.95467579812838 5.38074752820513  C 9.27039403660953 5.38079273492772  9.5262439153445 5.63667925539206  9.5262439153445 5.95231564542124  Z M 15.3563205274725 7.18976060952381  C 13.2169410695971 10.9055249230769  10.7677717098901 12.811133010989  8.00195360586081 12.8111330227106  C 5.2361355018315 12.8111330227106  2.78696613040293 10.9055249347985  0.647586672527472 7.18976060952381  L 0.483546619780219 6.90454812600733  L 0.647586672527472 6.61933563076923  C 2.78696613040293 2.90414288644689  5.2361355018315 0.998534798534799  8.00195360586081 0.998534798534799  C 10.7677717098901 0.998534798534799  13.2169410813187 2.90357132893773  15.3563205274725 6.61933563076923  L 15.5203605802198 6.9051196952381  L 15.3563205274725 7.18976060952381  Z M 14.1983235282051 6.90454812600733  C 12.2892860249084 3.70033727765568  10.2219241611722 2.14167103296703  8.00195360586081 2.14167103296703  C 5.78198305054945 2.14167103296703  3.71462117509157 3.70033727765568  1.80558367179487 6.90454812600733  C 3.71462117509158 10.1093305435897  5.78198303882784 11.6679967882784  8.00195360586081 11.6679967882784  C 10.2219241611722 11.6679967882784  12.28928603663 10.1093305435897  14.1983235282051 6.90454812600733  Z " fill-rule="nonzero" fill="#000000" stroke="none" transform="matrix(1 0 0 1 3207 361 )" />
  </g>
</svg>