<svg class="icon" viewBox="0 0 1024 1024" version="1.1" xmlns="http://www.w3.org/2000/svg" p-id="24376" height="128" width="128"><path d="M364.032 391.68c-97.28 137.216-154.112 290.816-191.488 453.12 11.264 53.76 41.984 94.208 95.744 118.272h486.4c53.76-24.064 84.48-64.512 95.744-118.272-37.376-162.304-94.72-316.416-191.488-453.12H364.032z m248.32-121.856H395.264L314.368 103.424l53.76-7.68 28.16 55.296 17.92-3.584-1.536-51.712 72.192-1.536 1.536 52.736h35.84l1.024-52.736 72.192 1.536-1.536 52.224 17.92 3.584 28.16-55.296 53.76 7.68-81.408 165.888z m-276.992 97.28c-19.968 0-36.352-16.384-36.352-36.352 0-19.968 16.384-36.352 36.352-36.352h352.768c19.968 0 36.352 16.384 36.352 36.352 0 19.968-16.384 36.352-36.352 36.352H335.36z m214.528 469.504v21.504h-66.56v-22.528c-32.768-8.192-49.152-27.136-49.152-56.32v-75.776h66.56v76.288c0 7.68 4.608 11.264 13.312 11.264 8.704 0 12.8-3.584 12.8-11.264v-39.424c0-8.192-3.072-16.896-9.216-25.088-6.144-8.704-26.112-29.184-59.392-61.952-15.872-17.92-24.064-34.816-24.064-50.176v-37.376c0-33.792 16.384-54.272 49.152-61.44v-22.528h66.56v22.528c28.672 7.168 43.008 25.6 43.008 55.296v57.344h-66.56v-60.928c0-6.656-3.584-9.728-10.752-9.728-8.192 0-12.288 6.656-12.288 19.456l1.536 21.504c0 12.288 8.192 26.624 24.576 43.52 32.768 32.768 52.736 54.272 59.904 65.024 6.656 10.752 10.24 22.528 10.24 35.328v42.496c0.512 35.328-16.384 56.32-49.664 62.976z" fill="#231815" p-id="24377"></path></svg>