<?xml version="1.0" encoding="utf-8"?>
<svg version="1.1" xmlns:xlink="http://www.w3.org/1999/xlink" width="106px" height="106px" xmlns="http://www.w3.org/2000/svg">
  <g transform="matrix(1 0 0 1 -3344 -326 )">
    <path d="M 3397 331  C 3423.88 331  3445 352.12  3445 379  C 3445 405.88  3423.88 427  3397 427  C 3370.12 427  3349 405.88  3349 379  C 3349 352.12  3370.12 331  3397 331  Z " fill-rule="nonzero" fill="#000000" stroke="none" />
    <path d="M 3397 329  C 3425 329  3447 351  3447 379  C 3447 407  3425 429  3397 429  C 3369 429  3347 407  3347 379  C 3347 351  3369 329  3397 329  Z " stroke-width="6" stroke="#ffffff" fill="none" />
  </g>
</svg>