<?xml version="1.0" encoding="utf-8"?>
<svg version="1.1" xmlns:xlink="http://www.w3.org/1999/xlink" width="18px" height="18px" xmlns="http://www.w3.org/2000/svg">
  <g transform="matrix(1 0 0 1 -3388 -402 )">
    <path d="M 18 9  C 18 4.02943725152286  13.9705627484771 0  9 0  C 4.02943725152286 0  0 4.02943725152286  0 9  C 0 13.9705627484771  4.02943725152286 18  9 18  C 13.9705627484771 18  18 13.9705627484771  18 9  Z M 14.468625 14.4675  L 14.4675 14.4675  C 13.7633777915319 15.1743830537858  12.9285058170813 15.7375873056577  12.009375 16.12575  C 11.0565 16.53075  10.044 16.734375  9 16.734375  C 6.94852539543194 16.7394325904221  4.98008587773795 15.9245148312451  3.5325 14.470875  C 2.82549625635154 13.7664207701229  2.26228530097323 12.9311567616718  1.87425 12.011625  C 1.47044911380244 11.0590370911613  1.2634261908245 10.0346371562039  1.265625 9  C 1.26086515626398 6.94836301857111  2.07619747152499 4.97990049886494  3.53025 3.5325  C 4.23437220846814 2.82561694621424  5.06924418291875 2.2624126943423  5.988375 1.87425  C 6.94096290883865 1.47044911380244  7.96536284379607 1.2634261908245  9 1.265625  C 11.0516369814289 1.26086515626398  13.0200995011351 2.076197471525  14.4675 3.53025  C 15.1743830537858 4.23437220846814  15.7375873056577 5.06924418291875  16.12575 5.988375  C 16.53075 6.9435  16.734375 7.956  16.734375 9  C 16.7388371297215 11.0517993864896  15.9230902439378 13.0202849202079  14.468625 14.4675  Z M 12.866625 8.375625  L 12.86775 8.375625  L 9.64125 8.375625  L 9.64125 5.15025  C 9.64125 4.8007573067477  9.3579301932523 4.5174375  9.0084375 4.5174375  C 8.6589448067477 4.5174375  8.375625 4.8007573067477  8.375625 5.15025  L 8.375625 8.375625  L 5.13225 8.375625  C 4.7827573067477 8.375625  4.4994375 8.6589448067477  4.4994375 9.0084375  C 4.4994375 9.3579301932523  4.7827573067477 9.64125  5.13225 9.64125  L 8.375625 9.64125  L 8.375625 12.84975  C 8.375625 13.1992426932523  8.6589448067477 13.4825625  9.0084375 13.4825625  C 9.3579301932523 13.4825625  9.64125 13.1992426932523  9.64125 12.84975  L 9.64125 9.64125  L 12.866625 9.64125  C 13.2161176932523 9.64125  13.4994375 9.3579301932523  13.4994375 9.0084375  C 13.4994375 8.6589448067477  13.2161176932523 8.375625  12.866625 8.375625  Z " fill-rule="nonzero" fill="#ffffff" stroke="none" transform="matrix(1 0 0 1 3388 402 )" />
  </g>
</svg>