<?xml version="1.0" encoding="utf-8"?>
<svg version="1.1" xmlns:xlink="http://www.w3.org/1999/xlink" width="28px" height="28px" xmlns="http://www.w3.org/2000/svg">
  <g transform="matrix(1 0 0 1 -1007 -741 )">
    <path d="M 17.7573976608187 14.0211988304094  C 17.748918128655 11.9519005847953  16.0697076023392 10.2727192982456  14.008918128655 10.2727192982456  C 11.9396198830409 10.2727192982456  10.2604385964912 11.9519005847953  10.2604385964912 14.0211988304094  C 10.2604385964912 16.0904970760234  11.9396198830409 17.7696783625731  14.008918128655 17.7696783625731  C 16.078216374269 17.7696783625731  17.7573976608187 16.0904970760234  17.7573976608187 14.0211988304094  Z M 16.0527777777778 14.0212280701754  C 16.0527777777778 15.1491812865497  15.1368713450292 16.0650877192982  14.008918128655 16.0650877192982  C 12.8809941520468 16.0650877192982  11.9650584795322 15.1491520467836  11.9650584795322 14.0212280701754  C 11.9650584795322 12.8933040935673  12.8809649122807 11.9773684210526  14.008918128655 11.9773684210526  C 15.1368713450292 11.9773684210526  16.0527777777778 12.8932748538012  16.0527777777778 14.0212280701754  Z M 27.1626023391813 14.0297076023392  C 27.1880409356725 13.5463157894737  26.8064035087719 13.1646783625731  26.3314912280702 13.1646783625731  L 25.4240643274854 13.1646783625731  C 25.3307894736842 11.9180116959064  25.0424269005848 10.7137426900585  24.5590350877193 9.56038011695906  C 23.9823684210526 8.19497076023392  23.1597076023392 6.97374269005848  22.1080994152047 5.92213450292398  C 21.0564912280702 4.87052631578947  19.8352631578947 4.04786549707602  18.4698538011696 3.47119883040936  C 17.3164912280702 2.98780701754386  16.1037134502924 2.6909649122807  14.8570467836257 2.60616959064328  L 14.8570467836257 1.69023391812866  C 14.8570467836257 1.22377192982456  14.4754093567251 0.842163742690059  14.0090058479532 0.842163742690059  C 13.5426023391813 0.842163742690059  13.1609356725146 1.22380116959064  13.1609356725146 1.69023391812866  L 13.1609356725146 2.59766081871345  C 11.914269005848 2.69093567251462  10.71 2.97929824561404  9.55663742690058 3.46269005847953  C 8.19122807017544 4.04786549707602  6.96152046783626 4.87049707602339  5.90994152046784 5.92213450292398  C 4.85833333333333 6.97374269005848  4.03567251461988 8.20347953216374  3.45900584795322 9.56038011695906  C 2.97561403508772 10.7137426900585  2.67877192982456 11.9180409356725  2.59397660818713 13.1646783625731  L 1.66111111111111 13.1646783625731  C 1.1946783625731 13.1646783625731  0.813040935672514 13.5463157894737  0.813040935672514 14.0127485380117  C 0.813040935672514 14.4791812865497  1.1946783625731 14.8608187134503  1.66111111111111 14.8608187134503  L 2.59397660818713 14.8608187134503  C 2.6872514619883 16.107485380117  2.97561403508772 17.3117543859649  3.45900584795322 18.4651169590643  C 4.03567251461988 19.8305263157895  4.85836257309941 21.0517251461988  5.90994152046784 22.1033625730994  C 6.96154970760234 23.1549707602339  8.18277777777778 23.9776315789474  9.54818713450292 24.554298245614  C 10.7015497076023 25.0376900584795  11.9058479532164 25.3345321637427  13.152485380117 25.4193274853801  L 13.152485380117 26.2928362573099  C 13.152485380117 26.759298245614  13.5341228070175 27.1409064327485  14.0005555555556 27.1409064327485  C 14.4669883040936 27.1409064327485  14.8486257309942 26.759269005848  14.8486257309942 26.2928362573099  L 14.8486257309942 25.4362865497076  C 16.0952923976608 25.3430116959064  17.2995614035088 25.054649122807  18.4529239766082 24.5712573099415  C 19.8183333333333 23.9945614035088  21.0395321637427 23.1719298245614  22.0911695906433 22.1203216374269  C 23.1427777777778 21.0687134502924  23.9654385964912 19.847485380117  24.5421052631579 18.4820760233918  C 25.0254970760234 17.3287134502924  25.3223391812865 16.1244152046784  25.407134502924 14.8777777777778  L 26.3145614035088 14.8777777777778  C 26.7809941520468 14.8777777777778  27.1626023391813 14.4961403508772  27.1626023391813 14.0297076023392  Z M 14.8569883040936 23.7231871345029  L 14.8569883040936 21.7386842105263  C 14.8569883040936 21.2722222222222  14.475350877193 20.8906140350877  14.008918128655 20.8906140350877  C 13.542485380117 20.8906140350877  13.1608479532164 21.2722514619883  13.1608479532164 21.7386842105263  L 13.1608479532164 23.7231871345029  C 8.46248538011696 23.3161111111111  4.70552631578947 19.5676023391813  4.29845029239766 14.869298245614  L 6.37625730994152 14.869298245614  C 6.84271929824561 14.869298245614  7.22432748538012 14.4876608187135  7.22432748538012 14.0212280701754  C 7.22432748538012 13.5547953216374  6.84269005847953 13.1731578947368  6.37625730994152 13.1731578947368  L 4.29845029239766 13.1731578947368  C 4.70552631578947 8.48330409356725  8.4540350877193 4.72634502923977  13.1523391812865 4.31926900584795  L 13.1523391812865 6.23593567251462  C 13.1523391812865 6.70236842105263  13.5339766081871 7.08400584795322  14.0004093567251 7.08400584795322  C 14.4668421052632 7.08400584795322  14.8484795321637 6.70236842105263  14.8484795321637 6.23593567251462  L 14.8484795321637 4.31078947368421  C 19.5552923976608 4.71786549707602  23.3038011695906 8.47485380116959  23.7108771929825 13.1646783625731  L 21.6246198830409 13.1646783625731  C 21.1581578947368 13.1646783625731  20.7765497076023 13.5463157894737  20.7765497076023 14.0127485380117  C 20.7765497076023 14.4791812865497  21.1581871345029 14.8608187134503  21.6246198830409 14.8608187134503  L 23.7108771929825 14.8608187134503  C 23.3038011695906 19.5676315789474  19.5552923976608 23.3161403508772  14.8569883040936 23.723216374269  Z " fill-rule="nonzero" fill="#2a2a2a" stroke="none" transform="matrix(1 0 0 1 1007 741 )" />
  </g>
</svg>