<?xml version="1.0" encoding="utf-8"?>
<svg version="1.1" xmlns:xlink="http://www.w3.org/1999/xlink" width="19px" height="19px" xmlns="http://www.w3.org/2000/svg">
  <g transform="matrix(1 0 0 1 -3494 -592 )">
    <path d="M 18.8333333310547 9.5  C 18.8333333310547 14.6549166552734  14.6549166552734 18.8333333310547  9.5 18.8333333310547  C 4.34508332421875 18.8333333310547  0.166666668945312 14.6549166757812  0.166666668945312 9.5  C 0.166666668945312 4.34508332421875  4.34508332421875 0.166666668945312  9.5 0.166666668945312  C 14.6549166757812 0.166666668945312  18.8333333310547 4.34508334472656  18.8333333310547 9.5  Z M 1.33333333789062 9.5  C 1.33333333789062 14.0103333242188  4.98966667578125 17.6666666621094  9.5 17.6666666621094  C 14.0103333242188 17.6666666621094  17.6666666621094 14.0103333242188  17.6666666621094 9.5  C 17.6666666621094 4.98966667578125  14.0103333242188 1.33333333789062  9.5 1.33333333789062  C 4.98966667578125 1.33333333789062  1.33333333789062 4.98966667578125  1.33333333789062 9.5  Z M 7.72316666210937 13.0764166689453  L 14.9209166621094 5.87924999316406  C 15.0296728691779 5.77420937766559  15.1749659016113 5.71550076266125  15.32616591312 5.71550076266125  C 15.6483320121541 5.71550076266125  15.9094992373387 5.97666798784588  15.9094992373387 6.29883408688  C 15.9094992373387 6.45003409838873  15.8507906223344 6.59532713082206  15.7457500068359 6.70408333789063  L 8.16241666894531 14.2874166757813  C 7.94531561256822 14.5048028763529  7.59681692147499 14.5165385530665  7.36558333789062 14.31425  L 2.69891666210937 10.2309166689453  C 2.57226780792351 10.120077895967  2.49962387005519 9.95996749191544  2.49962387005519 9.79166667236328  C 2.49962387005519 9.46929283872131  2.76095949741271 9.20795721136379  3.08333333105469 9.20795721136379  C 3.22474016996657 9.20795721136379  3.36133926373686 9.25928961580948  3.46775 9.35241667578125  L 7.72316666210937 13.0764166689453  Z " fill-rule="nonzero" fill="#ffffff" stroke="none" transform="matrix(1 0 0 1 3494 592 )" />
  </g>
</svg>