<?xml version="1.0" encoding="utf-8"?>
<svg version="1.1" xmlns:xlink="http://www.w3.org/1999/xlink" width="56px" height="56px" xmlns="http://www.w3.org/2000/svg">
  <g transform="matrix(1 0 0 1 -3617 -563 )">
    <path d="M 3645 566  C 3659 566  3670 577  3670 591  C 3670 605  3659 616  3645 616  C 3631 616  3620 605  3620 591  C 3620 577  3631 566  3645 566  Z " fill-rule="nonzero" fill="#000000" stroke="none" />
    <path d="M 3645 565  C 3659.56 565  3671 576.44  3671 591  C 3671 605.56  3659.56 617  3645 617  C 3630.44 617  3619 605.56  3619 591  C 3619 576.44  3630.44 565  3645 565  Z " stroke-width="4" stroke="#ffffff" fill="none" />
  </g>
</svg>