<?xml version="1.0" encoding="utf-8"?>
<svg version="1.1" xmlns:xlink="http://www.w3.org/1999/xlink" width="51px" height="56px" xmlns="http://www.w3.org/2000/svg">
  <g transform="matrix(1 0 0 1 -4041 -386 )">
    <path d="M 50 18.0048905809659  C 50.2438338355078 15.8349098767045  48.7035296401172 13.1717976588068  46.8209496905859 12.0868073375  L 28.7528206067578 1.67376408579545  C 26.8702406572266 0.588773764488636  23.7896322664453 0.588773764488636  21.9069890769141 1.67376408579545  L 3.83886005484375 12.0868073375  C 1.9562801053125 13.1717976588068  0.415975909921876 15.8349098767045  1 18.0048905809659  L 1 38.8309770227273  C 0.415975909921876 41.0009577269886  1.9562801053125 43.6640699448864  3.83886005484375 44.7490602661932  L 21.9069890769141 55.1621035178977  C 23.7895690264453 56.2470938392046  26.8702406572266 56.2470938392046  28.7528206067578 55.1621035178977  L 46.8209496288281 44.7490602661932  C 48.7035295783594 43.6640699448864  50.24383377375 41.0009577269886  50 38.8309770227273  L 50 18.0048905809659  Z " fill-rule="nonzero" fill="#cecece" stroke="none" transform="matrix(1 0 0 1 4041 386 )" />
  </g>
</svg>