<?xml version="1.0" encoding="utf-8"?>
<svg version="1.1" xmlns:xlink="http://www.w3.org/1999/xlink" width="45px" height="49px" xmlns="http://www.w3.org/2000/svg">
  <g transform="matrix(1 0 0 1 -4044 -390 )">
    <path d="M 44 15.7542792583452  C 44.3327945607422 13.8555461421165  42.9737026236328 11.525322951456  41.3126026681641 10.5759564203125  L 25.3701358294922 1.46454357507102  C 23.7090358740234 0.515177043927557  20.9908519998047 0.515177043927557  19.3296962443359 1.46454357507102  L 3.38722946015625 10.5759564203125  C 1.7261295046875 11.525322951456  0.367037567578126 13.8555461421165  1 15.7542792583452  L 1 33.9771048948864  C 0.367037567578126 35.8758380111151  1.7261295046875 38.2060612017756  3.38722946015625 39.155427732919  L 19.3296962443359 48.2668405781605  C 20.9907961998047 49.216207109304  23.7090358740234 49.216207109304  25.3701358294922 48.2668405781605  L 41.3126026136719 39.155427732919  C 42.9737025691406 38.2060612017756  44.33279450625 35.8758380111151  44 33.9771048948864  L 44 15.7542792583452  Z " fill-rule="nonzero" fill="#4a4a4a" stroke="none" transform="matrix(1 0 0 1 4044 390 )" />
  </g>
</svg>