<?xml version="1.0" encoding="utf-8"?>
<svg version="1.1" xmlns:xlink="http://www.w3.org/1999/xlink" width="29px" height="27px" xmlns="http://www.w3.org/2000/svg">
  <g transform="matrix(1 0 0 1 -4052 -401 )">
    <path d="M 18.9537109375 2.29482421875  L 18.9537109375 2.38505859375  L 18.9537109375 2.47529296875  C 18.93115234375 2.43662109375  18.93115234375 2.40439453125  18.9537109375 2.38505859375  C 18.934375 2.349609375  18.9537109375 2.32705078125  18.9537109375 2.29482421875  Z M 14.4935546875 13.5  C 13.25927734375 13.5  12.2634765625 14.4990234375  12.2634765625 15.730078125  C 12.2634765625 16.96435546875  13.25927734375 17.96015625  14.4935546875 17.96015625  C 15.72783203125 17.96015625  16.7236328125 16.96435546875  16.7236328125 15.730078125  C 16.7236328125 14.49580078125  15.72783203125 13.5  14.4935546875 13.5  Z M 27.85146484375 17.96015625  L 18.93115234375 17.96015625  C 18.5927734375 17.96015625  18.25439453125 18.1212890625  18.05458984375 18.38876953125  C 17.25537109375 19.47802734375  15.9501953125 20.1708984375  14.49033203125 20.1708984375  C 13.03046875 20.1708984375  11.74140625 19.47158203125  10.9228515625 18.38876953125  C 10.71015625 18.10517578125  10.38466796875 17.96015625  10.0462890625 17.96015625  L 1.1453125 17.96015625  C 0.539453125 17.96015625  0.0399414062500001 18.45966796875  0.0399414062500001 19.06552734375  L 0.0399414062500001 25.7396484375  C 0.0399414062500001 26.3455078125  0.539453125 26.84501953125  1.1453125 26.84501953125  L 27.85146484375 26.84501953125  C 28.45732421875 26.84501953125  28.9568359375 26.3455078125  28.9568359375 25.7396484375  L 28.9568359375 19.06552734375  C 28.9568359375 18.45966796875  28.45732421875 17.96015625  27.85146484375 17.96015625  Z M 8.9248046875 0.154980468750002  C 8.31572265625 0.154980468750002  7.81943359375 0.654492187500002  8 1.2603515625  L 8 15.730078125  L 26.72998046875 15.730078125  L 26.72998046875 1.2603515625  C 26.72998046875 0.654492187500002  26.23046875 0.154980468750002  25.624609375 0.154980468750002  L 8.9248046875 0.154980468750002  Z M 22.84345703125 10.55771484375  C 22.93046875 11.23447265625  22.3955078125 11.82421875  21.75419921875 11.82421875  L 12.8693359375 11.82421875  C 12.3150390625 11.82421875  11.79619140625 11.42783203125  11.728515625 10.87998046875  C 11.63828125 10.20322265625  12.1732421875 9.6134765625  12.8177734375 9.6134765625  L 21.70263671875 9.6134765625  C 22.25693359375 9.6134765625  22.77578125 10.00986328125  22.84345703125 10.55771484375  Z M 22.84345703125 5.546484375  C 22.93046875 6.22001953125  22.3955078125 6.81298828125  21.75419921875 6.81298828125  L 12.8693359375 6.81298828125  C 12.3150390625 6.81298828125  11.79619140625 6.4166015625  11.728515625 5.86875  C 11.63828125 5.1919921875  12.1732421875 4.60224609375  12.8177734375 4.60224609375  L 21.70263671875 4.60224609375  C 22.25693359375 4.60224609375  22.77578125 4.9986328125  22.84345703125 5.546484375  Z M 6 15.730078125  L 5.58935546875 15.730078125  L 2.25068359375 15.730078125  L 2.25068359375 3.4904296875  C 2.25068359375 2.8845703125  2.7501953125 2.38505859375  3.3560546875 2.38505859375  L 6 2.38505859375  L 6 15.730078125  Z " fill-rule="nonzero" fill="#cecece" stroke="none" transform="matrix(1 0 0 1 4052 401 )" />
  </g>
</svg>