<?xml version="1.0" encoding="utf-8"?>
<svg version="1.1" xmlns:xlink="http://www.w3.org/1999/xlink" width="24px" height="24px" xmlns="http://www.w3.org/2000/svg">
  <g transform="matrix(1 0 0 1 -5146 -337 )">
    <path d="M 24 12  C 24 18.627375  18.627375 24  12 24  C 5.372625 24  0 18.627375  0 12  C 0 5.372625  5.372625 0  12 0  C 18.627375 0  24 5.372625  24 12  Z M 16.03875 8.629875  L 13.28625 11.4885  L 10.794375 14.067375  L 7.7685 10.935375  C 7.587 10.74675  7.30275 10.738125  7.13175 10.915875  L 6.77925 11.29275  C 6.60825 11.470125  6.6165 11.76525  6.798 11.95425  L 10.073625 15.357375  C 10.084125 15.368625  10.09575 15.3795  10.10625 15.38925  C 10.119 15.4035  10.132125 15.41925  10.146 15.43425  C 10.3133640770636 15.6111131510309  10.5461327507278 15.7113126990082  10.7896308174222 15.7113126990082  C 11.0320508625551 15.7113126990082  11.2638863422523 15.6119956114464  11.431125 15.4365  C 11.4520262853745 15.4206272854763  11.4715917548723 15.4030685307987  11.489625 15.384  L 14.22225 12.54525  L 14.532375 12.22275  L 17.0085 9.64875  C 17.1945 9.45525  17.2065 9.154875  17.0355 8.978625  L 16.683 8.60175  C 16.513125 8.424375  16.224 8.43675  16.039125 8.629875  Z " fill-rule="nonzero" fill="#000000" stroke="none" transform="matrix(1 0 0 1 5146 337 )" />
  </g>
</svg>