<?xml version="1.0" encoding="utf-8"?>
<svg version="1.1" xmlns:xlink="http://www.w3.org/1999/xlink" width="29px" height="22px" xmlns="http://www.w3.org/2000/svg">
  <g transform="matrix(1 0 0 1 -4860 -629 )">
    <path d="M 28 19.649  C 28.541 20.797  27.603 21.742  26.448 21.742  L 2.781 21.742  C 1.626 21.742  0.688 20.797  1 19.649  L 1 2.177  C 0.688 1.022  1.633 0.0839999999999996  2.781 0  L 26.448 0  C 27.603 0.0839999999999996  28.541 1.029  28 2.177  L 28 19.649  Z M 26 2  L 3 2  L 3 20  L 26 20  L 26 2  Z M 4.048 5.67  C 4.048 4.102  5.329 2.821  6.904 2.821  C 8.479 2.821  9.753 4.095  9.753 5.67  C 9.753 7.245  8.479 8.519  6.904 8.519  C 5.329 8.519  4.048 7.245  4.048 5.67  Z M 25.16 11.62  L 25.16 19  L 4.069 19  L 4.069 15.351  L 8.409 10.997  L 10.887 13.482  L 18.951 5.397  L 25.16 11.62  Z " fill-rule="nonzero" fill="#000000" stroke="none" transform="matrix(1 0 0 1 4860 629 )" />
  </g>
</svg>