<?xml version="1.0" encoding="utf-8"?>
<svg version="1.1" xmlns:xlink="http://www.w3.org/1999/xlink" width="24px" height="31px" xmlns="http://www.w3.org/2000/svg">
  <g transform="matrix(1 0 0 1 -4862 -527 )">
    <path d="M 23.4589543269231 25.3027225378788  C 23.1487680288462 25.8525982481061  22.5850961538462 26.1818448153409  21.9613882211538 26  L 1.85597956730769 26  C 1.27896634615385 26.1818448153409  0.741977163461538 25.8899354876894  0.418449519230769 25.4045513731061  C 0.0949218750000002 24.9157729640152  0.0315504807692308 24.3014056581439  0.248347355769231 23.7549242424242  L 1.88933293269231 19.6308564157197  L 1.88933293269231 13.3649887547348  C 1.88933293269231 12.0446081912879  2.14615384615385 10.7615648674242  2.653125 9.5498017282197  C 3.14008413461538 8.38216441761364  3.83716947115385 7.33332741477273  4.72436899038462 6.43044507575758  C 5.61156850961538 5.52756273674242  6.6421875 4.81815518465909  7.78954326923077 4.32258818655303  C 8.98025841346154 3.80665542140152  10.241015625 3.54529474431818  11.5384615384615 3.54529474431818  L 11.5618088942308 3.54529474431818  C 12.8592548076923 3.54529474431818  14.1200120192308 3.80665542140152  15.3107271634615 4.32258818655303  C 16.4580829326923 4.81815518465909  17.4887019230769 5.52756273674242  18.3759014423077 6.43044507575758  C 19.2631009615385 7.33332741477273  19.9601862980769 8.38216441761364  20.4471454326923 9.5498017282197  C 20.9541165865385 10.7615648674242  21.2109375 12.0446081912879  21.2109375 13.3649887547348  L 21.2109375 19.5527876420455  L 23.4622896634615 23.5376893939394  C 23.7758112980769 24.0909593986742  23.7724759615385 24.7494525331439  23.4589543269231 25.3027225378788  Z M 4.02394831730769 20.0551432291667  L 2.44966947115385 24  L 21.2676382211538 24  L 19.0763221153846 20.1332120028409  L 19.0763221153846 13.3649887547348  C 19.0763221153846 11.331806344697  18.2925180288462 9.41402994791667  16.8683293269231 7.96466619318182  C 15.444140625 6.51530243844697  13.5596754807692 5.71764322916667  11.5618088942308 5.71764322916667  L 11.5384615384615 5.71764322916667  C 9.54059495192307 5.71764322916667  7.6561298076923 6.51530243844697  6.23194110576923 7.96466619318182  C 4.80775240384615 9.41402994791667  4.02394831730769 11.331806344697  4.02394831730769 13.3649887547348  L 4.02394831730769 20.0551432291667  Z M 9.04696514423077 6.00955255681818  C 8.99693509615385 6.01973544034091  8.94690504807692 6.02312973484849  8.896875 6.02312973484849  C 8.44660456730769 6.02312973484849  8.04969951923077 5.69388316761364  7.96965144230769 5.22886482007576  C 7.93296274038462 5.01841856060606  7.91628605769231 4.80457800662879  7.91628605769231 4.59413174715909  C 7.91628605769231 2.57452651515152  9.53058894230769 0.928293678977273  11.5184495192308 0.928293678977273  C 13.5063100961538 0.928293678977273  15.1206129807692 2.57113222064394  15.1206129807692 4.59413174715909  C 15.1206129807692 4.80457800662879  15.1006009615385 5.01841856060606  15.0672475961538 5.22886482007576  C 14.9771935096154 5.74479758522727  14.4969050480769 6.09440991950758  13.9865985576923 6.00955255681818  L 12.0921274038462 5.69727746212121  C 11.7118990384615 5.63278586647727  11.325 5.63278586647727  10.9414362980769 5.69727746212121  L 9.04696514423077 6.00955255681818  Z M 10.6379206730769 3.80326112689394  C 10.9314302884615 3.75574100378788  11.2249399038462 3.73198094223485  11.5151141826923 3.73198094223485  C 11.8086237980769 3.73198094223485  12.1021334134615 3.75574100378788  12.3923076923077 3.80326112689394  L 13.0993990384615 3.91866714015152  C 12.8392427884615 3.29072265625  12.2288762019231 2.84607007575758  11.5151141826923 2.84607007575758  C 10.8013521634615 2.84607007575758  10.1909855769231 3.29072265625  9.93082932692308 3.91866714015152  L 10.6379206730769 3.80326112689394  Z M 17.4753605769231 29.1450639204545  C 17.4753605769231 29.7424597537879  16.9950721153846 30.2312381628788  16.4080528846154 30.2312381628788  L 7.02575120192308 30.2312381628788  C 6.43873197115384 30.2312381628788  5.95844350961538 29.7424597537879  5.95844350961538 29.1450639204545  C 5.95844350961538 28.5476680871212  6.43873197115384 28.0588896780303  7.02575120192308 28.0588896780303  L 16.4080528846154 28.0588896780303  C 16.9950721153846 28.0588896780303  17.4753605769231 28.5476680871212  17.4753605769231 29.1450639204545  Z " fill-rule="nonzero" fill="#000000" stroke="none" transform="matrix(1 0 0 1 4862 527 )" />
  </g>
</svg>