<?xml version="1.0" encoding="utf-8"?>
<svg version="1.1" xmlns:xlink="http://www.w3.org/1999/xlink" width="26px" height="32px" xmlns="http://www.w3.org/2000/svg">
  <g transform="matrix(1 0 0 1 -4861 -427 )">
    <path d="M 22.16164878125 22.6216147258555  C 27.2129168744847 17.3973555901108  27.2129168744847 9.10909986979904  22.16164878125 3.88484073405443  C 19.7616299756651 1.40201397940241  16.4564131065616 0  13.003222890625 0  C 9.55003267468839 0  6.24481580558485 1.40201397940241  3.844797 3.88484073405443  C -1.20647109323474 9.10909986979905  -1.20647109323474 17.3973555901108  3.844797 22.6216147258555  L 13.003222875 32  L 22.16164878125 22.6216147258555  Z M 20.7818859375 5.40457908964608  C 25.0766032695233 9.83348928212562  25.0766032695233 16.8729317739147  20.7818859375 21.3018419663943  L 13.003222875 29.3004647803635  L 5.22455984375 21.3018419663943  C 0.929842511726723 16.8729317739147  0.929842511726723 9.83348928212562  5.22455984375 5.40457908964607  C 7.26570968492532 3.30078222496237  10.0719677698093 2.11347004793722  13.003222890625 2.11347004793722  C 15.9344780114407 2.11347004793722  18.7407360963247 3.30078222496237  20.7818859375 5.40457908964608  Z " fill-rule="nonzero" fill="#000000" stroke="none" transform="matrix(1 0 0 1 4861 427 )" />
  </g>
</svg>