<?xml version="1.0" encoding="utf-8"?>
<svg version="1.1" xmlns:xlink="http://www.w3.org/1999/xlink" width="24px" height="32px" xmlns="http://www.w3.org/2000/svg">
  <g transform="matrix(1 0 0 1 -4862 -325 )">
    <path d="M 19.8020864375 2  L 4.1979135625 2  C 3.33401181976419 2.07928465625  2.6336810797589 2.77961538226419  3 3.643517125  L 3 28.356482875  C 2.6336810797589 29.2203846177358  3.33401181976419 29.92071534375  4.1979135625 30  L 19.8020864375 30  C 20.6659881802358 29.92071534375  21.3663189202411 29.2203846177358  21 28.356482875  L 21 3.643517125  C 21.3663189202411 2.77961538226419  20.6659881802358 2.07928465625  19.8020864375 2  Z M 1 3.643517125  C 0.554396437499999 1.63125818111516  2.18565461861516 0  4.1979135625 0  L 19.8020864375 0  C 21.8143453813848 0  23.4456035625 1.63125818111516  23 3.643517125  L 23 28.356482875  C 23.4456035625 30.3687418188848  21.8143453813848 32  19.8020864375 32  L 4.1979135625 32  C 2.18565461861517 32  0.554396437500001 30.3687418188848  1 28.356482875  L 1 3.643517125  Z M 9.3961251875 25.7526080625  C 9.3961251875 27.1906884119123  10.5619196505877 28.356482875  12 28.356482875  C 13.4380803494123 28.356482875  14.6038748125 27.1906884119123  14.6038748125 25.7526080625  C 14.6038748125 24.3145277130877  13.4380803494123 23.14873325  12 23.14873325  C 10.5619196505877 23.14873325  9.3961251875 24.3145277130877  9.3961251875 25.7526080625  Z M 8.09895678125 5.980327875  L 15.90104321875 5.980327875  C 16.475221821852 5.980327875  16.940685546875 5.51486414997702  16.940685546875 4.940685546875  C 16.940685546875 4.36650694377298  16.475221821852 3.90104321875  15.90104321875 3.90104321875  L 8.09895678125 3.90104321875  C 7.52477817814798 3.90104321875  7.059314453125 4.36650694377298  7.059314453125 4.940685546875  C 7.059314453125 5.51486414997702  7.52477817814798 5.980327875  8.09895678125 5.980327875  Z " fill-rule="nonzero" fill="#000000" stroke="none" transform="matrix(1 0 0 1 4862 325 )" />
  </g>
</svg>