<?xml version="1.0" encoding="utf-8"?>
<svg version="1.1" xmlns:xlink="http://www.w3.org/1999/xlink" width="12px" height="11px" xmlns="http://www.w3.org/2000/svg">
  <g transform="matrix(1 0 0 1 -4868 -435 )">
    <path d="M 3.6436284375 2.9836121875  C 4.26792794618936 2.35526498290306  5.11746420347368 2.00249145042888  6.003222875 2.00378059375  C 7.834604818802 2.0064460080182  9.31782121317803 3.49182266342225  9.31782121317803 5.32320654686046  C 9.31782121317803 7.15647682059002  7.83166201815758 8.64263601561046  5.99839174442803 8.64263601561046  C 4.16512147069847 8.64263601561046  2.67896227567803 7.15647682059002  2.67896227567803 5.32320654686046  C 2.67896227567803 4.4465553432161  3.02574869928545 3.60549799852565  3.6436284375 2.9836121875  Z M 9.7825733125 1.56385621875  C 8.78215802914748 0.559313367164631  7.42093006768557 -0.00246325578187712  6.003222875 0.00412428125000019  C 3.05769384239917 0.00859099335838742  0.672236909207301 2.39766806683116  0.672236909207301 5.34320048617599  C 0.672236909207301 8.29189424271997  3.06262549641333 10.682282829926  6.0113192529573 10.682282829926  C 8.96001300950128 10.682282829926  11.3504015967073 8.29189424271997  11.3504015967073 5.34320048617599  C 11.3504015967073 3.92520537378948  10.7863210268445 2.56545527261351  9.7825733125 1.56385621875  Z " fill-rule="nonzero" fill="#000000" stroke="none" transform="matrix(1 0 0 1 4868 435 )" />
  </g>
</svg>